<svg xmlns="http://www.w3.org/2000/svg" xmlns:xlink="http://www.w3.org/1999/xlink" version="1.1" x="0px" y="0px" viewBox="0 0 100 125" enable-background="new 0 0 100 100" xml:space="preserve"><g><path d="M10.208,77.564c-0.295,0-0.589-0.096-0.83-0.277c-0.342-0.258-0.54-0.664-0.54-1.092V21.884   c0-0.514,0.283-0.979,0.733-1.214c0.315-0.166,7.882-4.051,19.826-4.051c6.983,0,14.031,1.338,20.935,3.987   c0.529,0.204,0.877,0.712,0.877,1.279v54.311c0,0.438-0.208,0.85-0.562,1.107c-0.354,0.256-0.813,0.326-1.22,0.197   c-0.086-0.025-8.241-2.574-19.607-2.574c-6.689,0-13.164,0.873-19.243,2.59C10.454,77.549,10.331,77.564,10.208,77.564z    M11.578,22.757v51.655c5.806-1.477,11.933-2.225,18.242-2.225c8.76,0,15.572,1.422,18.649,2.203V22.832   c-6.304-2.306-12.72-3.473-19.072-3.473C20.22,19.359,13.691,21.831,11.578,22.757z"/></g><g><path d="M89.477,77.564c-0.129,0-0.252-0.016-0.375-0.049c-6.073-1.717-12.549-2.59-19.243-2.59   c-11.398,0-19.521,2.549-19.602,2.574c-0.417,0.129-0.872,0.059-1.226-0.197c-0.353-0.258-0.562-0.67-0.562-1.107V21.884   c0-0.567,0.353-1.075,0.883-1.279c6.903-2.649,13.945-3.987,20.929-3.987c11.944,0,19.511,3.885,19.826,4.051   c0.455,0.235,0.739,0.701,0.739,1.214v54.311c0,0.428-0.204,0.834-0.546,1.092C90.06,77.469,89.771,77.564,89.477,77.564z    M69.858,72.188c6.31,0,12.442,0.748,18.248,2.225V22.757c-2.113-0.926-8.647-3.398-17.825-3.398   c-6.352,0-12.763,1.167-19.072,3.473v51.559C54.292,73.609,61.099,72.188,69.858,72.188z"/></g><g><path d="M95.191,83.381H4.809c-0.755,0-1.37-0.609-1.37-1.369V25.614c0-0.754,0.615-1.37,1.37-1.37h5.399   c0.754,0,1.37,0.615,1.37,1.37c0,0.76-0.616,1.37-1.37,1.37H6.179v53.658h87.643V28.349h-4.345c-0.76,0-1.37-0.616-1.37-1.37   c0-0.76,0.61-1.37,1.37-1.37h5.715c0.76,0,1.37,0.61,1.37,1.37v55.033C96.562,82.771,95.951,83.381,95.191,83.381z"/></g><g><path d="M49.84,83.381c-0.755,0-1.37-0.609-1.37-1.369v-5.816c0-0.756,0.615-1.371,1.37-1.371c0.76,0,1.369,0.615,1.369,1.371   v5.816C51.209,82.771,50.6,83.381,49.84,83.381z"/></g><g><path d="M41.197,30.907c-0.161,0-0.326-0.027-0.487-0.085c-9.364-3.559-20.56-0.016-20.666,0.021   c-0.723,0.23-1.493-0.166-1.729-0.883c-0.23-0.717,0.16-1.493,0.883-1.723c0.497-0.16,12.211-3.869,22.486,0.021   c0.706,0.268,1.059,1.06,0.792,1.766C42.268,30.57,41.748,30.907,41.197,30.907z"/></g><g><path d="M41.197,43.263c-0.161,0-0.326-0.032-0.487-0.091c-9.364-3.559-20.56-0.016-20.666,0.021   c-0.723,0.235-1.493-0.161-1.729-0.877c-0.23-0.723,0.16-1.493,0.883-1.729c0.497-0.155,12.211-3.869,22.486,0.021   c0.706,0.272,1.059,1.06,0.792,1.771C42.268,42.926,41.748,43.263,41.197,43.263z"/></g><g><path d="M41.197,55.613c-0.161,0-0.326-0.025-0.487-0.086c-9.364-3.563-20.56-0.016-20.666,0.021   c-0.723,0.236-1.493-0.166-1.729-0.883c-0.23-0.717,0.16-1.492,0.883-1.723c0.497-0.16,12.211-3.869,22.486,0.021   c0.706,0.268,1.059,1.059,0.792,1.766C42.268,55.277,41.748,55.613,41.197,55.613z"/></g><g><path d="M41.197,67.971c-0.161,0-0.326-0.033-0.487-0.092c-9.364-3.559-20.56-0.012-20.666,0.021   c-0.723,0.234-1.493-0.16-1.729-0.877c-0.23-0.723,0.16-1.494,0.883-1.729c0.497-0.156,12.211-3.869,22.486,0.021   c0.706,0.271,1.059,1.059,0.792,1.77C42.268,67.633,41.748,67.971,41.197,67.971z"/></g><g><path d="M41.197,61.789c-0.161,0-0.326-0.027-0.487-0.086c-9.364-3.559-20.56-0.016-20.666,0.021   c-0.723,0.23-1.493-0.166-1.729-0.883c-0.23-0.717,0.16-1.492,0.883-1.723c0.497-0.16,12.211-3.869,22.486,0.021   c0.706,0.268,1.059,1.059,0.792,1.766C42.268,61.451,41.748,61.789,41.197,61.789z"/></g><g><path d="M41.197,49.438c-0.161,0-0.326-0.027-0.487-0.086c-9.364-3.559-20.56-0.016-20.666,0.021   c-0.723,0.235-1.493-0.166-1.729-0.883c-0.23-0.717,0.16-1.493,0.883-1.723c0.497-0.161,12.211-3.875,22.486,0.021   c0.706,0.268,1.059,1.06,0.792,1.766C42.268,49.101,41.748,49.438,41.197,49.438z"/></g><g><path d="M41.197,37.082c-0.161,0-0.326-0.027-0.487-0.085c-9.364-3.564-20.56-0.016-20.666,0.021   c-0.723,0.235-1.493-0.166-1.729-0.883c-0.23-0.717,0.16-1.493,0.883-1.723c0.497-0.161,12.211-3.875,22.486,0.021   c0.706,0.268,1.059,1.06,0.792,1.766C42.268,36.745,41.748,37.082,41.197,37.082z"/></g><g><path d="M80.443,30.907c-0.16,0-0.326-0.027-0.487-0.085c-9.359-3.559-20.554-0.016-20.666,0.021   c-0.723,0.23-1.488-0.166-1.724-0.883c-0.235-0.717,0.161-1.493,0.878-1.723c0.498-0.16,12.217-3.869,22.486,0.021   c0.706,0.268,1.064,1.06,0.797,1.766C81.52,30.57,80.995,30.907,80.443,30.907z"/></g><g><path d="M80.443,43.263c-0.16,0-0.326-0.032-0.487-0.091c-9.359-3.559-20.554-0.016-20.666,0.021   c-0.723,0.235-1.488-0.161-1.724-0.877c-0.235-0.723,0.161-1.493,0.878-1.729c0.498-0.155,12.217-3.869,22.486,0.021   c0.706,0.272,1.064,1.06,0.797,1.771C81.52,42.926,80.995,43.263,80.443,43.263z"/></g><g><path d="M80.443,55.613c-0.16,0-0.326-0.025-0.487-0.086c-9.359-3.563-20.554-0.016-20.666,0.021   c-0.723,0.236-1.488-0.166-1.724-0.883s0.161-1.492,0.878-1.723c0.498-0.16,12.217-3.869,22.486,0.021   c0.706,0.268,1.064,1.059,0.797,1.766C81.52,55.277,80.995,55.613,80.443,55.613z"/></g><g><path d="M80.443,67.971c-0.16,0-0.326-0.033-0.487-0.092C70.597,64.32,59.402,67.867,59.29,67.9   c-0.723,0.234-1.488-0.16-1.724-0.877c-0.235-0.723,0.161-1.494,0.878-1.729c0.498-0.156,12.217-3.869,22.486,0.021   c0.706,0.271,1.064,1.059,0.797,1.77C81.52,67.633,80.995,67.971,80.443,67.971z"/></g><g><path d="M80.443,61.789c-0.16,0-0.326-0.027-0.487-0.086c-9.359-3.559-20.554-0.016-20.666,0.021   c-0.723,0.23-1.488-0.166-1.724-0.883s0.161-1.492,0.878-1.723c0.498-0.16,12.217-3.869,22.486,0.021   c0.706,0.268,1.064,1.059,0.797,1.766C81.52,61.451,80.995,61.789,80.443,61.789z"/></g><g><path d="M80.443,49.438c-0.16,0-0.326-0.027-0.487-0.086c-9.359-3.559-20.554-0.016-20.666,0.021   c-0.723,0.235-1.488-0.166-1.724-0.883c-0.235-0.717,0.161-1.493,0.878-1.723c0.498-0.161,12.217-3.875,22.486,0.021   c0.706,0.268,1.064,1.06,0.797,1.766C81.52,49.101,80.995,49.438,80.443,49.438z"/></g><g><path d="M80.443,37.082c-0.16,0-0.326-0.027-0.487-0.085c-9.359-3.564-20.554-0.016-20.666,0.021   c-0.723,0.235-1.488-0.166-1.724-0.883c-0.235-0.717,0.161-1.493,0.878-1.723c0.498-0.161,12.217-3.875,22.486,0.021   c0.706,0.268,1.064,1.06,0.797,1.766C81.52,36.745,80.995,37.082,80.443,37.082z"/></g></svg>