<svg xmlns="http://www.w3.org/2000/svg" xmlns:xlink="http://www.w3.org/1999/xlink" version="1.1" x="0px" y="0px" viewBox="0 0 100 125" enable-background="new 0 0 100 100" xml:space="preserve"><path d="M94.233,7.241H5.767c-2.401,0-4.354,1.955-4.354,4.355v60.782c0,2.4,1.953,4.354,4.354,4.354h35.939l-0.729,7.834  c-0.033,0.458-0.532,4.479-8.137,4.479c-1.026,0-1.857,0.832-1.857,1.856c0,1.025,0.831,1.857,1.857,1.857h34.318  c1.025,0,1.856-0.832,1.856-1.857c0-1.024-0.831-1.856-1.856-1.856c-7.605,0-8.105-4.021-8.144-4.558l-0.723-7.755h35.94  c2.4,0,4.354-1.953,4.354-4.354V11.597C98.587,9.196,96.634,7.241,94.233,7.241z M55.313,84.722  c0.001,0.042,0.111,2.238,1.852,4.323h-14.32c1.725-2.061,1.837-4.212,1.836-4.212l0.755-8.101h9.129L55.313,84.722z M94.874,72.379  c0,0.353-0.288,0.641-0.641,0.641H5.767c-0.353,0-0.641-0.288-0.641-0.641V11.597c0-0.354,0.288-0.642,0.641-0.642h88.466  c0.353,0,0.641,0.287,0.641,0.642V72.379z"/></svg>