<?xml version="1.0" encoding="UTF-8" standalone="no"?>
<svg width="600px" height="472px" viewBox="0 0 600 472" version="1.1" xmlns="http://www.w3.org/2000/svg" xmlns:xlink="http://www.w3.org/1999/xlink">
    <!-- Generator: Sketch 40.1 (33804) - http://www.bohemiancoding.com/sketch -->
    <title>deardiarylogo</title>
    <desc>Created with Sketch.</desc>
    <defs></defs>
    <g id="Page-1" stroke="none" stroke-width="1" fill="none" fill-rule="evenodd">
        <g id="deardiarylogo" transform="translate(5.000000, 1.000000)">
            <g id="world" transform="translate(50.000000, 0.000000)" stroke="#979797">
                <circle id="Oval" cx="235" cy="235" r="235"></circle>
                <path d="M152.488281,14.6132812 C163.640756,15.7297832 176.289598,19.1517574 178.53125,32.3242188 C179.221846,36.3823225 176.816326,47.293394 181.613281,50.6445313 C184.270068,52.500554 188.361541,49.3575566 191.335938,50.6445313 C221.784306,63.8190619 197.290312,61.5507771 226.367188,71.1289062 C230.458497,72.4766125 238.483548,68.2744953 239.214844,72.5195312 L242.296875,75.2539063 C243.154567,80.2326521 241.635938,85.4014929 242.296875,90.4101562 C242.384091,91.0710933 243.654011,90.5867067 244.296875,90.4101562 C247.474496,89.5374831 250.75977,88.8199898 253.675781,87.2851562 C269.813477,78.7911291 244.858485,56.5790352 256.105469,47.3515625 C263.680028,41.1370928 275.133984,42.1159501 283.84375,37.6289063 C291.401129,33.735542 301.19745,17.9009057 303.46875,12.2226562" id="Path-2"></path>
                <path d="M36.9868062,109.418781 C45.5679619,109.418781 54.2181906,108.33219 62.7302733,109.418781 C91.1905534,113.051815 91.5012646,136.855677 106.694597,155.696503 C114.298445,165.125822 129.347953,167.376883 139.088676,170.159307 C140.078901,170.442164 154.685845,170.228739 156.11867,175.329475 C158.964029,185.458718 150.50578,180.044211 149.536385,187.15351 C148.872008,192.025884 149.138636,197.004546 149.536385,201.905896 C149.720845,204.178933 152.019524,206.369937 151.27062,208.523971 C150.218229,211.550912 118.559657,219.754539 112.548047,225.010592 C103.861089,232.605747 113.703119,253.420801 113.703119,262.900212" id="Path-3"></path>
                <path d="M113.703119,262.900212 C109.320028,254.216265 85.2837132,250.542938 81.5986208,256.571719 C73.7927939,269.341988 97.149518,297.221761 107.052506,301.694368 C114.1014,304.877945 122.284275,304.39279 129.900159,305.742001" id="Path-4"></path>
                <path d="M5.01896449,197.705338 C8.39281436,221.227516 21.5656369,237.682632 33.4825451,258.169297 C34.528553,259.967517 33.3429543,262.892454 34.9271987,264.240747 C56.5061661,282.605826 41.9370867,258.584203 59.6978022,281.817366 C64.4521858,288.036674 66.9347158,295.887038 72.1335367,301.73992 L81.06501,317.507468 C83.0014831,319.687568 86.9181786,318.195094 89.6385737,319.244957 C97.4328792,322.25296 104.396264,327.41265 112.453689,329.621084 C117.289332,330.94647 124.570773,325.548598 127.495657,329.621084 C131.283047,334.894489 130.375765,362.517648 130.964127,371.16789 C131.811943,383.632695 154.499114,384.21696 148.283701,400.633618 C144.991321,409.329724 138.404744,416.612241 135.594176,425.475803 C135.109325,427.004859 138.846321,425.102794 140.406435,425.475803 C142.549012,425.988075 144.731876,426.739701 146.481138,428.078783 C150.976407,431.519967 155.188893,435.385332 158.916873,439.645773 C160.650249,441.626725 161.868402,444.08462 162.678178,446.589221 C163.724395,449.825122 163.834335,453.291893 164.412413,456.643229" id="Path-5"></path>
                <path d="M187.123409,464.230914 C187.123409,455.577157 182.667837,426.988785 201.586214,426.988785 C206.693881,426.988785 213.675427,432.758677 216.81039,428.726274 C225.131283,418.023374 225.142933,402.905546 230.114869,390.293282 C231.430904,386.954909 233.778562,384.122052 235.610409,381.036436" id="Path-6"></path>
                <path d="M129.762046,305.934952 C144.761374,306.536547 122.935167,304.751627 151.163593,315.896861 C153.386042,316.774335 156.08635,314.32964 158.300509,315.227828 C161.743575,316.62453 163.644577,320.544298 166.924351,322.290313 C178.047912,328.212034 191.051993,331.567781 202.218379,337.158747 C208.987871,340.548206 204.192816,345.188038 211.436825,348.01298" id="Path-7"></path>
                <path d="M211.526348,347.36286 C219.412884,347.572487 232.194961,345.411559 238.949386,352.691984 C249.508777,364.073687 241.996545,369.754323 237.382204,376.823763 C234.133884,381.80038 240.267259,379.66563 235.540016,380.823691" id="Path-8"></path>
                <path d="M459.204381,302.772907 C455.888824,295.076672 448.747597,286.778267 441.900531,282.019007 C436.715465,278.414971 430.854725,281.239765 426.853459,277.505449 C421.60022,272.602689 431.84554,274.773612 424.59668,263.459823 C421.815001,259.118266 401.837169,257.414564 400.023182,257.944821 C397.481565,258.687775 376.165021,278.613333 369.960069,274.244404 C356.934623,265.073139 350.654452,233.084602 354.190829,218.35246 C354.73184,216.098671 357.050919,214.39722 357.200807,212.084258 C357.816589,202.581975 355.840591,193.030392 356.447607,183.527545 C356.87833,176.784588 363.112099,174.509487 365.976855,169.233673 C370.57223,160.770706 356.620986,168.267578 369.488967,156.973723 C388.251224,140.506633 394.204413,155.84006 414.726095,157.286851 C461.053557,160.552967 384.505426,155.600087 431.468571,151.266894 C439.130659,150.559929 446.70935,153.39955 454.329739,154.465878" id="Path-9"></path>
                <path d="M433.575838,111.936885 C428.542683,111.936885 415.633613,104.574815 413.29304,106.921194 C411.893533,108.324173 404.14587,121.950799 398.999169,123.973978 C396.669595,124.889738 393.64177,123.169647 391.506664,124.476111 C386.903878,127.292539 384.470694,132.929114 379.839118,135.697943 C378.139676,136.713896 374.982442,136.661127 373.943284,134.975774 C367.206394,124.049583 378.929773,125.561353 381.624794,118.326389 C391.743551,91.1619175 374.186082,114.577586 368.865532,98.4159596 C365.207225,87.3035415 392.301258,109.390328 396.330528,91.8966903 C397.095398,88.5759017 395.23587,84.900616 396.330528,81.6734831 C397.520132,78.1664428 400.676707,75.6760939 402.849797,72.6773992" id="Path-10"></path>
                <path d="M385.576978,61.2016799 C396.224664,61.2016799 389.472007,83.7441077 385.576978,73.0271999 C384.248465,69.3718865 384.595279,65.3108976 384.10443,61.4527465" id="Path-11"></path>
                <path d="M378.304509,67.3401178 C380.750094,68.4028966 381.462897,78.9168576 380.442806,80.1078429 C378.798347,82.0277956 375.462364,77.992607 373.009542,78.6042641 C371.708181,78.9287828 372.620832,81.590812 371.505963,82.3364118 C365.029585,86.6676691 370.102067,69.5448702 377.15073,67.5911844" id="Path-12"></path>
            </g>
            <text id="dear-diary" font-family="WatermelonScriptDemo, Watermelon Script Demo" font-size="120" font-weight="normal" letter-spacing="4.99999952" fill="#0E0E0E">
                <tspan x="0" y="264">dear diary</tspan>
            </text>
        </g>
    </g>
</svg>