<svg width="714" height="400" viewBox="0 0 714 400" version="1.1" xmlns="http://www.w3.org/2000/svg" xmlns:xlink="http://www.w3.org/1999/xlink">
<title>thumbnail</title>
<desc>Created using Figma</desc>
<g id="Canvas" transform="translate(-21 -735)">
<g id="thumbnail">
<g id="thumbnail">
<g id="project-thumbnail">
<use xlink:href="#path0_fill" transform="translate(22 735)" fill="#F2C94C"/>
</g>
<g id="squiggle">
<g id="Vector">
<use xlink:href="#path1_stroke" transform="translate(356.654 1020)" fill="#F9D873"/>
</g>
<g id="Vector">
<use xlink:href="#path1_stroke" transform="translate(189.827 1020)" fill="#F9D873"/>
</g>
<g id="Vector">
<use xlink:href="#path1_stroke" transform="translate(23 1020)" fill="#F9D873"/>
</g>
<g id="Vector">
<use xlink:href="#path1_stroke" transform="translate(524.804 1020)" fill="#F9D873"/>
</g>
</g>
<g id="squiggle">
<g id="Vector">
<use xlink:href="#path2_stroke" transform="translate(351.705 899.981)" fill="#F9D873"/>
</g>
<g id="Vector">
<use xlink:href="#path2_stroke" transform="translate(186.853 899.981)" fill="#F9D873"/>
</g>
<g id="Vector">
<use xlink:href="#path2_stroke" transform="translate(22 899.983)" fill="#F9D873"/>
</g>
<g id="Vector">
<use xlink:href="#path2_stroke" transform="translate(517.866 899.981)" fill="#F9D873"/>
</g>
</g>
<g id="squiggle">
<g id="Vector">
<use xlink:href="#path3_stroke" transform="translate(355.457 758.716)" fill="#F9D873"/>
</g>
<g id="Vector">
<use xlink:href="#path3_stroke" transform="translate(188.729 758.716)" fill="#F9D873"/>
</g>
<g id="Vector">
<use xlink:href="#path3_stroke" transform="translate(22 758.718)" fill="#F9D873"/>
</g>
<g id="Vector">
<use xlink:href="#path3_stroke" transform="translate(523.509 758.716)" fill="#F9D873"/>
</g>
</g>
</g>
<g id="CHAT">
<use xlink:href="#path4_fill" transform="translate(274 956)"/>
</g>
<g id="FreeDom">
<use xlink:href="#path5_fill" transform="translate(222.882 800.992)"/>
</g>
<g id="crayon-two">
<g id="Rectangle 5">
<use xlink:href="#path6_fill" transform="matrix(0.984259 0 0 1.0155 585.379 1019.05)" fill="#8D8B95"/>
</g>
<g id="Vector">
<use xlink:href="#path7_fill" transform="matrix(-0.695976 0.718065 -0.695976 -0.718065 665.043 1060)"/>
</g>
</g>
<g id="crayon-three">
<g id="Rectangle 5">
<use xlink:href="#path6_fill" transform="matrix(0.984259 0 0 1.0155 620.358 1019.05)" fill="#F5F5F5"/>
</g>
<g id="Vector">
<use xlink:href="#path7_fill" transform="matrix(-0.695976 0.718065 -0.695976 -0.718065 700.022 1060)"/>
</g>
</g>
<g id="main-crayon">
<g id="Rectangle 5">
<use xlink:href="#path6_fill" transform="matrix(0.984259 0 0 1.0155 655.674 1019.05)" fill="#F2C94C"/>
</g>
<g id="Vector">
<use xlink:href="#path7_fill" transform="matrix(-0.695976 0.718065 -0.695976 -0.718065 735.338 1060)"/>
</g>
</g>
</g>
</g>
<defs>
<path id="path0_fill" d="M 0 0L 711 0L 711 400L 0 400L 0 0Z"/>
<path id="path1_stroke" d="M 0 -1C -0.552285 -1 -1 -0.552285 -1 0C -1 0.552285 -0.552285 1 0 1L 0 -1ZM 209.196 82.998C 209.748 82.998 210.196 82.5502 210.196 81.998C 210.196 81.4457 209.748 80.998 209.196 80.998L 209.196 82.998ZM 0 1C 2.24733 1 4.28618 2.08899 6.20676 4.19686C 8.17802 6.35074 9.88915 9.40956 11.5007 13.2035C 14.7423 20.8197 17.3356 30.9964 19.9506 41.2462C 22.5655 51.4959 25.2021 61.8187 28.4979 69.5771C 30.155 73.4705 32.0394 76.8177 34.154 79.1481C 36.3192 81.5245 38.8565 82.998 41.8391 82.998L 41.8391 80.998C 39.5918 80.998 37.5529 79.909 35.6323 77.8011C 33.6611 75.6472 31.95 72.5884 30.3384 68.7945C 27.0968 61.1783 24.5035 51.0015 21.8885 40.7518C 19.2736 30.502 16.637 20.1793 13.3412 12.4209C 11.6841 8.52749 9.79972 5.18022 7.68513 2.84984C 5.51986 0.473444 2.98256 -1 0 -1L 0 1ZM 41.8391 82.998C 44.8217 82.998 47.359 81.5245 49.5242 79.1481C 51.6388 76.8177 53.5232 73.4705 55.1804 69.5771C 58.4761 61.8187 61.1127 51.4959 63.7276 41.2462C 66.3426 30.9964 68.9359 20.8197 72.1775 13.2035C 73.7891 9.40956 75.5002 6.35074 77.4715 4.19686C 79.392 2.08899 81.4309 1 83.6782 1L 83.6782 -1C 80.6956 -1 78.1583 0.473444 75.9931 2.84984C 73.8785 5.18022 71.9941 8.52749 70.337 12.4209C 67.0412 20.1793 64.4046 30.502 61.7897 40.7518C 59.1748 51.0015 56.5814 61.1783 53.3398 68.7945C 51.7283 72.5884 50.0171 75.6472 48.0459 77.8011C 46.1253 79.909 44.0864 80.998 41.8391 80.998L 41.8391 82.998ZM 83.6782 1C 85.9255 1 87.9644 2.08899 89.885 4.19686C 91.8562 6.35074 93.5674 9.40956 95.1789 13.2035C 98.4205 20.8197 101.014 30.9964 103.629 41.2462C 106.244 51.4959 108.88 61.8187 112.176 69.5771C 113.833 73.4705 115.718 76.8177 117.832 79.1481C 119.997 81.5245 122.535 82.998 125.517 82.998L 125.517 80.998C 123.27 80.998 121.231 79.909 119.311 77.8011C 117.339 75.6472 115.628 72.5884 114.017 68.7945C 110.775 61.1783 108.182 51.0015 105.567 40.7518C 102.952 30.502 100.315 20.1793 97.0195 12.4209C 95.3624 8.52749 93.4779 5.18022 91.3633 2.84984C 89.1981 0.473444 86.6608 -1 83.6782 -1L 83.6782 1ZM 125.517 82.998C 128.5 82.998 131.037 81.5245 133.202 79.1481C 135.317 76.8177 137.201 73.4705 138.859 69.5771C 142.154 61.8187 144.791 51.4959 147.406 41.2462C 150.021 30.9964 152.614 20.8197 155.856 13.2035C 157.467 9.40956 159.178 6.35074 161.15 4.19686C 163.07 2.08899 165.109 1 167.356 1L 167.356 -1C 164.374 -1 161.837 0.473444 159.671 2.84984C 157.557 5.18022 155.672 8.52749 154.015 12.4209C 150.719 20.1793 148.083 30.502 145.468 40.7518C 142.853 51.0015 140.26 61.1783 137.018 68.7945C 135.406 72.5884 133.695 75.6472 131.724 77.8011C 129.804 79.909 127.765 80.998 125.517 80.998L 125.517 82.998ZM 167.356 1C 169.604 1 171.643 2.08899 173.563 4.19686C 175.534 6.35074 177.246 9.40956 178.857 13.2035C 182.099 20.8197 184.692 30.9964 187.307 41.2462C 189.922 51.4959 192.559 61.8187 195.854 69.5771C 197.511 73.4705 199.396 76.8177 201.51 79.1481C 203.676 81.5245 206.213 82.998 209.196 82.998L 209.196 80.998C 206.948 80.998 204.909 79.909 202.989 77.8011C 201.018 75.6472 199.306 72.5884 197.695 68.7945C 194.453 61.1783 191.86 51.0015 189.245 40.7518C 186.63 30.502 183.993 20.1793 180.698 12.4209C 179.041 8.52749 177.156 5.18022 175.042 2.84984C 172.876 0.473444 170.339 -1 167.356 -1L 167.356 1Z"/>
<path id="path2_stroke" d="M 0 -1C -0.552285 -1 -1 -0.552285 -1 0C -1 0.552285 -0.552285 1 0 1L 0 -1ZM 206.72 85.5506C 207.272 85.5506 207.72 85.1029 207.72 84.5506C 207.72 83.9983 207.272 83.5506 206.72 83.5506L 206.72 85.5506ZM 0 1C 2.19962 1 4.20808 2.11206 6.1105 4.29076C 8.06036 6.51426 9.75434 9.67386 11.3479 13.5884C 14.5527 21.4459 17.1166 31.944 19.7006 42.5128C 22.2846 53.0816 24.8887 63.7212 28.1439 71.7169C 29.7803 75.729 31.6394 79.1749 33.727 81.5753C 35.8621 84.0204 38.3756 85.5506 41.344 85.5506L 41.344 83.5506C 39.1444 83.5506 37.1359 82.4385 35.2335 80.2598C 33.2836 78.0363 31.5896 74.8767 29.9961 70.9622C 26.7913 63.1047 24.2274 52.6066 21.6434 42.0378C 19.0594 31.469 16.4553 20.8294 13.2001 12.8337C 11.5637 8.82158 9.70463 5.37567 7.617 2.9753C 5.48192 0.530146 2.96838 -1 0 -1L 0 1ZM 41.344 85.5506C 44.3124 85.5506 46.8259 84.0204 48.961 81.5753C 51.0486 79.1749 52.9076 75.729 54.5441 71.7169C 57.7993 63.7212 60.4034 53.0816 62.9874 42.5128C 65.5714 31.944 68.1353 21.4459 71.34 13.5884C 72.9336 9.67386 74.6276 6.51426 76.5775 4.29076C 78.4799 2.11206 80.4884 1 82.688 1L 82.688 -1C 79.7196 -1 77.2061 0.530146 75.071 2.9753C 72.9833 5.37567 71.1243 8.82158 69.4879 12.8337C 66.2327 20.8294 63.6286 31.469 61.0446 42.0378C 58.4606 52.6066 55.8967 63.1047 52.6919 70.9622C 51.0983 74.8767 49.4044 78.0363 47.4545 80.2598C 45.5521 82.4385 43.5436 83.5506 41.344 83.5506L 41.344 85.5506ZM 82.688 1C 84.8876 1 86.8961 2.11206 88.7985 4.29076C 90.7483 6.51426 92.4423 9.67386 94.0359 13.5884C 97.2407 21.4459 99.8046 31.944 102.389 42.5128C 104.973 53.0816 107.577 63.7212 110.832 71.7169C 112.468 75.729 114.327 79.1749 116.415 81.5753C 118.55 84.0204 121.064 85.5506 124.032 85.5506L 124.032 83.5506C 121.832 83.5506 119.824 82.4385 117.921 80.2598C 115.972 78.0363 114.278 74.8767 112.684 70.9622C 109.479 63.1047 106.915 52.6066 104.331 42.0378C 101.747 31.469 99.1433 20.8294 95.888 12.8337C 94.2516 8.82158 92.3926 5.37567 90.305 2.9753C 88.1699 0.530146 85.6564 -1 82.688 -1L 82.688 1ZM 124.032 85.5506C 127 85.5506 129.514 84.0204 131.649 81.5753C 133.737 79.1749 135.596 75.729 137.232 71.7169C 140.487 63.7212 143.091 53.0816 145.675 42.5128C 148.259 31.944 150.823 21.4459 154.028 13.5884C 155.622 9.67386 157.316 6.51426 159.265 4.29076C 161.168 2.11206 163.176 1 165.376 1L 165.376 -1C 162.408 -1 159.894 0.530146 157.759 2.9753C 155.671 5.37567 153.812 8.82158 152.176 12.8337C 148.921 20.8294 146.317 31.469 143.733 42.0378C 141.149 52.6066 138.585 63.1047 135.38 70.9622C 133.786 74.8767 132.092 78.0363 130.142 80.2598C 128.24 82.4385 126.232 83.5506 124.032 83.5506L 124.032 85.5506ZM 165.376 1C 167.576 1 169.584 2.11206 171.486 4.29076C 173.436 6.51426 175.13 9.67386 176.724 13.5884C 179.929 21.4459 182.493 31.944 185.077 42.5128C 187.661 53.0816 190.265 63.7212 193.52 71.7169C 195.156 75.729 197.015 79.1749 199.103 81.5753C 201.238 84.0204 203.752 85.5506 206.72 85.5506L 206.72 83.5506C 204.52 83.5506 202.512 82.4385 200.609 80.2598C 198.66 78.0363 196.966 74.8767 195.372 70.9622C 192.167 63.1047 189.603 52.6066 187.019 42.0378C 184.435 31.469 181.831 20.8294 178.576 12.8337C 176.94 8.82158 175.081 5.37567 172.993 2.9753C 170.858 0.530146 168.344 -1 165.376 -1L 165.376 1Z"/>
<path id="path3_stroke" d="M 0 -1C -0.552285 -1 -1 -0.552285 -1 0C -1 0.552285 -0.552285 1 0 1L 0 -1ZM 209.072 85.5506C 209.625 85.5506 210.072 85.1029 210.072 84.5506C 210.072 83.9983 209.625 83.5506 209.072 83.5506L 209.072 85.5506ZM 0 1C 2.23354 1 4.26857 2.11665 6.19231 4.29498C 8.1644 6.5185 9.8775 9.67779 11.4891 13.5921C 14.7301 21.449 17.3231 31.9465 19.9365 42.5153C 22.5499 53.0841 25.1838 63.7243 28.4762 71.7206C 30.1314 75.7329 32.0117 79.1791 34.1231 81.5795C 36.2828 84.025 38.8212 85.5506 41.8145 85.5506L 41.8145 83.5506C 39.5809 83.5506 37.5459 82.4339 35.6222 80.2556C 33.6501 78.0321 31.937 74.8728 30.3254 70.9585C 27.0843 63.1015 24.4914 52.6041 21.878 42.0352C 19.2646 31.4664 16.6307 20.8262 13.3382 12.83C 11.6831 8.81765 9.80276 5.37142 7.69141 2.97109C 5.5317 0.525559 2.99327 -1 0 -1L 0 1ZM 41.8145 85.5506C 44.8077 85.5506 47.3462 84.025 49.5059 81.5795C 51.6172 79.1791 53.4976 75.7329 55.1527 71.7206C 58.4452 63.7243 61.0791 53.0841 63.6925 42.5153C 66.3059 31.9465 68.8988 21.449 72.1398 13.5921C 73.7515 9.67779 75.4645 6.5185 77.4366 4.29498C 79.3604 2.11665 81.3954 1 83.629 1L 83.629 -1C 80.6357 -1 78.0972 0.525559 75.9375 2.97109C 73.8262 5.37142 71.9459 8.81765 70.2907 12.83C 66.9982 20.8262 64.3644 31.4664 61.751 42.0352C 59.1375 52.6041 56.5446 63.1015 53.3036 70.9585C 51.692 74.8728 49.9789 78.0321 48.0068 80.2556C 46.083 82.4339 44.048 83.5506 41.8145 83.5506L 41.8145 85.5506ZM 83.629 1C 85.8625 1 87.8975 2.11665 89.8213 4.29498C 91.7934 6.5185 93.5065 9.67779 95.1181 13.5921C 98.3591 21.449 100.952 31.9465 103.565 42.5153C 106.179 53.0841 108.813 63.7243 112.105 71.7206C 113.76 75.7329 115.641 79.1791 117.752 81.5795C 119.912 84.025 122.45 85.5506 125.443 85.5506L 125.443 83.5506C 123.21 83.5506 121.175 82.4339 119.251 80.2556C 117.279 78.0321 115.566 74.8728 113.954 70.9585C 110.713 63.1015 108.12 52.6041 105.507 42.0352C 102.894 31.4664 100.26 20.8262 96.9672 12.83C 95.312 8.81765 93.4317 5.37142 91.3204 2.97109C 89.1607 0.525559 86.6222 -1 83.629 -1L 83.629 1ZM 125.443 85.5506C 128.437 85.5506 130.975 84.025 133.135 81.5795C 135.246 79.1791 137.127 75.7329 138.782 71.7206C 142.074 63.7243 144.708 53.0841 147.321 42.5153C 149.935 31.9465 152.528 21.449 155.769 13.5921C 157.38 9.67779 159.094 6.5185 161.066 4.29498C 162.989 2.11665 165.024 1 167.258 1L 167.258 -1C 164.265 -1 161.726 0.525559 159.566 2.97109C 157.455 5.37142 155.575 8.81765 153.92 12.83C 150.627 20.8262 147.993 31.4664 145.38 42.0352C 142.767 52.6041 140.174 63.1015 136.933 70.9585C 135.321 74.8728 133.608 78.0321 131.636 80.2556C 129.712 82.4339 127.677 83.5506 125.443 83.5506L 125.443 85.5506ZM 167.258 1C 169.491 1 171.526 2.11665 173.45 4.29498C 175.422 6.5185 177.135 9.67779 178.747 13.5921C 181.988 21.449 184.581 31.9465 187.194 42.5153C 189.808 53.0841 192.442 63.7243 195.734 71.7206C 197.389 75.7329 199.27 79.1791 201.381 81.5795C 203.541 84.025 206.079 85.5506 209.072 85.5506L 209.072 83.5506C 206.839 83.5506 204.804 82.4339 202.88 80.2556C 200.908 78.0321 199.195 74.8728 197.583 70.9585C 194.342 63.1015 191.749 52.6041 189.136 42.0352C 186.523 31.4664 183.889 20.8262 180.596 12.83C 178.941 8.81765 177.061 5.37142 174.949 2.97109C 172.79 0.525559 170.251 -1 167.258 -1L 167.258 1Z"/>
<path id="path4_fill" d="M 16.5674 8.90527C 17.5586 8.81087 18.5262 8.50407 19.4702 7.98486C 19.9422 7.98486 20.4142 7.98486 20.8862 7.98486C 21.3582 7.98486 21.7122 7.98486 21.9482 7.98486C 22.1842 7.98486 22.6326 8.07926 23.2935 8.26807C 23.9543 8.45687 24.6387 8.66927 25.3467 8.90527C 26.0547 9.14128 26.7627 9.56608 27.4707 10.1797C 28.1787 10.7461 28.7687 11.1473 29.2407 11.3833C 29.7127 11.6193 30.1847 12.0441 30.6567 12.6577C 31.1287 13.2713 31.4827 13.8141 31.7188 14.2861C 31.9548 14.7581 32.1672 15.3245 32.356 15.9854C 32.592 16.599 32.71 17.0238 32.71 17.2598C 32.71 17.7318 32.8044 18.3218 32.9932 19.0298C 33.182 19.7378 33.3944 20.4458 33.6304 21.1538C 33.6304 22.145 33.7012 23.2778 33.8428 24.5522C 34.0316 25.8267 34.126 26.9595 34.126 27.9507C 34.126 29.6499 34.1024 30.8535 34.0552 31.5615C 34.008 32.2695 33.8664 32.8595 33.6304 33.3315C 33.2056 33.7091 32.7336 33.8743 32.2144 33.8271C 32.2144 33.0719 32.2144 32.5763 32.2144 32.3403C 32.2144 32.1043 32.2144 31.6323 32.2144 30.9243C 32.6392 30.9715 32.8044 30.8063 32.71 30.4287C 32.71 30.1927 32.6156 29.7443 32.4268 29.0835C 32.2852 28.4227 32.2144 27.7383 32.2144 27.0303C 32.2144 26.3223 32.0964 25.3075 31.8604 23.9858C 31.6715 22.6642 31.4591 21.3898 31.2231 20.1626C 30.9871 19.1714 30.7511 18.251 30.5151 17.4014C 30.3263 16.5518 30.2319 16.009 30.2319 15.7729C 29.9959 15.5369 29.7363 15.1357 29.4531 14.5693C 29.1699 13.9557 28.7923 13.5309 28.3203 13.2949C 27.8483 12.7285 27.3527 12.4217 26.8335 12.3745C 26.0783 11.8553 25.5827 11.3597 25.3467 10.8877C 24.8747 10.6517 24.3555 10.4393 23.7891 10.2505C 23.2227 10.0145 22.4438 9.89648 21.4526 9.89648C 20.2254 9.89648 19.2106 10.0617 18.4082 10.3921C 17.653 10.6753 16.5438 11.1709 15.0806 11.8789C 14.3726 12.3509 13.5701 12.8937 12.6733 13.5073C 11.8237 14.1209 11.1629 14.5457 10.6909 14.7817C 9.79411 15.7729 9.1569 17.071 8.7793 18.6758C 8.30729 20.5638 7.81169 22.027 7.29248 23.0654C 7.05648 23.3014 6.82048 23.6554 6.58447 24.1274C 6.39567 24.5994 6.30127 25.0715 6.30127 25.5435C 6.30127 26.0155 6.20687 26.4875 6.01807 26.9595C 5.87646 27.3843 5.80566 27.7147 5.80566 27.9507C 5.80566 28.1867 5.73486 28.6351 5.59326 29.2959C 5.45166 29.9095 5.38086 30.4523 5.38086 30.9243C 5.38086 31.3963 5.28646 31.9391 5.09766 32.5527C 4.95605 33.1663 4.88525 33.5911 4.88525 33.8271C 4.88525 34.0632 4.79085 34.9364 4.60205 36.4468C 4.46045 37.91 4.38965 39.6328 4.38965 41.6152C 4.15365 43.3145 3.91764 44.9193 3.68164 46.4297C 3.49284 47.8929 3.39844 48.7425 3.39844 48.9785C 3.39844 49.2145 3.30404 49.6629 3.11523 50.3237C 2.97363 50.9845 2.90283 51.6689 2.90283 52.377C 2.90283 53.3682 2.80843 54.3358 2.61963 55.2798C 2.47803 56.2238 2.40723 57.0498 2.40723 57.7578C 2.40723 58.4658 2.50163 59.2918 2.69043 60.2358C 2.92643 61.1326 3.16243 61.9351 3.39844 62.6431C 3.63444 63.1151 3.84684 63.8939 4.03564 64.9795C 4.27165 66.0179 4.38965 67.0327 4.38965 68.0239C 4.38965 69.0151 4.36605 70.3604 4.31885 72.0596C 4.27165 73.7588 4.13005 75.34 3.89404 76.8032C 3.89404 78.2664 3.79964 79.7533 3.61084 81.2637C 3.46924 82.7741 3.39844 83.8833 3.39844 84.5913C 3.39844 85.0633 3.30404 85.5353 3.11523 86.0073C 2.97363 86.4793 2.90283 86.8333 2.90283 87.0693C 2.85563 87.1165 3.02083 87.9189 3.39844 89.4766C 3.63444 89.9486 3.84684 90.633 4.03564 91.5298C 4.27165 92.3794 4.38965 93.1582 4.38965 93.8662C 4.38965 94.3382 4.55485 95.0934 4.88525 96.1318C 5.26286 97.1702 5.56966 98.0435 5.80566 98.7515C 6.04167 99.4595 6.44287 100.262 7.00928 101.159C 7.62288 102.008 8.04769 102.669 8.28369 103.141C 8.7557 103.613 9.3929 104.274 10.1953 105.124C 10.1481 105.596 10.8089 106.091 12.1777 106.61C 12.6497 106.846 13.4049 107.059 14.4434 107.248C 15.4818 107.436 16.355 107.531 17.063 107.531C 17.771 107.767 18.4318 107.885 19.0454 107.885C 19.659 107.885 19.9658 107.767 19.9658 107.531C 20.8154 107.2 21.4762 107.035 21.9482 107.035C 22.9395 107.13 23.9071 106.988 24.8511 106.61C 25.0871 106.374 25.4411 106.02 25.9131 105.548C 26.3851 105.076 26.8571 104.604 27.3291 104.132C 27.5651 103.896 27.9899 103.566 28.6035 103.141C 29.2171 102.669 29.7599 102.197 30.2319 101.725C 30.7039 101.253 31.2467 100.592 31.8604 99.7427C 32.5212 98.8931 32.9696 98.2323 33.2056 97.7603C 33.4416 97.0522 33.654 96.3678 33.8428 95.707C 34.0316 95.0462 34.126 94.5978 34.126 94.3618C 34.4564 91.9074 34.6216 89.9486 34.6216 88.4854C 34.6216 87.0221 34.6216 85.0869 34.6216 82.6797C 34.6216 82.4437 34.716 82.2313 34.9048 82.0425C 35.1408 81.8065 35.3768 81.6885 35.6128 81.6885C 36.132 81.7829 36.6276 82.1133 37.0996 82.6797C 37.4772 83.0573 37.6424 83.6945 37.5952 84.5913C 37.5952 84.8273 37.5008 85.3701 37.312 86.2197C 37.1704 87.0221 37.0996 87.7773 37.0996 88.4854C 37.0996 89.4766 37.076 90.515 37.0288 91.6006C 36.9816 92.639 36.84 93.3942 36.604 93.8662C 36.604 94.3382 36.5096 94.9046 36.3208 95.5654C 36.1792 96.179 36.1084 96.6038 36.1084 96.8398C 35.6836 97.9727 35.3532 98.7751 35.1172 99.2471C 34.8812 99.4831 34.4328 100.026 33.772 100.875C 33.1112 101.678 32.4268 102.433 31.7188 103.141C 31.0107 103.849 30.2083 104.652 29.3115 105.548C 28.4619 106.398 27.8011 107.059 27.3291 107.531C 26.8571 108.003 26.2671 108.475 25.5591 108.947C 24.8511 109.419 24.1431 109.773 23.4351 110.009C 22.9631 110.245 22.2786 110.481 21.3818 110.717C 20.485 110.906 19.541 111 18.5498 111C 17.5586 111 16.2606 110.835 14.6558 110.504C 14.6558 110.268 14.4434 110.056 14.0186 109.867C 13.5938 109.631 13.1453 109.513 12.6733 109.513C 11.7293 109.466 10.2661 108.498 8.28369 106.61C 7.57568 105.619 6.79688 104.581 5.94727 103.495C 5.14486 102.362 4.62565 101.442 4.38965 100.734C 3.91764 100.026 3.44564 98.9403 2.97363 97.4771C 2.50163 95.9666 2.14762 94.5978 1.91162 93.3706C 1.62842 92.285 1.41602 91.341 1.27441 90.5386C 1.13281 89.689 1.03841 88.8394 0.991211 87.9897C 0.94401 87.1401 0.92041 86.1961 0.92041 85.1577C 0.92041 84.1193 0.92041 82.7977 0.92041 81.1929C 0.92041 79.2104 0.991211 77.1808 1.13281 75.104C 1.32161 73.0272 1.41602 71.6348 1.41602 70.9268C 1.65202 70.2188 1.79362 69.4399 1.84082 68.5903C 1.88802 67.6935 1.91162 67.0091 1.91162 66.5371C 1.67562 66.0651 1.51042 65.5931 1.41602 65.1211C 1.32161 64.6019 1.15641 64.1063 0.92041 63.6343C 0.92041 63.1623 0.849609 62.5959 0.708008 61.9351C 0.566406 61.2271 0.495605 60.637 0.495605 60.165C 0.259603 59.929 0.118001 59.3154 0.0708008 58.3242C 0.0236003 57.333 0 56.4834 0 55.7754C 0 55.0674 0.0236003 54.2886 0.0708008 53.439C 0.118001 52.5422 0.259603 51.8577 0.495605 51.3857C 0.495605 50.9137 0.566406 50.3473 0.708008 49.6865C 0.849609 49.0257 0.92041 48.4593 0.92041 47.9873C 0.92041 47.5153 0.991211 46.6657 1.13281 45.4385C 1.32161 44.2113 1.41602 43.1021 1.41602 42.1108C 1.41602 41.1196 1.53402 39.5856 1.77002 37.5088C 2.05322 35.432 2.43083 33.4023 2.90283 31.4199C 3.13883 29.4375 3.37484 27.6675 3.61084 26.1099C 3.89404 24.5522 4.15365 23.5374 4.38965 23.0654C 4.95605 22.0742 5.28646 21.1066 5.38086 20.1626C 5.38086 19.6906 5.47526 19.1242 5.66406 18.4634C 5.85286 17.8026 6.06527 17.2362 6.30127 16.7642C 6.30127 16.0562 6.67887 15.3717 7.43408 14.7109C 8.23649 14.0501 9.4873 13.1061 11.1865 11.8789C 12.4137 11.1709 13.5465 10.5101 14.585 9.89648C 15.6706 9.23568 16.3314 8.90527 16.5674 8.90527ZM 49.1357 18.251C 48.8997 14.3333 48.8525 11.8553 48.9941 10.8169C 49.1829 9.73128 49.3953 8.95247 49.6313 8.48047C 49.8674 8.24447 50.1978 8.07926 50.6226 7.98486C 50.8586 7.98486 51.0002 8.52767 51.0474 9.61328C 51.0946 10.6517 51.1182 11.9025 51.1182 13.3657C 51.1182 14.8289 51.189 16.4102 51.3306 18.1094C 51.5194 19.8086 51.6138 21.1538 51.6138 22.145C 51.6138 23.1362 51.5902 24.1982 51.543 25.3311C 51.4958 26.4167 51.3542 27.3135 51.1182 28.0215C 51.1182 28.4935 51.0238 29.8151 50.835 31.9863C 50.6934 34.1576 50.6226 36.5884 50.6226 39.2788C 50.6226 41.686 50.5282 43.8573 50.3394 45.7925C 50.1978 47.7277 50.127 48.8133 50.127 49.0493C 49.7965 51.0789 49.6313 52.7074 49.6313 53.9346L 49.6313 58.3242L 52.1094 59.2446C 52.8174 59.4806 53.6198 59.7402 54.5166 60.0234C 55.4606 60.2594 56.2866 60.4954 56.9946 60.7314C 58.2218 60.9674 59.3075 61.1799 60.2515 61.3687C 61.2427 61.5103 62.5879 61.4631 64.2871 61.2271C 65.5143 61.2271 66.9539 61.1562 68.606 61.0146C 70.258 60.8258 71.5796 60.7314 72.5708 60.7314L 80.5713 61.0854L 80.5713 62.5723C 80.8073 63.0443 80.8545 63.3983 80.7129 63.6343C 80.5713 63.8703 80.3825 63.9883 80.1465 63.9883C 79.6745 64.0827 79.1789 63.9411 78.6597 63.5635C 78.5181 63.5635 78.0933 63.5399 77.3853 63.4927C 76.7244 63.3983 75.8984 63.3275 74.9072 63.2803C 73.916 63.1859 72.8776 63.1387 71.792 63.1387C 70.7064 63.0915 69.668 63.1151 68.6768 63.2095C 67.4495 63.2095 66.1279 63.2803 64.7119 63.4219C 63.2959 63.5635 62.3519 63.6343 61.8799 63.6343C 61.1719 63.3983 60.3695 63.2567 59.4727 63.2095C 58.623 63.1151 57.9622 62.9499 57.4902 62.7139C 56.7822 62.7139 55.8854 62.6195 54.7998 62.4307C 53.7142 62.1947 52.8174 61.9587 52.1094 61.7227C 51.4014 61.4867 50.4102 61.3215 49.1357 61.2271C 49.1357 62.8319 49.1357 64.1299 49.1357 65.1211C 49.1357 66.1123 49.0413 67.1979 48.8525 68.3779C 48.6637 69.5579 48.4513 70.266 48.2153 70.502C 48.2153 70.974 48.2153 72.0596 48.2153 73.7588C 48.2153 75.4108 48.2153 77.0864 48.2153 78.7856C 48.2153 80.4849 48.2861 82.3729 48.4277 84.4497C 48.5693 86.5265 48.6401 88.0605 48.6401 89.0518C 48.6401 90.279 48.6165 91.5298 48.5693 92.8042C 48.5693 94.0786 48.4513 94.9518 48.2153 95.4238C 48.2153 95.8958 48.1209 96.651 47.9321 97.6895C 47.7905 98.7279 47.7197 99.6011 47.7197 100.309C 47.7197 101.017 47.6253 101.796 47.4365 102.646C 47.2949 103.448 47.2241 103.967 47.2241 104.203C 47.1297 104.628 46.9645 104.958 46.7285 105.194C 46.7285 105.43 46.6341 105.784 46.4453 106.256C 46.3037 106.681 46.2329 107.13 46.2329 107.602C 46.2329 108.074 46.2093 108.522 46.1621 108.947C 46.1149 109.372 45.9733 109.584 45.7373 109.584C 45.7373 109.49 45.7373 109.655 45.7373 110.08C 45.7373 110.316 45.6193 110.528 45.3833 110.717C 45.1945 110.906 44.9821 111 44.7461 111C 44.2741 111 43.9673 110.858 43.8257 110.575C 43.7313 110.292 43.5661 109.796 43.3301 109.088C 43.3301 108.616 43.4481 107.956 43.6841 107.106C 43.9201 106.209 44.2741 105.407 44.7461 104.699C 44.9821 103.991 45.1945 103.094 45.3833 102.008C 45.6193 100.923 45.7373 100.026 45.7373 99.3179C 45.7373 98.6099 45.8081 97.5951 45.9497 96.2734C 46.1385 94.9518 46.2329 93.6774 46.2329 92.4502C 46.2329 91.459 46.1385 90.0194 45.9497 88.1313C 45.8081 86.1961 45.7373 84.2373 45.7373 82.2549C 45.7373 80.2725 45.6429 78.5024 45.4541 76.9448C 45.3125 75.3872 45.2417 74.3724 45.2417 73.9004C 45.2417 73.6644 45.2653 73.2396 45.3125 72.626C 45.3597 72.0124 45.5013 71.4696 45.7373 70.9976C 45.9733 70.5256 46.1857 69.7703 46.3745 68.7319C 46.6105 67.6463 46.7285 66.6079 46.7285 65.6167C 46.7285 64.6255 46.8229 63.0915 47.0117 61.0146C 47.2477 58.8906 47.4837 56.8374 47.7197 54.855C 47.7197 52.8726 47.7905 50.5125 47.9321 47.7749C 48.1209 45.0373 48.2153 42.6772 48.2153 40.6948C 48.2153 38.7124 48.2861 36.7064 48.4277 34.6768C 48.5693 32.5999 48.6401 31.2075 48.6401 30.4995C 48.8761 29.5083 49.0177 27.9507 49.0649 25.8267C 49.1121 23.7026 49.1357 21.1774 49.1357 18.251ZM 44.3213 109.867C 43.9437 109.773 43.7549 109.844 43.7549 110.08L 44.3213 109.867ZM 76.6772 11.8789C 76.6772 11.6429 76.7716 11.3361 76.9604 10.9585C 77.1965 10.5809 77.4325 10.3921 77.6685 10.3921C 77.6685 10.1561 77.7629 10.0145 77.9517 9.96729C 78.1877 9.92008 78.4237 9.89648 78.6597 9.89648C 78.8957 9.89648 79.1081 10.2269 79.2969 10.8877C 79.4857 11.5013 79.5801 12.1621 79.5801 12.8701C 79.5801 13.2477 79.6981 14.1445 79.9341 15.5605C 80.1701 16.9294 80.4297 18.4634 80.7129 20.1626C 80.9961 21.8146 81.2557 23.3958 81.4917 24.9062C 81.7277 26.4167 81.8457 27.4551 81.8457 28.0215C 82.0817 29.4847 82.2941 30.8535 82.4829 32.1279C 82.7189 33.4023 82.8369 34.1576 82.8369 34.3936C 82.8369 34.6296 82.9077 35.0544 83.0493 35.668C 83.2381 36.2816 83.3325 36.8244 83.3325 37.2964C 83.5685 38.0044 83.7101 39.3024 83.7573 41.1904C 83.8045 43.0785 83.8281 45.3677 83.8281 48.0581C 83.8281 49.1909 83.7809 50.5833 83.6865 52.2354C 83.6393 53.8402 83.5685 55.563 83.4741 57.4038C 83.4269 59.2446 83.3797 61.109 83.3325 62.9971C 83.3325 64.8379 83.3325 66.5371 83.3325 68.0947C 83.3325 71.0212 83.2381 73.7352 83.0493 76.2368C 82.9077 78.6912 82.8369 80.0365 82.8369 80.2725C 82.8369 80.5085 82.7425 81.3817 82.5537 82.8921C 82.4121 84.3553 82.3413 86.0781 82.3413 88.0605C 82.3413 90.043 82.2469 91.7186 82.0581 93.0874C 81.9165 94.409 81.8457 95.1878 81.8457 95.4238C 81.5153 97.0286 81.3501 98.3267 81.3501 99.3179C 81.3501 100.309 81.4209 101.442 81.5625 102.716C 81.7513 103.991 81.8457 104.982 81.8457 105.69C 81.8457 106.681 81.8221 107.531 81.7749 108.239C 81.7277 108.9 81.5861 109.348 81.3501 109.584C 81.1141 109.82 80.8781 110.032 80.6421 110.221C 80.4061 110.363 80.1701 110.316 79.9341 110.08C 79.9341 109.844 79.8397 109.301 79.6509 108.451C 79.5093 107.602 79.4385 106.823 79.4385 106.115C 79.2025 105.124 79.0609 104.085 79.0137 103C 78.9665 101.914 78.9429 101.017 78.9429 100.309C 78.9429 99.8371 79.0137 99.1999 79.1553 98.3975C 79.3441 97.5479 79.4385 96.887 79.4385 96.415C 79.4385 96.179 79.5093 95.4474 79.6509 94.2202C 79.8397 92.993 79.9341 91.7658 79.9341 90.5386C 79.9341 89.3114 80.0049 87.9661 80.1465 86.5029C 80.3353 84.9925 80.4297 83.8833 80.4297 83.1753C 80.4297 82.4673 80.5005 80.8625 80.6421 78.3608C 80.8309 75.8592 80.9253 73.4048 80.9253 70.9976C 80.9253 68.3071 80.9961 65.3571 81.1377 62.1475C 81.2793 58.9378 81.3501 56.3418 81.3501 54.3594C 81.3501 52.377 81.4209 50.4181 81.5625 48.4829C 81.7513 46.5005 81.8457 44.8957 81.8457 43.6685C 81.8457 42.6772 81.8221 41.6388 81.7749 40.5532C 81.7277 39.4204 81.5861 38.5 81.3501 37.792C 81.1141 36.8008 80.9017 35.668 80.7129 34.3936C 80.5241 33.0719 80.4297 31.9155 80.4297 30.9243C 80.4297 30.4523 80.2881 29.5083 80.0049 28.0923C 79.7689 26.6763 79.4857 25.1895 79.1553 23.6318C 78.8721 22.0742 78.5653 20.6346 78.2349 19.313C 77.9517 17.9914 77.7629 17.1418 77.6685 16.7642C 77.6685 16.0562 77.5505 15.3953 77.3145 14.7817C 77.1257 14.1209 76.9132 13.7905 76.6772 13.7905C 76.6772 13.3657 76.6772 12.7285 76.6772 11.8789ZM 123.406 13.1533C 123.406 12.5869 123.618 11.9261 124.043 11.1709C 124.468 10.3685 124.822 9.68408 125.105 9.11768C 125.719 8.40967 126.285 8.03206 126.804 7.98486C 126.899 8.03206 127.276 8.40967 127.937 9.11768C 128.456 10.5809 128.857 11.7373 129.141 12.5869C 129.707 13.1533 130.132 14.0501 130.415 15.2773C 130.698 16.4574 130.84 17.4722 130.84 18.3218C 131.123 19.1714 131.312 20.0918 131.406 21.083C 131.501 22.0742 131.689 22.853 131.973 23.4194C 132.256 23.7026 132.539 24.3634 132.822 25.4019C 133.105 26.3931 133.389 27.4551 133.672 28.5879C 133.955 29.7207 134.238 30.9243 134.521 32.1987C 134.852 33.4259 135.159 34.3228 135.442 34.8892C 135.725 35.4556 135.985 36.376 136.221 37.6504C 136.457 38.8776 136.575 40.0576 136.575 41.1904C 136.858 42.04 137.236 43.4797 137.708 45.5093C 138.18 47.4917 138.557 49.4741 138.84 51.4565C 139.407 53.439 139.926 55.1146 140.398 56.4834C 140.87 57.805 141.106 58.6074 141.106 58.8906C 141.106 59.1738 141.13 59.457 141.177 59.7402C 141.224 59.9762 141.389 60.0942 141.672 60.0942C 141.672 60.3774 141.767 60.991 141.956 61.9351C 142.192 62.8791 142.31 63.7759 142.31 64.6255C 142.31 65.4751 142.546 66.7967 143.018 68.5903C 143.49 70.384 144.009 72.1304 144.575 73.8296C 145.142 75.5288 145.684 77.2752 146.204 79.0688C 146.723 80.8153 147.124 82.1133 147.407 82.9629C 147.407 83.5293 147.502 84.3081 147.69 85.2993C 147.879 86.2433 147.974 86.9985 147.974 87.5649C 148.257 88.1313 148.516 88.9102 148.752 89.9014C 149.036 90.8926 149.177 91.813 149.177 92.6626C 149.177 93.5122 149.366 94.6686 149.744 96.1318C 149.885 96.2734 150.074 96.7926 150.31 97.6895C 150.546 98.5863 150.806 99.5775 151.089 100.663C 151.372 101.749 151.608 102.811 151.797 103.849C 152.033 104.84 152.151 105.548 152.151 105.973C 152.434 106.54 152.576 107.224 152.576 108.026C 152.576 108.782 152.434 109.442 152.151 110.009C 152.151 110.575 152.033 110.906 151.797 111C 151.561 111.094 151.301 111.142 151.018 111.142C 150.735 111.142 150.404 110.811 150.027 110.15C 149.696 109.442 149.248 108.239 148.682 106.54C 148.54 105.973 148.328 105.029 148.044 103.708C 147.761 102.339 147.478 100.946 147.195 99.5303C 146.912 98.0671 146.676 96.7218 146.487 95.4946C 146.345 94.2674 146.274 93.5122 146.274 93.229C 146.274 92.9458 146.156 92.2142 145.92 91.0342C 145.684 89.8542 145.425 88.6978 145.142 87.5649C 144.622 84.5441 144.056 81.8537 143.442 79.4937C 142.782 77.6528 142.404 76.1424 142.31 74.9624C 142.026 74.396 141.578 74.0892 140.964 74.042C 140.398 73.9948 138.557 74.1128 135.442 74.396C 134.026 74.396 131.689 74.396 128.433 74.396C 125.223 74.396 122.202 74.396 119.37 74.396C 116.821 74.396 114.202 74.3016 111.511 74.1128C 108.821 73.924 107.051 73.8296 106.201 73.8296L 103.369 73.8296L 102.236 76.0952C 101.953 76.9448 101.694 77.7944 101.458 78.644C 101.222 79.4465 101.104 80.1309 101.104 80.6973C 101.104 81.2637 100.962 82.0661 100.679 83.1045C 100.443 84.1429 100.183 85.2285 99.8999 86.3613C 99.6167 87.4941 99.2391 88.8394 98.7671 90.397C 98.2951 91.9546 97.9175 93.2998 97.6343 94.4326C 97.3511 95.2822 97.0679 96.2026 96.7847 97.1938C 96.5015 98.1851 96.2183 98.9639 95.9351 99.5303C 95.6519 99.8135 95.3923 100.309 95.1562 101.017C 94.9202 101.678 94.8022 102.15 94.8022 102.433C 94.8022 102.716 94.7078 103.212 94.519 103.92C 94.3302 104.628 94.2358 105.265 94.2358 105.832C 93.9526 106.681 93.6458 107.507 93.3154 108.31C 93.0322 109.065 92.749 109.584 92.4658 109.867C 92.1826 110.15 91.8994 110.386 91.6162 110.575C 91.333 110.764 91.0498 110.717 90.7666 110.434C 90.2946 110.434 90.1058 109.867 90.2002 108.734C 90.2002 108.451 90.3182 107.838 90.5542 106.894C 90.7902 105.902 91.0498 104.982 91.333 104.132C 91.6162 103 91.8994 101.914 92.1826 100.875C 92.4658 99.7899 92.749 98.9639 93.0322 98.3975C 93.3154 98.1143 93.693 97.3826 94.165 96.2026C 94.6842 94.9754 95.0854 93.7954 95.3687 92.6626C 95.6519 91.5298 95.9115 90.4678 96.1475 89.4766C 96.3835 88.4854 96.5015 87.8481 96.5015 87.5649C 96.5015 87.2817 96.6195 86.6445 96.8555 85.6533C 97.0915 84.6149 97.3511 83.5293 97.6343 82.3965C 97.9175 81.2637 98.2007 80.0837 98.4839 78.8564C 98.7671 77.582 99.0503 76.6616 99.3335 76.0952C 99.6167 75.2456 99.8999 74.3488 100.183 73.4048C 100.514 72.4136 100.82 71.7764 101.104 71.4932C 101.387 70.9268 101.741 70.1715 102.166 69.2275C 102.59 68.2835 102.803 67.5283 102.803 66.9619C 102.803 66.6787 103.157 65.6875 103.865 63.9883C 104.573 62.2891 105.352 60.5898 106.201 58.8906C 106.768 56.9082 107.381 55.2562 108.042 53.9346C 108.75 52.5658 109.104 51.7397 109.104 51.4565C 109.718 50.7485 110.284 49.8045 110.803 48.6245C 111.086 47.7749 111.464 46.5949 111.936 45.0845C 112.408 43.5269 112.786 42.04 113.069 40.624C 113.352 39.208 113.824 37.7448 114.485 36.2344C 115.193 34.6768 115.688 33.4731 115.972 32.6235C 116.255 32.0571 116.774 30.8063 117.529 28.8711C 118.285 26.9359 119.087 25.1187 119.937 23.4194C 120.503 21.437 121.14 19.4546 121.848 17.4722C 122.603 15.4425 123.123 14.0029 123.406 13.1533ZM 129.707 23.9858C 129.141 23.1362 128.692 22.1922 128.362 21.1538C 128.079 20.1154 127.937 19.1714 127.937 18.3218C 127.937 17.4722 127.819 16.5754 127.583 15.6313C 127.347 14.6401 127.087 14.0029 126.804 13.7197C 126.521 12.8701 126.261 12.7521 126.025 13.3657C 125.789 13.9793 125.105 16.009 123.972 19.4546C 123.123 21.437 122.273 23.5846 121.423 25.8975C 120.621 28.1631 119.937 30.0039 119.37 31.4199C 118.804 32.8359 118.261 34.2048 117.742 35.5264C 117.222 36.8008 116.821 37.7212 116.538 38.2876C 116.255 38.854 115.995 39.5384 115.759 40.3408C 115.523 41.096 115.405 41.7568 115.405 42.3232C 114.933 43.5033 114.744 44.4473 114.839 45.1553C 114.839 45.4385 114.579 46.0993 114.06 47.1377C 113.588 48.1289 113.069 49.1909 112.502 50.3237C 112.219 51.4565 111.724 52.7782 111.016 54.2886C 110.308 55.7518 109.67 56.9082 109.104 57.7578C 108.821 58.8906 108.42 60.0942 107.9 61.3687C 107.428 62.5959 107.051 63.4927 106.768 64.0591C 106.107 65.7111 105.729 66.8675 105.635 67.5283C 105.635 67.8115 105.54 68.1891 105.352 68.6611C 105.163 69.1331 105.068 69.5107 105.068 69.7939C 104.785 70.3604 104.832 70.7144 105.21 70.856C 105.635 70.9976 106.555 71.21 107.971 71.4932C 108.821 71.4932 110.119 71.5876 111.865 71.7764C 113.659 71.9652 115.405 72.0596 117.104 72.0596C 119.087 71.7764 121.258 71.6112 123.618 71.564C 125.978 71.5168 128.008 71.4932 129.707 71.4932C 131.406 71.7764 133.011 71.8472 134.521 71.7056C 136.079 71.564 137.141 71.4932 137.708 71.4932L 140.54 70.9268L 139.973 69.2275C 139.973 68.6611 139.879 68.0003 139.69 67.2451C 139.501 66.4427 139.407 65.7583 139.407 65.1919C 139.407 64.6255 139.312 63.9647 139.124 63.2095C 138.935 62.4543 138.84 61.7935 138.84 61.2271C 138.84 60.3774 138.722 59.575 138.486 58.8198C 138.25 58.0174 137.991 57.4746 137.708 57.1914C 137.708 56.625 137.59 55.8226 137.354 54.7842C 137.118 53.6986 136.858 52.5894 136.575 51.4565C 136.292 50.3237 135.985 49.2617 135.654 48.2705C 135.371 47.2793 135.088 46.6421 134.805 46.3589C 134.805 46.0757 134.71 45.6981 134.521 45.2261C 134.333 44.7069 134.238 44.3057 134.238 44.0225C 134.238 43.7393 134.144 43.1257 133.955 42.1816C 133.766 41.2376 133.672 40.3408 133.672 39.4912C 133.389 38.6416 133.105 37.6268 132.822 36.4468C 132.539 35.2196 132.256 34.3228 131.973 33.7563C 131.689 33.1899 131.43 32.4347 131.194 31.4907C 130.958 30.4995 130.84 29.7207 130.84 29.1543C 130.84 28.5879 130.722 27.8091 130.486 26.8179C 130.25 25.7795 129.99 24.8354 129.707 23.9858ZM 157.39 10.5337C 157.013 10.1089 157.013 9.54248 157.39 8.83447C 157.815 8.36247 158.24 8.10286 158.665 8.05566C 158.853 8.05566 159.042 8.07926 159.231 8.12646C 159.42 8.12646 159.514 8.22087 159.514 8.40967C 159.561 8.45687 160.246 8.74007 161.567 9.25928C 162.181 9.44808 163.125 9.66048 164.399 9.89648C 165.674 10.1325 166.83 10.3449 167.869 10.5337C 171.456 11.7137 174.076 12.3509 175.728 12.4453C 177.002 12.5397 177.946 12.5869 178.56 12.5869C 179.881 12.6341 180.566 12.9173 180.613 13.4365C 180.66 13.7669 180.518 14.3097 180.188 15.0649C 179.81 15.5369 179.409 15.8201 178.984 15.9146C 178.512 15.9618 178.229 15.8201 178.135 15.4897C 178.135 15.3009 177.946 15.1121 177.568 14.9233C 177.238 14.7345 176.86 14.6401 176.436 14.6401C 176.011 14.6401 175.492 14.6401 174.878 14.6401C 174.312 14.5929 173.722 14.4749 173.108 14.2861C 172.683 14.2861 171.55 14.0029 169.709 13.4365C 167.916 12.8229 167.019 12.4217 167.019 12.2329C 166.594 12.2329 166.335 12.2329 166.24 12.2329C 166.24 12.4217 166.24 13.2713 166.24 14.7817C 166.24 16.245 166.24 18.0386 166.24 20.1626C 166.24 22.0506 166.217 24.0802 166.169 26.2515C 166.122 28.4227 166.004 30.0275 165.815 31.0659C 165.815 32.1043 165.745 33.5203 165.603 35.314C 165.461 37.0604 165.391 38.5708 165.391 39.8452C 165.391 41.3084 165.32 43.1493 165.178 45.3677C 165.037 47.5389 164.966 49.4741 164.966 51.1733C 164.777 52.8726 164.659 54.737 164.612 56.7666C 164.565 58.749 164.541 60.3774 164.541 61.6519C 164.541 62.6903 164.565 63.8231 164.612 65.0503C 164.659 66.2303 164.777 67.0327 164.966 67.4575C 164.966 67.8823 164.942 68.6847 164.895 69.8647C 164.848 70.9976 164.73 72.2956 164.541 73.7588C 164.352 75.0332 164.163 76.4964 163.975 78.1484C 163.786 79.7533 163.691 81.0749 163.691 82.1133C 163.691 83.1517 163.668 84.3081 163.621 85.5825C 163.573 86.8569 163.455 87.8009 163.267 88.4146C 163.078 89.0282 162.889 89.807 162.7 90.751C 162.511 91.695 162.417 92.5918 162.417 93.4414C 162.417 94.055 162.346 94.8338 162.205 95.7778C 162.063 96.7218 161.992 97.6187 161.992 98.4683C 161.803 99.3179 161.685 100.309 161.638 101.442C 161.591 102.528 161.567 103.495 161.567 104.345C 161.567 104.958 161.638 105.714 161.78 106.61C 161.921 107.46 161.992 108.097 161.992 108.522C 162.181 109.136 162.205 109.608 162.063 109.938C 161.921 110.221 161.756 110.457 161.567 110.646C 161.284 111.024 160.741 111.024 159.939 110.646C 159.75 110.646 159.632 110.339 159.585 109.726C 159.538 109.112 159.514 107.743 159.514 105.619C 159.514 104.345 159.585 102.811 159.727 101.017C 159.868 99.2235 159.939 97.6895 159.939 96.415C 159.939 95.1406 160.033 93.9606 160.222 92.875C 160.411 91.7894 160.6 91.1522 160.789 90.9634C 160.789 90.5386 160.859 90.0666 161.001 89.5474C 161.143 88.981 161.213 88.6034 161.213 88.4146C 161.213 87.9897 161.261 87.4469 161.355 86.7861C 161.497 86.0781 161.567 85.5117 161.567 85.0869C 161.567 84.6621 161.591 83.9069 161.638 82.8213C 161.685 81.6885 161.803 80.4849 161.992 79.2104C 161.992 78.172 162.016 77.2044 162.063 76.3076C 162.11 75.3636 162.228 74.7972 162.417 74.6084C 162.417 74.1836 162.488 72.862 162.629 70.6436C 162.771 68.4251 162.842 65.9707 162.842 63.2803C 162.842 60.3538 162.913 57.1678 163.054 53.7222C 163.196 50.2293 163.267 47.4209 163.267 45.2969C 163.267 43.1729 163.337 41.1904 163.479 39.3496C 163.621 37.5088 163.691 36.2816 163.691 35.668C 163.691 34.8184 163.762 33.9215 163.904 32.9775C 164.045 32.0335 164.116 31.2547 164.116 30.6411C 164.116 30.0275 164.116 29.1779 164.116 28.0923C 164.116 27.0067 164.116 26.0391 164.116 25.1895C 164.116 24.3398 164.116 23.3722 164.116 22.2866C 164.116 21.201 164.116 20.3514 164.116 19.7378C 164.116 18.8882 164.116 17.9206 164.116 16.835C 164.116 15.7493 164.116 14.8997 164.116 14.2861L 163.691 11.8081L 160.789 11.3833C 159.939 11.3833 159.207 11.2889 158.594 11.1001C 157.98 10.9113 157.579 10.7225 157.39 10.5337Z"/>
<path id="path5_fill" d="M 1.84082 9.82568C 2.21842 9.11768 2.52523 8.64567 2.76123 8.40967C 2.71403 8.03206 3.35124 7.89046 4.67285 7.98486C 5.14486 7.98486 5.56966 8.00846 5.94727 8.05566C 6.32487 8.05566 6.51367 8.17367 6.51367 8.40967C 6.98568 8.45687 7.90609 8.76367 9.2749 9.33008C 10.2189 9.56608 11.3989 9.80208 12.8149 10.0381C 14.2782 10.2741 15.5762 10.5101 16.709 10.7461C 18.125 10.7461 19.5174 10.8169 20.8862 10.9585C 22.255 11.1001 23.1755 11.1709 23.6475 11.1709C 24.3555 11.1709 25.1107 11.2889 25.9131 11.5249C 26.7155 11.7137 27.3527 11.9261 27.8247 12.1621C 29.2407 12.6813 32.4976 12.9881 37.5952 13.0825C 39.436 13.0825 41.9141 13.2241 45.0293 13.5073C 45.5013 13.4601 45.5013 13.9321 45.0293 14.9233C 44.7933 15.3953 44.6045 15.7257 44.4629 15.9146C 44.3213 16.1034 43.8965 16.0798 43.1885 15.8438C 42.7165 15.8438 41.7489 15.7729 40.2856 15.6313C 38.8696 15.4425 37.3592 15.3481 35.7544 15.3481C 33.6776 15.3481 32.002 15.2537 30.7275 15.0649C 29.5003 14.8761 28.5327 14.6637 27.8247 14.4277C 27.1167 14.1917 26.5739 14.0737 26.1963 14.0737C 25.8187 14.0737 25.2759 14.1917 24.5679 14.4277C 23.2935 14.8525 22.6799 14.8525 22.7271 14.4277C 22.491 14.1917 22.1134 14.0737 21.5942 14.0737C 21.1222 14.0265 20.4142 14.0029 19.4702 14.0029C 18.5262 14.0029 17.535 13.9085 16.4966 13.7197C 15.5054 13.5309 14.6558 13.3185 13.9478 13.0825C 13.2397 12.8465 12.3901 12.5633 11.3989 12.2329C 10.4077 11.8553 9.55811 11.6665 8.8501 11.6665C 7.71729 11.4305 6.89128 11.3833 6.37207 11.5249C 5.90007 11.6193 5.78206 11.6665 6.01807 11.6665C 6.01807 11.9025 6.06527 12.6577 6.15967 13.9321C 6.30127 15.1593 6.25407 16.5754 6.01807 18.1802C 6.01807 19.785 6.01807 21.2954 6.01807 22.7114C 6.01807 24.0802 6.01807 24.8826 6.01807 25.1187C 6.01807 25.5907 6.04167 26.1335 6.08887 26.7471C 6.13607 27.3607 6.27767 27.9035 6.51367 28.3755C 6.51367 28.8475 6.58447 29.6263 6.72607 30.7119C 6.86768 31.7503 6.93848 32.8359 6.93848 33.9688C 7.17448 35.1016 7.38688 36.376 7.57568 37.792C 7.81169 39.208 7.92969 40.388 7.92969 41.332C 7.92969 42.9368 7.95329 43.9753 8.00049 44.4473C 8.09489 44.9193 8.37809 45.2733 8.8501 45.5093C 9.3221 45.5093 10.0537 45.5801 11.0449 45.7217C 12.0361 45.8161 13.0037 45.7453 13.9478 45.5093C 15.0806 45.5093 16.2606 45.5093 17.4878 45.5093C 18.7622 45.5093 19.7534 45.5093 20.4614 45.5093C 20.9334 45.7453 21.429 45.9105 21.9482 46.0049C 22.4674 46.0993 22.7271 46.2645 22.7271 46.5005C 23.1519 46.9253 23.3171 47.3737 23.2227 47.8457C 22.9867 48.0817 22.7979 48.2941 22.6562 48.4829C 22.5146 48.6245 22.0898 48.5773 21.3818 48.3413C 20.9098 48.3413 19.9422 48.2705 18.479 48.1289C 17.063 47.9401 15.5526 47.8457 13.9478 47.8457L 7.92969 47.4209L 7.92969 51.1025C 8.16569 52.2354 8.18929 53.3682 8.00049 54.501C 7.85889 55.6338 7.67008 56.6722 7.43408 57.6162C 7.19808 58.5602 6.98568 59.6458 6.79688 60.873C 6.60807 62.1003 6.51367 63.1859 6.51367 64.1299C 6.51367 64.8379 6.41927 65.8999 6.23047 67.3159C 6.08887 68.6847 6.01807 69.9355 6.01807 71.0684C 6.01807 72.2012 5.94727 73.3104 5.80566 74.396C 5.66406 75.4344 5.59326 76.1896 5.59326 76.6616C 5.59326 77.1336 5.49886 77.7708 5.31006 78.5732C 5.16846 79.3757 5.09766 80.1309 5.09766 80.8389C 5.09766 81.7829 5.00326 82.6561 4.81445 83.4585C 4.62565 84.2609 4.41325 84.7801 4.17725 85.0161C 4.17725 85.5353 4.17725 85.8421 4.17725 85.9365C 4.17725 86.1725 4.15365 86.5973 4.10645 87.2109C 4.10645 87.7773 3.98844 88.4146 3.75244 89.1226C 3.75244 89.8306 3.65804 90.6802 3.46924 91.6714C 3.32764 92.6154 3.25684 93.3234 3.25684 93.7954C 3.02083 94.0314 2.87923 94.645 2.83203 95.6362C 2.78483 96.5802 2.76123 97.5243 2.76123 98.4683C 2.76123 99.4123 2.78483 100.592 2.83203 102.008C 2.87923 103.424 3.02083 104.699 3.25684 105.832C 3.25684 107.672 3.23324 108.947 3.18604 109.655C 3.13883 110.316 2.99723 110.764 2.76123 111C 2.33643 111 1.88802 111 1.41602 111C 1.18001 110.764 1.01481 110.15 0.92041 109.159C 0.87321 108.168 0.731608 106.752 0.495605 104.911C 0.495605 103.495 0.401204 102.103 0.212402 100.734C 0.0708008 99.3651 0 98.4447 0 97.9727C 0.236003 97.2646 0.377604 96.6038 0.424805 95.9902C 0.519206 95.3766 0.684408 94.9518 0.92041 94.7158C 0.92041 94.4798 0.991211 93.8662 1.13281 92.875C 1.32161 91.8366 1.41602 90.751 1.41602 89.6182C 1.65202 88.4854 1.86442 87.4233 2.05322 86.4321C 2.24202 85.3937 2.33643 84.7565 2.33643 84.5205C 2.57243 84.5205 2.71403 84.0721 2.76123 83.1753C 2.85563 82.2313 3.02083 81.2873 3.25684 80.3433C 3.25684 79.3993 3.32764 78.4316 3.46924 77.4404C 3.65804 76.4492 3.75244 75.7176 3.75244 75.2456C 3.75244 74.7736 3.75244 74.0184 3.75244 72.98C 3.79964 71.8944 3.94124 70.7852 4.17725 69.6523C 4.17725 68.7083 4.27165 67.3395 4.46045 65.5459C 4.64925 63.7051 4.86165 61.9823 5.09766 60.3774C 5.33366 58.3006 5.47526 56.4126 5.52246 54.7134C 5.56966 53.0142 5.59326 50.8901 5.59326 48.3413C 5.59326 46.5005 5.49886 44.5417 5.31006 42.4648C 5.16846 40.388 5.09766 38.7832 5.09766 37.6504C 5.09766 36.2344 4.95605 34.6768 4.67285 32.9775C 4.67285 32.7415 4.57845 32.3403 4.38965 31.7739C 4.24805 31.1603 4.17725 30.4995 4.17725 29.7915C 4.17725 28.8475 4.10645 28.0451 3.96484 27.3843C 3.82324 26.7235 3.75244 26.2751 3.75244 26.0391C 3.75244 25.8031 3.75244 25.2839 3.75244 24.4814C 3.79964 23.679 3.94124 22.8058 4.17725 21.8618C 4.17725 20.9178 4.17725 19.7614 4.17725 18.3926C 4.17725 17.0238 4.17725 15.8674 4.17725 14.9233C 3.75244 12.5633 3.28044 11.1709 2.76123 10.7461C 2.52523 10.5101 2.21842 10.2033 1.84082 9.82568ZM 51.4722 9.68408C 51.897 9.49528 52.369 9.21208 52.8882 8.83447C 53.4546 8.45687 53.9502 8.17367 54.375 7.98486C 54.7998 7.98486 55.3662 7.98486 56.0742 7.98486C 56.263 7.98486 56.6406 8.05566 57.207 8.19727C 57.7734 8.33887 58.3634 8.40967 58.9771 8.40967C 60.0155 8.59847 60.8179 8.81087 61.3843 9.04688C 61.9507 9.28288 62.5407 9.61328 63.1543 10.0381C 63.5791 10.4629 64.0511 10.9585 64.5703 11.5249C 65.0895 12.0441 65.4435 12.3981 65.6323 12.5869C 65.8211 12.7757 66.1043 13.1533 66.4819 13.7197C 66.8595 14.2861 67.1427 14.8761 67.3315 15.4897C 67.7563 16.1034 68.0868 16.6698 68.3228 17.189C 68.5588 17.7082 68.7712 17.9678 68.96 17.9678C 69.3376 19.0534 69.6208 19.903 69.8096 20.5166C 69.9984 21.1302 70.2816 21.9326 70.6592 22.9238C 71.0368 23.8678 71.32 24.859 71.5088 25.8975C 71.6976 26.9359 71.8628 28.0687 72.0044 29.2959C 72.146 30.5231 72.1224 32.1751 71.9336 34.252C 71.9336 36.3288 71.8628 38.028 71.7212 39.3496C 71.6268 40.6712 71.2728 42.1816 70.6592 43.8809C 70.2344 45.7689 69.8568 47.2321 69.5264 48.2705C 69.196 49.3089 68.606 50.3473 67.7563 51.3857C 67.3315 51.9993 66.7651 52.7546 66.0571 53.6514C 65.3963 54.501 64.8535 55.1382 64.4287 55.563C 63.2015 56.8374 62.3519 57.5218 61.8799 57.6162C 61.2191 58.041 60.6763 58.4658 60.2515 58.8906C 59.8267 59.3154 59.2603 59.7166 58.5522 60.0942C 57.8442 60.4718 57.2778 60.755 56.853 60.9438C 56.145 61.4159 55.6022 61.6991 55.2246 61.7935C 55.2246 61.6047 55.201 61.5575 55.1538 61.6519C 55.1066 61.7463 54.9886 61.7935 54.7998 61.7935C 54.7998 61.9823 54.965 62.2891 55.2954 62.7139C 55.6258 63.1387 55.8854 63.6579 56.0742 64.2715C 56.499 64.6963 56.9002 65.1919 57.2778 65.7583C 57.7026 66.3247 58.1274 66.8203 58.5522 67.2451C 58.741 67.6699 59.0951 68.1891 59.6143 68.8027C 60.1335 69.3691 60.4875 69.9591 60.6763 70.5728C 61.1011 71.1864 61.6439 72.154 62.3047 73.4756C 62.4935 73.6644 62.7767 74.0656 63.1543 74.6792C 63.5791 75.2456 64.0039 75.9536 64.4287 76.8032C 64.8535 77.4168 65.3963 78.29 66.0571 79.4229C 66.7651 80.5085 67.3315 81.5705 67.7563 82.6089C 68.37 83.4585 68.9836 84.4969 69.5972 85.7241C 70.258 86.9513 70.8952 87.8717 71.5088 88.4854C 71.9336 89.335 72.4764 90.3026 73.1372 91.3882C 72.9484 91.3882 72.9248 91.4826 73.0664 91.6714C 73.208 91.8602 73.3732 92.049 73.562 92.2378C 73.7508 92.4266 74.0104 92.8042 74.3408 93.3706C 74.6712 93.937 74.8364 94.527 74.8364 95.1406C 75.0252 95.5654 75.214 96.061 75.4028 96.6274C 75.6388 97.1466 75.8512 97.6187 76.04 98.0435C 76.2288 98.4683 76.4176 98.8931 76.6064 99.3179C 76.7952 99.6955 76.8896 99.9787 76.8896 100.167C 76.8896 100.592 77.1493 101.206 77.6685 102.008C 78.2349 102.811 78.8249 103.731 79.4385 104.77C 79.8633 105.808 80.3353 106.705 80.8545 107.46C 81.3737 108.168 81.7277 108.522 81.9165 108.522C 82.1997 108.616 82.3413 108.758 82.3413 108.947C 82.3885 109.277 82.2469 109.82 81.9165 110.575C 81.7277 110.764 81.3029 110.906 80.6421 111C 80.2173 111.094 79.5329 110.127 78.5889 108.097C 78.1641 107.059 77.6685 106.044 77.1021 105.053C 76.5828 104.062 76.1108 103.259 75.686 102.646C 75.2612 102.032 74.8364 101.347 74.4116 100.592C 74.034 99.7899 73.7508 99.0819 73.562 98.4683C 73.3732 98.0435 73.1136 97.5007 72.7832 96.8398C 72.4528 96.1318 72.2876 95.5654 72.2876 95.1406C 72.2404 94.1966 71.9808 93.5122 71.5088 93.0874C 71.0368 92.6626 70.7536 92.2378 70.6592 91.813C 70.5648 91.7658 70.2816 91.0814 69.8096 89.7598C 69.0072 88.8158 68.5824 88.1077 68.5352 87.6357C 68.3464 87.6357 68.134 87.4705 67.8979 87.1401C 67.7091 86.8097 67.5203 86.4321 67.3315 86.0073C 67.1427 85.5825 66.6471 84.6621 65.8447 83.2461C 65.0895 81.7829 64.1927 80.2017 63.1543 78.5024C 62.1159 76.8032 60.8651 74.7028 59.4019 72.2012C 59.4491 71.8236 58.8826 70.856 57.7026 69.2983C 57.2778 68.6847 56.7822 68.0239 56.2158 67.3159C 55.6966 66.5607 55.2246 65.9707 54.7998 65.5459C 54.611 64.9323 54.1862 64.2243 53.5254 63.4219C 53.5254 64.9323 53.5254 66.2067 53.5254 67.2451C 53.5254 68.2835 53.5962 69.2747 53.7378 70.2188C 53.8794 71.1156 53.9502 71.7764 53.9502 72.2012C 54.139 72.626 54.257 73.0508 54.3042 73.4756C 54.3514 73.8532 54.375 74.1364 54.375 74.3252C 54.375 74.75 54.4458 76.4964 54.5874 79.5645C 54.729 82.6325 54.7998 86.1489 54.7998 90.1138C 54.7998 94.0786 54.8706 97.6187 55.0122 100.734C 55.1538 103.802 55.2246 105.548 55.2246 105.973C 55.4134 106.823 55.4134 107.342 55.2246 107.531C 55.083 107.72 54.7998 107.908 54.375 108.097C 54.1862 108.286 53.9266 108.451 53.5962 108.593C 53.2658 108.734 53.1006 108.711 53.1006 108.522C 52.9118 108.522 52.7938 106.917 52.7466 103.708C 52.7466 100.451 52.7466 96.6274 52.7466 92.2378C 52.7466 87.8481 52.6758 84.0249 52.5342 80.7681C 52.3926 77.464 52.3218 75.7176 52.3218 75.5288C 52.3218 75.34 52.2982 74.9624 52.251 74.396C 52.2038 73.8296 52.0858 73.2396 51.897 72.626C 51.897 72.2012 51.8262 71.4696 51.6846 70.4312C 51.543 69.3455 51.4722 68.2835 51.4722 67.2451C 51.4722 66.2067 51.4014 65.0267 51.2598 63.7051C 51.1182 62.3363 51.0474 61.1326 51.0474 60.0942C 50.8586 59.2446 50.7642 58.3714 50.7642 57.4746C 50.7642 56.5306 50.8586 55.7518 51.0474 55.1382C 51.0474 54.5246 51.071 52.9198 51.1182 50.3237C 51.1654 47.7277 51.2834 44.8721 51.4722 41.7568C 51.4722 38.8304 51.4722 36.0928 51.4722 33.5439C 51.4722 30.9951 51.4722 29.2959 51.4722 28.4463C 51.4722 27.8327 51.543 26.8887 51.6846 25.6143C 51.8262 24.3398 51.897 23.1834 51.897 22.145C 52.2274 19.2658 52.369 17.0474 52.3218 15.4897C 51.9914 14.2153 51.8498 13.3893 51.897 13.0117C 51.9914 13.0117 52.2746 13.0117 52.7466 13.0117C 52.7466 13.0589 52.7466 12.9173 52.7466 12.5869C 52.5578 12.3981 52.4162 12.2801 52.3218 12.2329C 52.2274 12.1857 52.0858 12.1621 51.897 12.1621C 51.8498 12.4925 51.5666 12.6341 51.0474 12.5869C 50.7642 12.4925 50.6226 12.3509 50.6226 12.1621C 50.4338 11.7373 50.363 11.3833 50.4102 11.1001C 50.5046 10.7697 50.8586 10.2977 51.4722 9.68408ZM 64.0039 13.8613C 63.3903 13.2477 62.7767 12.6577 62.1631 12.0913C 61.5967 11.4777 61.2191 11.0765 61.0303 10.8877C 60.3223 10.4157 58.9299 10.1325 56.853 10.0381C 56.0034 10.0381 55.2246 10.1325 54.5166 10.3213C 53.8558 10.5101 53.5254 10.6989 53.5254 10.8877C 53.195 10.9821 53.0534 11.2653 53.1006 11.7373C 53.2894 11.9261 53.4782 12.3745 53.667 13.0825C 53.8558 13.7905 53.9502 14.4513 53.9502 15.0649C 54.139 15.6785 54.257 16.4338 54.3042 17.3306C 54.3514 18.1802 54.375 18.8174 54.375 19.2422C 54.375 19.667 54.3042 20.257 54.1626 21.0122C 54.021 21.7202 53.9502 22.381 53.9502 22.9946C 53.9502 23.6082 53.8794 25.1895 53.7378 27.7383C 53.5962 30.2871 53.5254 33.0247 53.5254 35.9512C 53.5254 38.8776 53.4546 41.9692 53.313 45.2261C 53.1714 48.4357 53.1006 50.8901 53.1006 52.5894L 52.7466 58.041L 54.375 58.8906L 55.6494 59.6694L 58.5522 57.6162C 59.1659 57.1914 59.8267 56.7194 60.5347 56.2002C 61.2427 55.6338 61.6911 55.1382 61.8799 54.7134C 62.0687 54.5246 62.4935 54.2414 63.1543 53.8638C 63.6263 53.8166 64.0511 53.3918 64.4287 52.5894C 65.3727 51.6925 66.0571 50.8665 66.4819 50.1113C 66.6707 49.6865 66.9539 49.0493 67.3315 48.1997C 67.7091 47.3029 67.9924 46.5477 68.1812 45.9341C 68.606 45.0845 68.9128 44.1877 69.1016 43.2437C 69.2904 42.2996 69.3848 41.5208 69.3848 40.9072C 69.5736 40.4824 69.7624 39.562 69.9512 38.146C 70.14 36.73 70.2344 35.2904 70.2344 33.8271C 70.2344 32.5527 70.1636 31.2311 70.022 29.8623C 69.8804 28.4935 69.8096 27.5967 69.8096 27.1719C 69.6208 26.7471 69.432 26.2751 69.2432 25.7559C 69.0544 25.1895 68.96 24.6938 68.96 24.269C 68.96 24.0802 68.8656 23.6318 68.6768 22.9238C 68.5352 22.2158 68.37 21.555 68.1812 20.9414C 67.7563 20.3278 67.4023 19.667 67.1191 18.959C 66.8831 18.251 66.6707 17.8026 66.4819 17.6138C 66.2931 17.6138 66.1043 17.4486 65.9155 17.1182C 65.7267 16.7878 65.6323 16.5282 65.6323 16.3394C 65.6323 16.1506 65.4671 15.7965 65.1367 15.2773C 64.8063 14.7581 64.4287 14.2861 64.0039 13.8613ZM 89.209 10.3213C 89.209 10.0853 89.2326 9.77848 89.2798 9.40088C 89.327 9.02327 89.4686 8.71647 89.7046 8.48047C 89.7046 8.24447 89.799 8.12646 89.9878 8.12646C 90.1766 8.07926 90.389 8.05566 90.625 8.05566C 90.861 8.05566 91.2622 8.15007 91.8286 8.33887C 92.4422 8.52767 92.9614 8.74007 93.3862 8.97607C 93.811 9.21208 94.2358 9.49528 94.6606 9.82568C 95.0854 10.1561 95.4159 10.3213 95.6519 10.3213C 95.8879 10.3213 96.1947 10.4157 96.5723 10.6045C 96.9499 10.7461 97.2567 10.8169 97.4927 10.8169C 97.4927 11.0529 97.8467 11.2653 98.5547 11.4541C 99.3099 11.6429 100.042 11.7373 100.75 11.7373C 101.08 11.7373 101.599 11.7845 102.307 11.8789C 103.062 11.9261 103.818 11.9969 104.573 12.0913C 105.328 12.1385 106.012 12.1857 106.626 12.2329C 107.24 12.2801 107.617 12.3037 107.759 12.3037C 107.995 12.5397 108.608 12.7757 109.6 13.0117C 110.638 13.2477 111.724 13.4837 112.856 13.7197C 113.989 13.7197 115.028 13.8141 115.972 14.0029C 116.963 14.1917 117.458 14.4041 117.458 14.6401C 117.883 14.8761 118.001 15.1357 117.812 15.4189C 117.671 15.7021 117.246 16.1978 116.538 16.9058C 115.83 17.6138 115.405 17.9914 115.264 18.0386C 115.169 18.0386 115.122 17.8262 115.122 17.4014C 114.886 16.9766 114.532 16.6698 114.06 16.481C 113.635 16.2922 112.62 15.9854 111.016 15.5605C 110.449 15.4661 109.623 15.3481 108.538 15.2065C 107.499 15.0177 106.414 14.8289 105.281 14.6401C 104.148 14.4513 103.11 14.2625 102.166 14.0737C 101.222 13.8849 100.584 13.7197 100.254 13.5781C 99.5459 13.3421 98.6255 13.1061 97.4927 12.8701C 96.3599 12.6341 95.4395 12.3981 94.7314 12.1621C 93.8346 11.9261 92.7726 11.7845 91.5454 11.7373C 91.3094 11.7373 91.1678 12.3509 91.1206 13.5781C 91.0734 14.8053 91.0498 16.3394 91.0498 18.1802C 91.0498 19.785 90.979 22.0034 90.8374 24.8354C 90.6958 27.6203 90.625 30.2871 90.625 32.8359C 90.625 35.1016 90.5306 37.1784 90.3418 39.0664C 90.2002 40.9544 90.1294 42.1108 90.1294 42.5356C 90.1294 42.9604 90.0586 43.3145 89.917 43.5977C 89.7754 43.8809 89.7046 44.1405 89.7046 44.3765C 89.3742 47.4917 89.209 50.0877 89.209 52.1646C 89.209 54.2414 89.1382 56.0822 88.9966 57.687C 88.855 59.2918 88.7842 60.2122 88.7842 60.4482C 88.5482 60.873 88.6898 61.1326 89.209 61.2271C 89.7282 61.3215 91.2622 61.3687 93.811 61.3687C 94.6134 61.3687 95.7463 61.3923 97.2095 61.4395C 98.6727 61.4867 100.112 61.5339 101.528 61.5811C 102.992 61.5811 104.266 61.6047 105.352 61.6519C 106.484 61.6519 107.122 61.6519 107.263 61.6519C 107.169 62.3127 107.004 62.7611 106.768 62.9971C 106.532 63.4219 106.343 63.6815 106.201 63.7759C 106.107 63.8703 105.847 63.9175 105.422 63.9175C 105.281 63.9175 104.714 63.9175 103.723 63.9175C 102.732 63.9175 101.623 63.9175 100.396 63.9175C 99.1683 63.8703 97.9883 63.8231 96.8555 63.7759C 95.7699 63.7287 95.0618 63.7051 94.7314 63.7051C 94.0234 63.4691 93.2682 63.3511 92.4658 63.3511C 91.6634 63.3511 91.0498 63.4691 90.625 63.7051L 88.7842 64.1299L 89.209 65.9707C 89.209 66.3955 89.209 67.1507 89.209 68.2363C 89.209 69.2747 89.209 70.3604 89.209 71.4932C 89.209 72.39 89.1382 73.2868 88.9966 74.1836C 88.855 75.0332 88.7842 75.6704 88.7842 76.0952C 88.7842 76.3312 88.6898 76.8504 88.501 77.6528C 88.3594 78.4552 88.2886 79.3049 88.2886 80.2017C 88.2886 81.0985 88.2178 82.3965 88.0762 84.0957C 87.9346 85.7477 87.8638 87.3761 87.8638 88.981C 87.8638 90.3498 87.7694 91.813 87.5806 93.3706C 87.439 94.9282 87.3682 96.061 87.3682 96.769C 87.3682 97.9019 87.3682 99.1527 87.3682 100.521C 87.4154 101.843 87.557 102.858 87.793 103.566C 88.265 104.935 88.7134 105.855 89.1382 106.327C 89.3742 106.563 89.8698 106.776 90.625 106.964C 91.3802 107.153 92.1118 107.248 92.8198 107.248C 93.5278 107.484 94.4954 107.625 95.7227 107.672C 96.9499 107.672 98.1299 107.672 99.2627 107.672C 100.632 107.672 101.812 107.767 102.803 107.956C 103.841 108.144 104.809 108.357 105.706 108.593C 106.414 108.829 107.287 109.041 108.325 109.23C 109.411 109.419 110.992 109.513 113.069 109.513C 115.146 109.513 116.703 109.513 117.742 109.513C 118.827 109.466 119.583 109.324 120.007 109.088C 120.432 108.852 120.81 108.711 121.14 108.664C 121.471 108.616 121.848 108.593 122.273 108.593C 122.698 108.829 122.957 109.065 123.052 109.301C 123.146 109.537 123.193 109.773 123.193 110.009C 123.193 110.245 123.052 110.552 122.769 110.929C 122.721 111.26 121.494 111.401 119.087 111.354C 117.954 111.354 116.963 111.425 116.113 111.566C 115.264 111.755 114.721 111.85 114.485 111.85C 114.485 112.038 114.06 112.038 113.21 111.85C 112.408 111.708 111.44 111.543 110.308 111.354C 109.175 111.118 107.995 110.906 106.768 110.717C 105.54 110.528 104.573 110.434 103.865 110.434C 102.968 110.434 101.859 110.363 100.537 110.221C 99.2155 110.08 97.8703 110.009 96.5015 110.009C 95.3687 110.009 94.2594 109.938 93.1738 109.796C 92.1354 109.608 91.4038 109.513 90.979 109.513C 90.743 109.277 90.4362 109.065 90.0586 108.876C 89.681 108.687 89.3742 108.593 89.1382 108.593C 89.1382 109.301 89.1382 109.773 89.1382 110.009C 89.1382 110.434 89.0438 110.835 88.855 111.212C 88.6662 111.637 88.4538 111.991 88.2178 112.274C 87.793 112.699 87.3446 112.699 86.8726 112.274C 86.6366 112.274 86.495 112.062 86.4478 111.637C 86.4006 111.26 86.377 110.858 86.377 110.434C 86.377 110.009 86.3062 109.277 86.1646 108.239C 86.0229 107.153 85.9521 106.044 85.9521 104.911C 85.7161 104.014 85.5037 102.764 85.3149 101.159C 85.1733 99.5539 85.1025 98.3975 85.1025 97.6895C 85.1025 97.2646 85.1733 96.179 85.3149 94.4326C 85.4565 92.639 85.5273 90.8218 85.5273 88.981C 85.5273 86.9041 85.6217 84.8509 85.8105 82.8213C 85.9993 80.7445 86.2118 79.2576 86.4478 78.3608C 86.4478 77.464 86.5186 76.3076 86.6602 74.8916C 86.849 73.4756 86.9434 72.2012 86.9434 71.0684C 86.9434 69.9355 86.9434 68.6847 86.9434 67.3159C 86.9434 65.8999 86.9434 64.8379 86.9434 64.1299C 86.9434 63.2331 86.9434 61.8879 86.9434 60.0942C 86.9434 58.2534 86.9434 56.5306 86.9434 54.9258C 86.9434 53.321 87.0142 51.5509 87.1558 49.6157C 87.2974 47.6333 87.3682 46.1937 87.3682 45.2969C 87.6042 44.4001 87.8166 43.3617 88.0054 42.1816C 88.1942 40.9544 88.2886 39.9868 88.2886 39.2788C 88.2886 38.382 88.3594 36.4704 88.501 33.5439C 88.6898 30.6175 88.7842 27.3135 88.7842 23.6318C 88.7842 20.1862 88.855 17.1654 88.9966 14.5693C 89.1382 11.9733 89.209 10.5573 89.209 10.3213ZM 129.99 10.3213C 129.99 10.0853 130.014 9.77848 130.061 9.40088C 130.108 9.02327 130.25 8.71647 130.486 8.48047C 130.486 8.24447 130.58 8.12646 130.769 8.12646C 130.958 8.07926 131.17 8.05566 131.406 8.05566C 131.642 8.05566 132.043 8.15007 132.61 8.33887C 133.223 8.52767 133.743 8.74007 134.167 8.97607C 134.592 9.21208 135.017 9.49528 135.442 9.82568C 135.867 10.1561 136.197 10.3213 136.433 10.3213C 136.669 10.3213 136.976 10.4157 137.354 10.6045C 137.731 10.7461 138.038 10.8169 138.274 10.8169C 138.274 11.0529 138.628 11.2653 139.336 11.4541C 140.091 11.6429 140.823 11.7373 141.531 11.7373C 141.861 11.7373 142.38 11.7845 143.088 11.8789C 143.844 11.9261 144.599 11.9969 145.354 12.0913C 146.109 12.1385 146.794 12.1857 147.407 12.2329C 148.021 12.2801 148.398 12.3037 148.54 12.3037C 148.776 12.5397 149.39 12.7757 150.381 13.0117C 151.419 13.2477 152.505 13.4837 153.638 13.7197C 154.771 13.7197 155.809 13.8141 156.753 14.0029C 157.744 14.1917 158.24 14.4041 158.24 14.6401C 158.665 14.8761 158.783 15.1357 158.594 15.4189C 158.452 15.7021 158.027 16.1978 157.319 16.9058C 156.611 17.6138 156.187 17.9914 156.045 18.0386C 155.951 18.0386 155.903 17.8262 155.903 17.4014C 155.667 16.9766 155.313 16.6698 154.841 16.481C 154.417 16.2922 153.402 15.9854 151.797 15.5605C 151.23 15.4661 150.404 15.3481 149.319 15.2065C 148.28 15.0177 147.195 14.8289 146.062 14.6401C 144.929 14.4513 143.891 14.2625 142.947 14.0737C 142.003 13.8849 141.366 13.7197 141.035 13.5781C 140.327 13.3421 139.407 13.1061 138.274 12.8701C 137.141 12.6341 136.221 12.3981 135.513 12.1621C 134.616 11.9261 133.554 11.7845 132.327 11.7373C 132.091 11.7373 131.949 12.3509 131.902 13.5781C 131.855 14.8053 131.831 16.3394 131.831 18.1802C 131.831 19.785 131.76 22.0034 131.619 24.8354C 131.477 27.6203 131.406 30.2871 131.406 32.8359C 131.406 35.1016 131.312 37.1784 131.123 39.0664C 130.981 40.9544 130.911 42.1108 130.911 42.5356C 130.911 42.9604 130.84 43.3145 130.698 43.5977C 130.557 43.8809 130.486 44.1405 130.486 44.3765C 130.155 47.4917 129.99 50.0877 129.99 52.1646C 129.99 54.2414 129.919 56.0822 129.778 57.687C 129.636 59.2918 129.565 60.2122 129.565 60.4482C 129.329 60.873 129.471 61.1326 129.99 61.2271C 130.509 61.3215 132.043 61.3687 134.592 61.3687C 135.395 61.3687 136.528 61.3923 137.991 61.4395C 139.454 61.4867 140.894 61.5339 142.31 61.5811C 143.773 61.5811 145.047 61.6047 146.133 61.6519C 147.266 61.6519 147.903 61.6519 148.044 61.6519C 147.95 62.3127 147.785 62.7611 147.549 62.9971C 147.313 63.4219 147.124 63.6815 146.982 63.7759C 146.888 63.8703 146.628 63.9175 146.204 63.9175C 146.062 63.9175 145.496 63.9175 144.504 63.9175C 143.513 63.9175 142.404 63.9175 141.177 63.9175C 139.95 63.8703 138.77 63.8231 137.637 63.7759C 136.551 63.7287 135.843 63.7051 135.513 63.7051C 134.805 63.4691 134.049 63.3511 133.247 63.3511C 132.445 63.3511 131.831 63.4691 131.406 63.7051L 129.565 64.1299L 129.99 65.9707C 129.99 66.3955 129.99 67.1507 129.99 68.2363C 129.99 69.2747 129.99 70.3604 129.99 71.4932C 129.99 72.39 129.919 73.2868 129.778 74.1836C 129.636 75.0332 129.565 75.6704 129.565 76.0952C 129.565 76.3312 129.471 76.8504 129.282 77.6528C 129.141 78.4552 129.07 79.3049 129.07 80.2017C 129.07 81.0985 128.999 82.3965 128.857 84.0957C 128.716 85.7477 128.645 87.3761 128.645 88.981C 128.645 90.3498 128.551 91.813 128.362 93.3706C 128.22 94.9282 128.149 96.061 128.149 96.769C 128.149 97.9019 128.149 99.1527 128.149 100.521C 128.197 101.843 128.338 102.858 128.574 103.566C 129.046 104.935 129.495 105.855 129.919 106.327C 130.155 106.563 130.651 106.776 131.406 106.964C 132.161 107.153 132.893 107.248 133.601 107.248C 134.309 107.484 135.277 107.625 136.504 107.672C 137.731 107.672 138.911 107.672 140.044 107.672C 141.413 107.672 142.593 107.767 143.584 107.956C 144.622 108.144 145.59 108.357 146.487 108.593C 147.195 108.829 148.068 109.041 149.106 109.23C 150.192 109.419 151.773 109.513 153.85 109.513C 155.927 109.513 157.485 109.513 158.523 109.513C 159.609 109.466 160.364 109.324 160.789 109.088C 161.213 108.852 161.591 108.711 161.921 108.664C 162.252 108.616 162.629 108.593 163.054 108.593C 163.479 108.829 163.739 109.065 163.833 109.301C 163.927 109.537 163.975 109.773 163.975 110.009C 163.975 110.245 163.833 110.552 163.55 110.929C 163.503 111.26 162.275 111.401 159.868 111.354C 158.735 111.354 157.744 111.425 156.895 111.566C 156.045 111.755 155.502 111.85 155.266 111.85C 155.266 112.038 154.841 112.038 153.992 111.85C 153.189 111.708 152.222 111.543 151.089 111.354C 149.956 111.118 148.776 110.906 147.549 110.717C 146.322 110.528 145.354 110.434 144.646 110.434C 143.749 110.434 142.64 110.363 141.318 110.221C 139.997 110.08 138.652 110.009 137.283 110.009C 136.15 110.009 135.041 109.938 133.955 109.796C 132.917 109.608 132.185 109.513 131.76 109.513C 131.524 109.277 131.217 109.065 130.84 108.876C 130.462 108.687 130.155 108.593 129.919 108.593C 129.919 109.301 129.919 109.773 129.919 110.009C 129.919 110.434 129.825 110.835 129.636 111.212C 129.447 111.637 129.235 111.991 128.999 112.274C 128.574 112.699 128.126 112.699 127.654 112.274C 127.418 112.274 127.276 112.062 127.229 111.637C 127.182 111.26 127.158 110.858 127.158 110.434C 127.158 110.009 127.087 109.277 126.946 108.239C 126.804 107.153 126.733 106.044 126.733 104.911C 126.497 104.014 126.285 102.764 126.096 101.159C 125.955 99.5539 125.884 98.3975 125.884 97.6895C 125.884 97.2646 125.955 96.179 126.096 94.4326C 126.238 92.639 126.309 90.8218 126.309 88.981C 126.309 86.9041 126.403 84.8509 126.592 82.8213C 126.781 80.7445 126.993 79.2576 127.229 78.3608C 127.229 77.464 127.3 76.3076 127.441 74.8916C 127.63 73.4756 127.725 72.2012 127.725 71.0684C 127.725 69.9355 127.725 68.6847 127.725 67.3159C 127.725 65.8999 127.725 64.8379 127.725 64.1299C 127.725 63.2331 127.725 61.8879 127.725 60.0942C 127.725 58.2534 127.725 56.5306 127.725 54.9258C 127.725 53.321 127.795 51.5509 127.937 49.6157C 128.079 47.6333 128.149 46.1937 128.149 45.2969C 128.385 44.4001 128.598 43.3617 128.787 42.1816C 128.975 40.9544 129.07 39.9868 129.07 39.2788C 129.07 38.382 129.141 36.4704 129.282 33.5439C 129.471 30.6175 129.565 27.3135 129.565 23.6318C 129.565 20.1862 129.636 17.1654 129.778 14.5693C 129.919 11.9733 129.99 10.5573 129.99 10.3213ZM 171.267 12.1621C 171.267 11.9261 171.456 11.5249 171.833 10.9585C 172.211 10.3449 172.636 9.80208 173.108 9.33008C 173.344 8.85807 173.651 8.52767 174.028 8.33887C 174.406 8.10286 174.713 7.98486 174.949 7.98486C 175.751 8.26807 176.388 8.40967 176.86 8.40967C 177.332 8.40967 177.875 8.50407 178.489 8.69287C 179.15 8.83447 179.834 8.90527 180.542 8.90527C 181.486 9.14128 182.241 9.42448 182.808 9.75488C 183.374 10.0381 184.011 10.5337 184.719 11.2417C 185.427 11.7137 185.994 12.2093 186.418 12.7285C 186.89 13.2477 187.244 13.5073 187.48 13.5073C 187.48 13.7433 187.787 14.1917 188.401 14.8525C 189.014 15.5133 189.793 16.3158 190.737 17.2598C 192.72 19.0534 194.419 21.3662 195.835 24.1982C 196.307 25.3311 196.732 26.4167 197.109 27.4551C 197.534 28.4463 197.747 29.0599 197.747 29.2959C 197.747 29.5319 197.841 30.0511 198.03 30.8535C 198.219 31.6087 198.431 32.3403 198.667 33.0483C 198.903 33.7563 199.139 34.5824 199.375 35.5264C 199.658 36.4704 200.036 37.1784 200.508 37.6504C 200.744 38.1224 200.956 38.7596 201.145 39.562C 201.334 40.3644 201.428 41.1196 201.428 41.8276C 201.428 42.5356 201.334 43.4797 201.145 44.6597C 201.003 45.7925 200.933 46.7129 200.933 47.4209C 200.697 48.1289 200.555 49.8045 200.508 52.4478C 200.508 55.0438 200.508 57.8522 200.508 60.873C 200.272 63.6579 200.13 66.1595 200.083 68.3779C 200.036 70.5492 200.012 71.7528 200.012 71.9888C 199.729 73.1688 199.587 74.1128 199.587 74.8208C 199.587 75.5288 199.399 76.402 199.021 77.4404C 198.691 78.4316 198.407 79.3993 198.171 80.3433C 197.935 81.2873 197.629 82.3729 197.251 83.6001C 196.921 84.8273 196.755 85.9129 196.755 86.8569C 196.519 87.5649 196.378 88.4854 196.331 89.6182C 196.331 89.8542 196.307 90.1138 196.26 90.397C 196.213 90.633 196.071 90.987 195.835 91.459C 195.835 91.695 195.764 92.0254 195.623 92.4502C 195.481 92.8278 195.41 93.1346 195.41 93.3706C 195.08 95.0226 194.915 96.415 194.915 97.5479C 194.395 99.8135 193.617 101.654 192.578 103.07C 192.106 103.778 191.563 104.534 190.95 105.336C 190.383 106.138 189.864 106.776 189.392 107.248C 188.684 107.956 187.905 108.593 187.056 109.159C 186.584 109.254 186.112 109.56 185.64 110.08C 185.404 110.552 184.79 110.835 183.799 110.929C 182.855 110.976 180.99 111 178.206 111C 175.893 111 174.123 110.976 172.896 110.929C 171.668 110.882 170.819 110.74 170.347 110.504C 170.111 110.268 169.804 110.15 169.426 110.15C 169.049 110.103 168.742 110.08 168.506 110.08C 168.27 110.08 168.034 110.056 167.798 110.009C 167.609 109.962 167.515 109.82 167.515 109.584C 167.09 108.64 167.09 108.168 167.515 108.168C 167.515 107.932 167.68 107.814 168.01 107.814C 168.388 107.767 168.695 107.743 168.931 107.743C 169.167 107.979 169.473 108.144 169.851 108.239C 170.229 108.286 170.535 108.428 170.771 108.664C 171.243 108.9 171.951 109.112 172.896 109.301C 173.84 109.442 175.468 109.395 177.781 109.159C 179.622 109.159 181.085 109.065 182.17 108.876C 183.303 108.64 183.988 108.404 184.224 108.168C 184.696 108.168 185.144 108.003 185.569 107.672C 185.994 107.342 186.324 107.059 186.56 106.823C 187.079 106.398 187.386 106.233 187.48 106.327C 187.716 106.327 188.047 106.068 188.472 105.548C 188.896 104.982 189.345 104.463 189.817 103.991C 190.289 103.283 190.737 102.457 191.162 101.513C 191.587 100.569 191.917 99.8607 192.153 99.3887C 192.153 98.6807 192.224 97.9255 192.366 97.123C 192.507 96.3206 192.578 95.6834 192.578 95.2114C 192.578 94.7394 192.649 94.2202 192.791 93.6538C 192.979 93.0874 193.074 92.6862 193.074 92.4502C 193.074 91.9782 193.168 91.3174 193.357 90.4678C 193.546 89.6182 193.758 88.7214 193.994 87.7773C 193.994 87.0693 194.089 86.1961 194.277 85.1577C 194.466 84.1193 194.679 83.1281 194.915 82.1841C 195.151 81.4761 195.387 80.7445 195.623 79.9893C 195.859 79.234 196.095 78.7384 196.331 78.5024C 196.567 78.0304 196.779 77.228 196.968 76.0952C 197.157 74.9152 197.251 73.8532 197.251 72.9092C 197.487 71.7764 197.699 69.6051 197.888 66.3955C 198.077 63.1859 198.171 59.9526 198.171 56.6958C 198.171 53.439 198.242 50.3237 198.384 47.3501C 198.573 44.3765 198.667 42.5356 198.667 41.8276C 198.667 40.3644 198.195 38.6652 197.251 36.73C 197.015 36.022 196.803 35.1724 196.614 34.1812C 196.425 33.1899 196.331 32.3403 196.331 31.6323C 196.095 31.1603 195.929 30.5467 195.835 29.7915C 195.788 29.0363 195.646 28.4227 195.41 27.9507C 195.174 27.4787 194.749 26.7707 194.136 25.8267C 193.569 24.8354 193.05 23.9858 192.578 23.2778C 192.106 22.3338 191.398 21.3426 190.454 20.3042C 189.557 19.2658 188.873 18.3926 188.401 17.6846C 187.693 17.2126 186.914 16.5754 186.064 15.7729C 185.262 14.9705 184.507 14.2153 183.799 13.5073C 182.477 12.0913 181.085 11.1709 179.622 10.7461C 179.15 10.7461 178.607 10.7461 177.993 10.7461C 177.38 10.7461 176.837 10.7461 176.365 10.7461C 175.657 10.7461 175.138 10.8169 174.807 10.9585C 174.524 11.0529 174.264 11.4541 174.028 12.1621C 174.028 12.3981 173.958 13.3421 173.816 14.9941C 173.674 16.599 173.604 18.4398 173.604 20.5166C 173.604 22.3574 173.509 24.0802 173.32 25.6851C 173.179 27.2427 173.108 28.1395 173.108 28.3755C 173.108 28.6115 173.037 29.9331 172.896 32.3403C 172.754 34.7476 172.683 37.4616 172.683 40.4824C 172.683 43.5033 172.683 46.4061 172.683 49.1909C 172.73 51.9285 172.872 53.6514 173.108 54.3594C 173.108 55.3034 173.179 56.7194 173.32 58.6074C 173.509 60.4482 173.604 62.2891 173.604 64.1299C 173.84 66.4427 173.863 68.3779 173.674 69.9355C 173.533 71.446 173.344 72.9092 173.108 74.3252C 172.872 75.458 172.66 76.756 172.471 78.2192C 172.282 79.6353 172.188 80.8153 172.188 81.7593C 172.188 82.8921 172.093 83.8125 171.904 84.5205C 171.763 85.2285 171.692 85.7005 171.692 85.9365C 171.409 86.3613 171.267 86.8097 171.267 87.2817C 171.267 87.7537 171.173 88.3201 170.984 88.981C 170.842 89.6418 170.771 90.3262 170.771 91.0342C 170.771 91.7422 170.701 92.5446 170.559 93.4414C 170.417 94.291 170.347 95.1878 170.347 96.1318C 170.347 96.8398 170.252 97.5243 170.063 98.1851C 169.922 98.7987 169.851 99.3415 169.851 99.8135C 169.615 100.049 169.473 100.545 169.426 101.3C 169.426 102.008 169.426 102.598 169.426 103.07C 169.662 103.778 169.709 104.368 169.568 104.84C 169.473 105.312 169.426 105.666 169.426 105.902C 169.19 106.138 168.954 106.327 168.718 106.469C 168.482 106.61 168.246 106.563 168.01 106.327C 167.491 106.374 167.184 105.761 167.09 104.486C 166.854 103.778 166.736 103.165 166.736 102.646C 166.736 102.126 166.854 101.513 167.09 100.805C 167.326 100.333 167.538 99.4831 167.727 98.2559C 167.916 97.0286 168.01 95.8486 168.01 94.7158C 168.01 93.583 168.105 92.4266 168.293 91.2466C 168.482 90.0194 168.695 89.1698 168.931 88.6978C 168.931 88.4618 169.001 87.9897 169.143 87.2817C 169.332 86.5265 169.426 85.9129 169.426 85.4409C 169.426 84.9689 169.497 84.3317 169.639 83.5293C 169.78 82.7269 169.851 81.9717 169.851 81.2637C 169.851 80.7917 169.922 80.2725 170.063 79.7061C 170.252 79.1396 170.347 78.7384 170.347 78.5024C 170.347 78.0304 170.417 77.3696 170.559 76.52C 170.701 75.6704 170.771 74.7736 170.771 73.8296C 171.007 73.1216 171.149 71.8944 171.196 70.1479C 171.243 68.3543 171.267 66.6551 171.267 65.0503C 171.267 63.4455 171.173 61.6283 170.984 59.5986C 170.842 57.5218 170.771 55.7754 170.771 54.3594C 170.771 52.9434 170.701 51.4093 170.559 49.7573C 170.417 48.1053 170.347 46.7129 170.347 45.5801C 170.111 44.4473 169.993 43.1729 169.993 41.7568C 169.993 40.2936 170.111 39.09 170.347 38.146C 170.819 36.1636 170.819 34.4644 170.347 33.0483C 170.347 32.5763 170.347 31.9391 170.347 31.1367C 170.347 30.9007 170.417 29.9803 170.559 28.3755C 170.701 26.7235 170.771 24.859 170.771 22.7822C 170.771 20.4694 170.842 18.487 170.984 16.835C 171.173 15.1829 171.267 14.2389 171.267 14.0029C 171.267 13.7669 171.267 13.4601 171.267 13.0825C 171.267 12.7049 171.267 12.3981 171.267 12.1621ZM 221.96 8.83447C 222.48 8.83447 222.952 8.83447 223.376 8.83447C 223.612 8.59847 223.919 8.45687 224.297 8.40967C 224.674 8.36247 224.981 8.33887 225.217 8.33887C 225.453 8.33887 225.996 8.55127 226.846 8.97607C 227.695 9.35368 228.592 9.77848 229.536 10.2505C 230.48 10.9585 231.471 11.6429 232.51 12.3037C 233.548 12.9645 234.303 13.5309 234.775 14.0029C 235.247 14.4749 235.79 14.9705 236.404 15.4897C 237.017 15.9618 237.56 16.4338 238.032 16.9058C 238.504 17.3778 239.141 18.2274 239.944 19.4546C 240.746 20.6818 241.383 21.8854 241.855 23.0654C 242.563 24.2454 243.224 25.5671 243.838 27.0303C 244.499 28.4935 244.947 29.6971 245.183 30.6411C 245.419 31.5851 245.632 32.4819 245.82 33.3315C 246.009 34.1812 246.104 34.724 246.104 34.96C 246.434 39.0664 246.599 42.5356 246.599 45.3677C 246.599 48.1997 246.67 50.9609 246.812 53.6514C 247 56.3418 247.095 58.159 247.095 59.103C 247.331 59.811 247.472 61.0854 247.52 62.9263C 247.567 64.7671 247.59 66.5135 247.59 68.1655C 247.59 69.8175 247.496 71.4696 247.307 73.1216C 247.166 74.7264 247.095 75.7648 247.095 76.2368C 247.095 76.7088 247 77.4404 246.812 78.4316C 246.67 79.4229 246.599 80.2725 246.599 80.9805C 246.599 81.6885 246.505 82.6325 246.316 83.8125C 246.174 84.9925 246.104 85.9365 246.104 86.6445C 245.868 87.3525 245.655 88.1313 245.466 88.981C 245.278 89.8306 245.183 90.4914 245.183 90.9634C 245.183 91.4354 245.089 92.0962 244.9 92.9458C 244.711 93.7482 244.499 94.5034 244.263 95.2114C 243.791 95.9194 243.389 96.7926 243.059 97.8311C 242.729 98.8695 242.327 99.7427 241.855 100.451C 241.383 101.631 240.935 102.598 240.51 103.354C 240.133 104.109 239.472 104.722 238.528 105.194C 238.056 105.902 237.324 106.587 236.333 107.248C 235.342 107.861 234.492 108.286 233.784 108.522C 233.076 108.994 232.274 109.442 231.377 109.867C 230.527 110.292 229.749 110.622 229.041 110.858C 228.097 111.047 227.389 111.142 226.917 111.142C 226.444 111.142 225.736 111.047 224.792 110.858C 224.32 110.858 223.66 110.788 222.81 110.646C 221.96 110.504 221.182 110.434 220.474 110.434C 220.002 110.198 219.388 109.962 218.633 109.726C 217.878 109.49 217.382 109.254 217.146 109.018C 216.249 108.451 215.305 107.649 214.314 106.61C 213.842 106.138 213.276 105.383 212.615 104.345C 212.001 103.259 211.458 102.126 210.986 100.946L 209.075 97.123L 207.8 84.3789C 207.8 82.4909 207.847 80.6265 207.942 78.7856C 208.083 76.9448 208.249 75.2928 208.438 73.8296C 208.626 72.3192 208.815 71.0684 209.004 70.0771C 209.24 69.0859 209.429 68.4487 209.57 68.1655C 209.57 67.6935 209.736 66.8911 210.066 65.7583C 210.066 65.5223 210.231 64.9087 210.562 63.9175C 210.939 62.9263 211.246 61.9587 211.482 61.0146C 211.718 59.8346 212.001 58.513 212.332 57.0498C 212.709 55.5866 212.898 54.383 212.898 53.439C 212.898 52.495 212.969 51.4093 213.11 50.1821C 213.299 48.9549 213.394 47.9873 213.394 47.2793C 213.394 46.5713 213.464 45.7217 213.606 44.7305C 213.795 43.7393 213.889 43.0076 213.889 42.5356C 213.889 42.0636 213.96 41.3084 214.102 40.27C 214.243 39.2316 214.314 38.2404 214.314 37.2964C 214.314 36.5884 214.385 35.7388 214.526 34.7476C 214.715 33.7563 214.81 33.0247 214.81 32.5527C 214.904 30.9951 215.211 29.7207 215.73 28.7295C 215.73 28.4935 215.801 27.9979 215.942 27.2427C 216.131 26.4403 216.226 25.6851 216.226 24.9771C 216.226 24.269 216.296 23.3014 216.438 22.0742C 216.627 20.847 216.721 19.7614 216.721 18.8174C 216.957 17.4014 217.17 16.4102 217.358 15.8438C 217.547 15.2773 218.114 14.5221 219.058 13.5781C 219.53 13.1061 219.954 12.5633 220.332 11.9497C 220.757 11.2889 220.969 10.7225 220.969 10.2505C 220.969 9.77848 221.016 9.42448 221.111 9.18848C 221.205 8.95247 221.488 8.83447 221.96 8.83447ZM 233.784 15.9146C 233.312 15.2065 232.581 14.5221 231.589 13.8613C 230.598 13.2005 229.749 12.6341 229.041 12.1621C 228.333 11.9261 227.648 11.7137 226.987 11.5249C 226.374 11.2889 225.949 11.1709 225.713 11.1709C 224.627 11.6429 223.848 12.1149 223.376 12.5869C 221.913 13.6253 220.946 14.4277 220.474 14.9941C 220.238 15.2301 220.025 15.6549 219.836 16.2686C 219.648 16.835 219.553 17.3542 219.553 17.8262C 219.553 18.0622 219.459 18.5578 219.27 19.313C 219.128 20.0682 219.058 20.6818 219.058 21.1538C 219.058 21.6258 218.987 22.1922 218.845 22.853C 218.704 23.4666 218.633 24.0094 218.633 24.4814C 218.633 24.9535 218.538 25.5199 218.35 26.1807C 218.208 26.7943 218.137 27.3371 218.137 27.8091C 218.137 28.2811 218.043 28.8239 217.854 29.4375C 217.712 30.0039 217.642 30.4051 217.642 30.6411C 217.311 31.6795 217.146 32.3167 217.146 32.5527C 217.146 33.0247 217.075 33.5675 216.934 34.1812C 216.792 34.7476 216.721 35.1488 216.721 35.3848C 216.721 35.8568 216.627 36.5176 216.438 37.3672C 216.296 38.2168 216.226 38.9956 216.226 39.7036C 216.226 40.4116 216.131 41.6624 215.942 43.4561C 215.801 45.2025 215.73 46.7837 215.73 48.1997C 215.73 49.8517 215.659 51.4093 215.518 52.8726C 215.376 54.2886 215.305 55.1146 215.305 55.3506C 215.305 55.5866 215.187 56.035 214.951 56.6958C 214.762 57.3094 214.55 57.9702 214.314 58.6782C 214.078 59.3862 213.818 60.3774 213.535 61.6519C 213.252 62.9263 212.874 64.1535 212.402 65.3335C 212.119 66.3247 211.86 67.2215 211.624 68.0239C 211.388 68.8263 211.175 69.8411 210.986 71.0684C 210.798 72.2956 210.632 73.8532 210.491 75.7412C 210.396 77.582 210.349 80.0365 210.349 83.1045L 211.482 96.6274L 212.898 99.4595C 213.134 100.167 213.417 100.923 213.748 101.725C 214.125 102.528 214.314 103.047 214.314 103.283C 214.314 103.519 214.503 103.873 214.88 104.345C 215.305 104.77 215.754 105.218 216.226 105.69C 216.698 105.926 217.17 106.233 217.642 106.61C 218.114 106.988 218.586 107.295 219.058 107.531C 219.53 107.767 220.214 108.003 221.111 108.239C 222.055 108.428 223.117 108.522 224.297 108.522C 225.477 108.758 226.492 108.805 227.341 108.664C 228.191 108.475 229.088 108.262 230.032 108.026C 230.504 107.79 231.235 107.46 232.227 107.035C 233.218 106.61 234.067 106.162 234.775 105.69C 235.483 105.454 236.073 105.147 236.545 104.77C 237.017 104.345 237.371 104.014 237.607 103.778C 237.843 103.542 238.197 102.905 238.669 101.867C 239.141 100.828 239.731 99.7191 240.439 98.5391C 241.147 97.359 241.737 96.1082 242.209 94.7866C 242.681 93.4178 243.035 92.6154 243.271 92.3794C 243.271 91.9074 243.366 91.2466 243.555 90.397C 243.791 89.5474 244.027 88.7686 244.263 88.0605C 244.263 87.3525 244.333 86.4557 244.475 85.3701C 244.617 84.2373 244.688 83.0809 244.688 81.9009C 244.688 80.9569 244.758 79.7533 244.9 78.29C 245.089 76.8268 245.183 75.5052 245.183 74.3252C 245.419 73.3812 245.561 71.918 245.608 69.9355C 245.655 67.9531 245.679 66.2539 245.679 64.8379C 245.443 63.1859 245.301 61.4631 245.254 59.6694C 245.207 57.8286 245.183 56.5542 245.183 55.8462C 245.23 53.911 245.065 52.9434 244.688 52.9434C 244.688 49.5449 244.688 46.5477 244.688 43.9517C 244.593 37.7684 244.286 33.9688 243.767 32.5527C 243.531 31.6087 243.177 30.4759 242.705 29.1543C 242.233 27.7855 241.643 26.3931 240.935 24.9771C 240.227 23.797 239.543 22.6642 238.882 21.5786C 238.268 20.493 237.843 19.7142 237.607 19.2422C 237.371 19.0062 236.852 18.5814 236.05 17.9678C 235.247 17.307 234.492 16.6226 233.784 15.9146ZM 253.892 13.4365C 253.892 12.5397 254.01 11.6901 254.246 10.8877C 254.529 10.0381 254.812 9.47168 255.095 9.18848C 255.095 8.90527 255.213 8.64567 255.449 8.40967C 255.732 8.12646 256.016 7.98486 256.299 7.98486C 256.724 8.50407 256.936 8.90527 256.936 9.18848C 257.219 9.18848 257.526 9.68408 257.856 10.6753C 258.234 11.6665 258.73 12.7757 259.343 14.0029C 259.626 15.5133 260.028 17.0002 260.547 18.4634C 261.066 19.8794 261.467 21.0358 261.75 21.9326C 262.034 22.8294 262.34 23.9386 262.671 25.2603C 263.001 26.5819 263.308 27.6911 263.591 28.5879C 263.875 29.8151 264.158 31.2547 264.441 32.9067C 264.771 34.5588 265.078 36.14 265.361 37.6504C 265.975 38.8776 266.471 40.2464 266.848 41.7568C 267.226 43.2673 267.556 44.3293 267.839 44.9429C 268.123 45.8397 268.406 46.8545 268.689 47.9873C 269.019 49.0729 269.326 50.0641 269.609 50.9609C 269.893 51.8577 270.152 52.849 270.388 53.9346C 270.671 54.973 270.813 55.799 270.813 56.4126C 270.813 56.6958 270.907 57.2386 271.096 58.041C 271.332 58.7962 271.45 59.4806 271.45 60.0942C 271.45 60.3774 271.545 61.2979 271.733 62.8555C 271.969 64.4131 272.087 66.1123 272.087 67.9531C 272.087 69.7939 272.182 71.8944 272.371 74.2544C 272.559 76.6144 272.654 78.5496 272.654 80.0601C 272.654 81.5705 272.772 82.9865 273.008 84.3081C 273.291 85.6297 273.574 86.4321 273.857 86.7153C 273.857 86.9985 273.952 87.3289 274.141 87.7065C 274.377 88.0841 274.495 88.5798 274.495 89.1934C 274.495 89.4766 274.518 89.9958 274.565 90.751C 274.613 91.5062 274.778 92.1906 275.061 92.8042C 275.344 93.4178 275.604 94.1022 275.84 94.8574C 276.123 95.6126 276.265 96.1318 276.265 96.415C 276.265 97.0286 276.288 97.5951 276.335 98.1143C 276.43 98.6335 276.619 98.8931 276.902 98.8931C 276.902 98.9403 276.902 97.5243 276.902 94.645C 276.902 93.1346 277.02 91.695 277.256 90.3262C 277.539 88.9574 277.822 87.9661 278.105 87.3525C 278.389 86.7389 278.554 86.0073 278.601 85.1577C 278.695 84.2609 278.743 83.3641 278.743 82.4673C 279.026 81.8537 279.215 81.1693 279.309 80.4141C 279.451 79.6589 279.663 79.1396 279.946 78.8564C 280.229 78.2428 280.489 77.4168 280.725 76.3784C 281.008 75.2928 281.15 74.3016 281.15 73.4048C 281.433 72.508 281.74 71.4224 282.07 70.1479C 282.401 68.8735 282.708 67.9295 282.991 67.3159C 283.746 65.4751 284.147 64.2715 284.194 63.7051C 284.1 63.7051 284.289 63.0915 284.761 61.8643C 285.044 61.2507 285.304 60.401 285.54 59.3154C 285.823 58.2298 285.964 57.0734 285.964 55.8462C 285.964 54.619 286.2 53.3682 286.672 52.0938C 287.144 50.7721 287.522 49.8045 287.805 49.1909C 287.947 48.7661 288.159 47.7749 288.442 46.2173C 288.726 44.6597 289.009 42.984 289.292 41.1904C 289.575 39.3496 289.835 37.6268 290.071 36.022C 290.354 34.37 290.496 33.2371 290.496 32.6235C 290.496 31.3963 290.614 30.1455 290.85 28.8711C 291.133 27.5495 291.416 26.5819 291.699 25.9683C 291.982 25.3547 292.148 24.7646 292.195 24.1982C 292.289 23.6318 292.336 23.207 292.336 22.9238C 292.431 21.4134 292.62 20.2098 292.903 19.313C 293.186 18.0858 293.469 17.0474 293.752 16.1978C 294.036 15.3009 294.177 14.7109 294.177 14.4277C 294.177 13.0589 294.177 12.0441 294.177 11.3833C 294.177 11.1001 294.295 10.8169 294.531 10.5337C 294.814 10.2033 295.098 9.89648 295.381 9.61328C 295.664 9.33008 295.971 9.16488 296.301 9.11768C 296.679 9.02327 297.174 8.97607 297.788 8.97607C 298.402 9.25928 298.803 9.68408 298.992 10.2505C 299.181 10.8169 299.582 12.0205 300.195 13.8613C 300.479 15.0885 300.738 16.3866 300.974 17.7554C 301.257 19.077 301.399 20.1862 301.399 21.083C 301.399 21.9798 301.493 23.2306 301.682 24.8354C 301.918 26.3931 302.036 27.7855 302.036 29.0127C 302.178 29.6263 302.201 30.9951 302.107 33.1191C 302.013 35.2432 301.895 37.6032 301.753 40.1992C 301.611 42.7952 301.47 45.3677 301.328 47.9165C 301.187 50.4653 301.116 52.495 301.116 54.0054C 301.116 57.9702 300.974 61.2271 300.691 63.7759C 300.455 66.2775 300.195 68.2835 299.912 69.7939C 299.629 71.0212 299.346 72.5788 299.062 74.4668C 298.826 76.3076 298.708 77.9832 298.708 79.4937C 298.708 80.7209 298.614 83.0101 298.425 86.3613C 298.236 89.7126 298.142 93.0638 298.142 96.415C 298.142 99.7663 298.024 102.764 297.788 105.407C 297.599 108.05 297.505 109.513 297.505 109.796C 297.505 110.08 297.104 110.481 296.301 111C 295.688 111 295.286 110.882 295.098 110.646C 294.956 110.363 294.744 110.08 294.46 109.796C 294.46 109.183 294.484 108.475 294.531 107.672C 294.626 106.87 294.814 106.162 295.098 105.548C 295.098 104.935 295.098 103.731 295.098 101.938C 295.098 100.097 295.098 98.2559 295.098 96.415C 295.098 94.291 295.121 91.8838 295.168 89.1934C 295.216 86.4557 295.381 84.0249 295.664 81.9009C 295.664 79.7769 295.758 77.9124 295.947 76.3076C 296.183 74.6556 296.301 73.688 296.301 73.4048C 296.301 72.7912 296.419 71.9416 296.655 70.856C 296.938 69.7231 297.222 68.5431 297.505 67.3159C 297.788 65.4751 297.953 63.2095 298 60.519C 298.095 57.7814 298.142 54.0054 298.142 49.1909C 298.142 47.5389 298.166 45.3205 298.213 42.5356C 298.307 39.7508 298.402 36.9424 298.496 34.1104C 298.638 31.2311 298.756 28.5879 298.85 26.1807C 298.944 23.7262 298.992 22.027 298.992 21.083C 298.708 19.5726 298.425 18.1566 298.142 16.835C 297.906 15.5133 297.788 14.7109 297.788 14.4277C 297.505 14.1445 297.292 14.1681 297.151 14.4985C 297.056 14.7817 296.868 15.3717 296.584 16.2686C 296.584 16.5518 296.348 17.7082 295.876 19.7378C 295.404 21.7674 295.027 23.8442 294.744 25.9683C 294.602 27.0539 294.342 28.6587 293.965 30.7827C 293.587 32.9067 293.186 35.078 292.761 37.2964C 292.336 39.5148 291.935 41.5444 291.558 43.3853C 291.227 45.1789 290.991 46.2881 290.85 46.7129C 290.566 47.9401 290.26 49.3561 289.929 50.9609C 289.599 52.5186 289.292 53.7458 289.009 54.6426C 289.009 55.5394 288.773 56.9082 288.301 58.749C 287.876 60.5426 287.522 62.1947 287.239 63.7051C 286.625 65.5459 286.059 67.1743 285.54 68.5903C 285.02 69.9591 284.761 70.9504 284.761 71.564C 284.761 72.1776 284.666 72.7912 284.478 73.4048C 284.289 74.0184 284.194 74.632 284.194 75.2456C 283.911 75.5288 283.699 76.1188 283.557 77.0156C 283.463 77.582 283.274 78.0068 282.991 78.29C 282.708 78.9036 282.424 79.6117 282.141 80.4141C 281.858 81.1693 281.716 81.8537 281.716 82.4673C 281.716 83.0809 281.693 83.7889 281.646 84.5913C 281.598 85.3937 281.433 86.1017 281.15 86.7153C 280.867 87.6121 280.678 88.4854 280.583 89.335C 280.536 90.1374 280.513 90.6802 280.513 90.9634C 280.513 91.2466 280.418 91.931 280.229 93.0166C 280.041 94.055 279.946 95.1878 279.946 96.415C 279.946 97.6423 279.828 98.8223 279.592 99.9551C 279.403 101.041 279.309 101.89 279.309 102.504C 279.026 102.787 278.837 103.401 278.743 104.345C 278.743 104.817 278.743 105.006 278.743 104.911C 278.176 105.006 277.563 105.407 276.902 106.115C 276.335 106.681 275.722 106.681 275.061 106.115C 274.778 106.115 274.589 105.926 274.495 105.548C 274.353 104.604 274.141 103.991 273.857 103.708C 273.857 103.094 273.621 102.008 273.149 100.451C 272.725 98.8931 272.371 97.359 272.087 95.8486C 271.804 94.3382 271.521 92.8278 271.238 91.3174C 270.955 89.7598 270.813 88.8394 270.813 88.5562C 270.813 88.2729 270.624 87.8717 270.247 87.3525C 270.247 87.0693 270.129 86.3613 269.893 85.2285C 269.704 84.0957 269.609 82.7741 269.609 81.2637C 269.609 79.7533 269.515 77.818 269.326 75.458C 269.137 73.098 269.043 70.9976 269.043 69.1567C 269.043 67.3159 268.925 65.6167 268.689 64.0591C 268.5 62.5015 268.406 61.5811 268.406 61.2979C 268.406 60.6842 268.311 59.9998 268.123 59.2446C 267.934 58.4894 267.839 57.9702 267.839 57.687C 267.839 57.0734 267.721 56.2238 267.485 55.1382C 267.297 54.0526 267.202 53.0614 267.202 52.1646C 266.919 51.2677 266.612 50.1585 266.282 48.8369C 265.951 47.5153 265.645 46.4061 265.361 45.5093C 265.078 44.6125 264.795 43.7629 264.512 42.9604C 264.276 42.1108 264.158 41.5444 264.158 41.2612C 263.875 41.2612 263.544 40.624 263.167 39.3496C 262.836 38.028 262.364 36.4468 261.75 34.606C 261.467 32.7651 261.066 30.9243 260.547 29.0835C 260.028 27.1955 259.626 25.8031 259.343 24.9062C 259.343 24.0094 259.107 22.9002 258.635 21.5786C 258.163 20.257 257.786 19.1478 257.502 18.251C 257.502 17.6374 257.314 16.6226 256.936 15.2065C 256.653 15.2065 256.464 15.4425 256.37 15.9146C 256.322 16.3866 256.299 16.7642 256.299 17.0474C 256.299 17.3306 256.181 18.133 255.945 19.4546C 255.756 20.7762 255.662 22.1922 255.662 23.7026C 255.662 24.9299 255.662 27.2663 255.662 30.7119C 255.662 34.1104 255.662 37.6268 255.662 41.2612C 255.662 44.8957 255.662 48.0581 255.662 50.7485C 255.662 53.439 255.662 54.9258 255.662 55.209C 255.52 57.4746 255.402 59.5514 255.308 61.4395C 255.26 63.3275 255.213 65.5223 255.166 68.0239C 255.119 70.5256 255.095 73.1216 255.095 75.812C 255.095 78.6912 255.024 81.7121 254.883 84.8745C 254.788 87.9897 254.67 90.8926 254.529 93.583C 254.387 96.2734 254.246 98.5627 254.104 100.451C 254.01 102.339 253.962 103.424 253.962 103.708C 253.679 104.321 253.514 105.006 253.467 105.761C 253.42 106.516 253.396 107.035 253.396 107.318C 253.396 107.932 253.278 108.64 253.042 109.442C 252.853 110.198 252.759 110.717 252.759 111C 252.476 111.283 251.886 111.472 250.989 111.566C 250.706 111.566 250.446 111.378 250.21 111C 250.021 110.575 250.068 109.749 250.352 108.522C 250.352 107.625 250.446 106.752 250.635 105.902C 250.871 105.053 250.989 104.321 250.989 103.708C 250.989 103.566 251.036 102.457 251.13 100.38C 251.225 98.2559 251.343 95.589 251.484 92.3794C 251.626 89.1226 251.744 85.5589 251.838 81.6885C 251.98 77.818 252.051 74.042 252.051 70.3604C 252.051 66.7259 252.074 62.9971 252.122 59.1738C 252.169 55.3034 252.216 51.5981 252.263 48.0581C 252.358 44.5181 252.452 41.3084 252.546 38.4292C 252.641 35.55 252.688 33.2607 252.688 31.5615C 252.688 28.2103 252.782 25.2131 252.971 22.5698C 253.16 19.9266 253.254 18.2982 253.254 17.6846C 253.254 17.4014 253.349 16.8586 253.538 16.0562C 253.774 15.2065 253.892 14.3333 253.892 13.4365Z"/>
<path id="path6_fill" d="M 0 0L 18.2771 0L 18.2771 99.5087L 0 99.5087L 0 0Z"/>
<path id="path7_fill" d="M 12.6782 76.3435L 0 98.8933L 1.32509 100.217L 2.64713 101.539L 25.198 88.8623L 27.5517 91.217L 101.539 17.2292C 101.477 16.7652 101.377 16.2077 101.23 15.5792C 100.629 13.0031 99.198 9.24009 95.7487 5.7908C 92.3004 2.3415 88.5373 0.909794 85.9613 0.310711C 85.3327 0.164494 84.7753 0.0639699 84.3113 0L 10.3245 73.9867L 12.6782 76.3435ZM 83.9569 6.09846C 85.5714 6.37972 88.6165 7.27124 91.4434 10.0981C 94.2753 12.93 95.1638 15.9803 95.443 17.5826L 88.117 24.9097C 87.2589 22.7621 85.8597 20.3089 83.5457 17.9948C 81.2316 15.6818 78.7784 14.2825 76.6308 13.4235L 83.9569 6.09846ZM 67.4456 22.6098C 69.059 22.8911 72.1052 23.7826 74.931 26.6084C 77.764 29.4414 78.6525 32.4906 78.9337 34.0929L 75.0316 37.995C 71.501 37.928 65.0208 41.7957 58.9041 47.9124C 52.7904 54.0281 48.9207 60.5094 48.9877 64.0369L 45.0439 67.9807C 44.1859 65.8341 42.7857 63.3799 40.4726 61.0658C 38.1595 58.7517 35.7053 57.3535 33.5578 56.4945L 67.4456 22.6098ZM 24.3745 65.6818C 25.988 65.9631 29.0342 66.8546 31.86 69.6815C 34.692 72.5134 35.5815 75.5636 35.8617 77.1649L 29.2525 83.7741C 28.3935 81.6266 26.9943 79.1734 24.6812 76.8583C 22.3681 74.5462 19.9139 73.146 17.7664 72.288L 24.3745 65.6818Z"/>
</defs>
</svg>
