<svg width="201" height="200" viewBox="0 0 201 200" version="1.1" xmlns="http://www.w3.org/2000/svg" xmlns:xlink="http://www.w3.org/1999/xlink" xmlns:figma="http://www.figma.com/figma/ns">
<title>Main Logo</title>
<desc>Created using Figma</desc>
<g id="Canvas" transform="translate(-727 261)" figma:type="canvas">
<g id="Main Logo" style="mix-blend-mode:normal;" figma:type="frame">
<g id="Circle" style="mix-blend-mode:normal;" figma:type="frame">
<g id="Subtract" style="mix-blend-mode:normal;" figma:type="vector-operation">
<use xlink:href="#path0_fill" transform="translate(727.005 -261)" fill="#F9D873" style="mix-blend-mode:normal;"/>
</g>
<g id="Subtract" style="mix-blend-mode:normal;" figma:type="vector-operation">
<use xlink:href="#path1_fill" transform="translate(727.005 -261)" fill="#F2C94C" style="mix-blend-mode:normal;"/>
</g>
</g>
<g id="C" style="mix-blend-mode:normal;" figma:type="text">
<use xlink:href="#path2_fill" transform="translate(827.005 -187.62)" style="mix-blend-mode:normal;"/>
</g>
<g id="F" style="mix-blend-mode:normal;" figma:type="text">
<use xlink:href="#path3_fill" transform="translate(783.005 -242)" style="mix-blend-mode:normal;"/>
</g>
</g>
</g>
<defs>
<path id="path0_fill" d="M 200 100C 200 155.228 155.228 200 100 200C 44.7715 200 0 155.228 0 100C 0 44.7715 44.7715 0 100 0C 155.228 0 200 44.7715 200 100Z"/>
<path id="path1_fill" fill-rule="evenodd" d="M 160.411 161.754C 160.44 161.751 160.47 161.75 160.5 161.75C 162.975 161.75 164.72 163.341 166.026 165.325C 167.273 167.229 168.279 169.724 169.239 172.152C 182.951 158.991 192.918 141.959 197.386 122.813C 196.939 121.846 196.469 120.952 195.955 120.175C 194.793 118.409 193.575 117.5 192.1 117.5C 190.625 117.5 189.407 118.409 188.245 120.175C 187.076 121.94 186.14 124.311 185.165 126.779L 185.165 126.78L 185.13 126.867C 184.143 129.367 183.112 131.961 181.826 133.925C 180.52 135.909 178.775 137.5 176.3 137.5C 176.229 137.5 176.159 137.499 176.089 137.496C 176.06 137.499 176.03 137.5 176 137.5C 173.525 137.5 171.78 135.909 170.474 133.925C 169.188 131.961 168.157 129.367 167.17 126.867L 167.135 126.78C 166.16 124.311 165.224 121.94 164.055 120.175C 162.893 118.409 161.675 117.5 160.2 117.5C 158.725 117.5 157.507 118.409 156.345 120.175C 155.176 121.94 154.24 124.311 153.265 126.779L 153.265 126.78L 153.23 126.867C 152.243 129.367 151.212 131.961 149.926 133.925C 148.62 135.909 146.875 137.5 144.4 137.5C 141.925 137.5 140.18 135.909 138.874 133.925C 137.588 131.961 136.557 129.367 135.57 126.867L 135.535 126.78L 135.535 126.779L 135.535 126.778L 135.535 126.778C 134.56 124.31 133.624 121.94 132.455 120.175C 131.293 118.409 130.075 117.5 128.6 117.5C 127.125 117.5 125.907 118.409 124.745 120.175C 123.576 121.94 122.64 124.311 121.665 126.779L 121.665 126.78L 121.63 126.867C 120.643 129.367 119.612 131.961 118.326 133.925C 117.081 135.815 115.439 137.349 113.145 137.49C 113.098 137.496 113.049 137.5 113 137.5C 112.966 137.5 112.933 137.5 112.9 137.499C 112.867 137.5 112.833 137.5 112.8 137.5C 110.325 137.5 108.58 135.909 107.274 133.925C 105.988 131.961 104.957 129.367 103.97 126.867L 103.935 126.78C 102.96 124.311 102.024 121.94 100.855 120.175C 99.7191 118.449 98.53 117.542 97.1 117.501C 95.67 117.542 94.4808 118.449 93.3446 120.175C 92.1763 121.94 91.2399 124.311 90.265 126.779L 90.2646 126.78L 90.2301 126.867C 89.2426 129.367 88.2123 131.961 86.9259 133.925C 85.6198 135.909 83.8752 137.5 81.4 137.5C 78.9247 137.5 77.1803 135.909 75.8741 133.925C 74.5876 131.961 73.5574 129.367 72.5699 126.867L 72.5353 126.78L 72.535 126.779L 72.5347 126.778L 72.5345 126.778C 71.5598 124.31 70.6235 121.94 69.4554 120.175C 68.2928 118.409 67.0748 117.5 65.6 117.5C 64.1252 117.5 62.9072 118.409 61.7446 120.175C 60.5763 121.94 59.6399 124.311 58.665 126.779L 58.6647 126.78L 58.6301 126.867C 57.6426 129.367 56.6124 131.961 55.3259 133.925C 54.0813 135.815 52.4388 137.349 50.1454 137.49C 50.0979 137.496 50.0494 137.5 50 137.5C 49.9665 137.5 49.9332 137.5 49.9 137.499C 49.8668 137.5 49.8335 137.5 49.8 137.5C 47.3248 137.5 45.5803 135.909 44.2741 133.925C 42.9876 131.961 41.9574 129.367 40.9699 126.867L 40.9354 126.78C 39.9603 124.311 39.0238 121.94 37.8553 120.175C 36.7191 118.449 35.53 117.542 34.1 117.501C 32.67 117.542 31.4808 118.449 30.3446 120.175C 29.1763 121.94 28.2399 124.311 27.265 126.779L 27.2646 126.78L 27.2301 126.867C 26.2426 129.367 25.2123 131.961 23.9259 133.925C 22.6198 135.909 20.8752 137.5 18.4 137.5C 15.9247 137.5 14.1803 135.909 12.8741 133.925C 11.5876 131.961 10.5574 129.367 9.56995 126.867L 9.53534 126.78L 9.53497 126.779L 9.53473 126.778L 9.53455 126.778C 8.55975 124.31 7.62354 121.94 6.45538 120.175C 5.29279 118.409 4.07477 117.5 2.59998 117.5C 2.23718 117.5 1.88995 117.555 1.55524 117.664C 5.0174 137.089 14.0883 154.573 27.0333 168.381C 27.5395 167.275 28.0795 166.233 28.6741 165.325C 29.9187 163.435 31.5611 161.901 33.8546 161.76C 33.902 161.754 33.9506 161.75 34 161.75C 34.0335 161.75 34.0668 161.75 34.1 161.751C 34.1332 161.75 34.1665 161.75 34.2 161.75C 36.6752 161.75 38.4197 163.341 39.7259 165.325C 41.0123 167.289 42.0426 169.883 43.0301 172.383L 43.0647 172.47C 44.0397 174.939 44.9762 177.31 46.1447 179.075C 47.2809 180.801 48.4701 181.708 49.9 181.749C 51.33 181.708 52.5192 180.801 53.6554 179.075C 54.8238 177.31 55.7603 174.939 56.7354 172.47L 56.7699 172.383C 57.7574 169.883 58.7877 167.289 60.0741 165.325C 61.3802 163.341 63.1248 161.75 65.6 161.75C 68.0753 161.75 69.8197 163.341 71.1259 165.325C 72.4124 167.289 73.4426 169.883 74.4301 172.383L 74.4647 172.47L 74.465 172.471C 75.4399 174.939 76.3763 177.31 77.5446 179.075C 78.7072 180.841 79.9252 181.75 81.4 181.75C 82.8748 181.75 84.0928 180.841 85.2554 179.075C 86.4237 177.31 87.3601 174.939 88.335 172.471L 88.3353 172.47L 88.3699 172.383C 89.3574 169.883 90.3876 167.289 91.6741 165.325C 92.9187 163.435 94.5611 161.901 96.8546 161.76C 96.902 161.754 96.9506 161.75 97 161.75C 97.0335 161.75 97.0668 161.75 97.1 161.751C 97.1332 161.75 97.1665 161.75 97.2 161.75C 99.6752 161.75 101.42 163.341 102.726 165.325C 104.012 167.289 105.043 169.883 106.03 172.383L 106.065 172.47C 107.04 174.939 107.976 177.31 109.145 179.075C 110.281 180.801 111.47 181.708 112.9 181.749C 114.33 181.708 115.519 180.801 116.655 179.075C 117.824 177.31 118.76 174.939 119.735 172.47L 119.77 172.383C 120.757 169.883 121.788 167.289 123.074 165.325C 124.38 163.341 126.125 161.75 128.6 161.75C 131.075 161.75 132.82 163.341 134.126 165.325C 135.412 167.289 136.443 169.883 137.43 172.383L 137.465 172.47L 137.465 172.471C 138.44 174.939 139.376 177.31 140.545 179.075C 141.707 180.841 142.925 181.75 144.4 181.75C 145.875 181.75 147.093 180.841 148.255 179.075C 149.424 177.31 150.36 174.939 151.335 172.471L 151.335 172.47L 151.37 172.383C 152.357 169.883 153.388 167.289 154.674 165.325C 155.98 163.341 157.725 161.75 160.2 161.75C 160.271 161.75 160.341 161.751 160.411 161.754ZM 50 183.75C 49.9665 183.75 49.9332 183.75 49.9 183.749C 49.8668 183.75 49.8335 183.75 49.8 183.75C 47.3248 183.75 45.5803 182.159 44.2741 180.175C 42.9876 178.211 41.9574 175.617 40.9699 173.117L 40.9354 173.03C 39.9603 170.561 39.0238 168.19 37.8553 166.425C 36.7191 164.699 35.53 163.792 34.1 163.751C 32.67 163.792 31.4808 164.699 30.3446 166.425C 29.6791 167.43 29.0889 168.632 28.5239 169.937C 46.6775 188.487 71.9943 200 100 200C 125.992 200 149.668 190.083 167.451 173.827C 167.357 173.59 167.263 173.353 167.17 173.117L 167.135 173.03C 166.16 170.561 165.224 168.19 164.055 166.425C 162.893 164.659 161.675 163.75 160.2 163.75C 158.725 163.75 157.507 164.659 156.345 166.425C 155.176 168.19 154.24 170.561 153.265 173.029L 153.265 173.03L 153.23 173.117C 152.243 175.617 151.212 178.211 149.926 180.175C 148.62 182.159 146.875 183.75 144.4 183.75C 141.925 183.75 140.18 182.159 138.874 180.175C 137.588 178.211 136.557 175.617 135.57 173.117L 135.535 173.03L 135.535 173.029L 135.535 173.028L 135.535 173.028C 134.56 170.56 133.624 168.19 132.455 166.425C 131.293 164.659 130.075 163.75 128.6 163.75C 127.125 163.75 125.907 164.659 124.745 166.425C 123.576 168.19 122.64 170.56 121.665 173.028L 121.665 173.028L 121.665 173.029L 121.665 173.03L 121.63 173.117C 120.643 175.617 119.612 178.211 118.326 180.175C 117.081 182.065 115.439 183.599 113.145 183.74C 113.098 183.746 113.049 183.75 113 183.75C 112.966 183.75 112.933 183.75 112.9 183.749C 112.867 183.75 112.833 183.75 112.8 183.75C 110.325 183.75 108.58 182.159 107.274 180.175C 105.988 178.211 104.957 175.617 103.97 173.117L 103.935 173.03C 102.96 170.561 102.024 168.19 100.855 166.425C 99.7191 164.699 98.53 163.792 97.1 163.751C 95.67 163.792 94.4808 164.699 93.3446 166.425C 92.1763 168.19 91.2399 170.561 90.265 173.029L 90.2646 173.03L 90.2301 173.117C 89.2426 175.617 88.2123 178.211 86.9259 180.175C 85.6198 182.159 83.8752 183.75 81.4 183.75C 78.9247 183.75 77.1803 182.159 75.8741 180.175C 74.5876 178.211 73.5574 175.617 72.5699 173.117L 72.5353 173.03L 72.535 173.029L 72.5347 173.028L 72.5345 173.028C 71.5598 170.56 70.6235 168.19 69.4554 166.425C 68.2928 164.659 67.0748 163.75 65.6 163.75C 64.1252 163.75 62.9072 164.659 61.7446 166.425C 60.5765 168.19 59.6403 170.56 58.6655 173.028L 58.6653 173.028L 58.665 173.029L 58.6647 173.03L 58.6301 173.117C 57.6426 175.617 56.6124 178.211 55.3259 180.175C 54.0813 182.065 52.4388 183.599 50.1454 183.74C 50.0979 183.746 50.0494 183.75 50 183.75ZM 198.049 119.757C 197.911 119.523 197.77 119.295 197.626 119.075C 196.32 117.091 194.575 115.5 192.1 115.5C 189.625 115.5 187.88 117.091 186.574 119.075C 185.288 121.039 184.257 123.633 183.27 126.133L 183.235 126.22C 182.26 128.689 181.324 131.06 180.155 132.825C 178.993 134.591 177.775 135.5 176.3 135.5C 174.825 135.5 173.607 134.591 172.445 132.825C 171.276 131.06 170.34 128.689 169.365 126.22L 169.33 126.133C 168.343 123.633 167.312 121.039 166.026 119.075C 164.72 117.091 162.975 115.5 160.5 115.5C 160.47 115.5 160.44 115.501 160.411 115.504C 160.341 115.501 160.271 115.5 160.2 115.5C 157.725 115.5 155.98 117.091 154.674 119.075C 153.388 121.039 152.357 123.633 151.37 126.133L 151.335 126.22L 151.335 126.221C 150.36 128.689 149.424 131.06 148.255 132.825C 147.093 134.591 145.875 135.5 144.4 135.5C 142.925 135.5 141.707 134.591 140.545 132.825C 139.376 131.06 138.44 128.69 137.465 126.222L 137.465 126.222L 137.465 126.221L 137.465 126.22L 137.43 126.133C 136.443 123.633 135.412 121.039 134.126 119.075C 132.82 117.091 131.075 115.5 128.6 115.5C 126.125 115.5 124.38 117.091 123.074 119.075C 121.788 121.039 120.757 123.633 119.77 126.133L 119.735 126.22C 118.76 128.689 117.824 131.06 116.655 132.825C 115.519 134.551 114.33 135.458 112.9 135.499C 111.47 135.458 110.281 134.551 109.145 132.825C 107.976 131.06 107.04 128.689 106.065 126.22L 106.03 126.133C 105.043 123.633 104.012 121.039 102.726 119.075C 101.42 117.091 99.6752 115.5 97.2 115.5C 97.1665 115.5 97.1332 115.5 97.1 115.501C 97.0668 115.5 97.0335 115.5 97 115.5C 96.9506 115.5 96.902 115.504 96.8546 115.51C 94.5611 115.651 92.9187 117.185 91.6741 119.075C 90.3876 121.039 89.3574 123.633 88.3699 126.133L 88.3353 126.22L 88.335 126.221C 87.3601 128.689 86.4237 131.06 85.2554 132.825C 84.0928 134.591 82.8748 135.5 81.4 135.5C 79.9252 135.5 78.7072 134.591 77.5446 132.825C 76.3765 131.06 75.4402 128.69 74.4655 126.222L 74.4653 126.222L 74.465 126.221L 74.4647 126.22L 74.4301 126.133C 73.4426 123.633 72.4124 121.039 71.1259 119.075C 69.8197 117.091 68.0753 115.5 65.6 115.5C 63.1248 115.5 61.3802 117.091 60.0741 119.075C 58.7877 121.039 57.7574 123.633 56.7699 126.133L 56.7354 126.22C 55.7603 128.689 54.8238 131.06 53.6554 132.825C 52.5192 134.551 51.33 135.458 49.9 135.499C 48.4701 135.458 47.2809 134.551 46.1447 132.825C 44.9762 131.06 44.0397 128.689 43.0647 126.22L 43.0301 126.133C 42.0426 123.633 41.0123 121.039 39.7259 119.075C 38.4197 117.091 36.6752 115.5 34.2 115.5C 34.1665 115.5 34.1332 115.5 34.1 115.501C 34.0668 115.5 34.0335 115.5 34 115.5C 33.9506 115.5 33.902 115.504 33.8546 115.51C 31.5611 115.651 29.9187 117.185 28.6741 119.075C 27.3876 121.039 26.3574 123.633 25.3699 126.133L 25.3353 126.22L 25.335 126.221C 24.3601 128.689 23.4237 131.06 22.2554 132.825C 21.0928 134.591 19.8748 135.5 18.4 135.5C 16.9252 135.5 15.7072 134.591 14.5446 132.825C 13.3765 131.06 12.4402 128.69 11.4655 126.222L 11.4653 126.222L 11.465 126.221L 11.4647 126.22L 11.4301 126.133C 10.4426 123.633 9.41235 121.039 8.12585 119.075C 6.8197 117.091 5.07526 115.5 2.59998 115.5C 2.11292 115.5 1.65417 115.562 1.2215 115.676C 0.41748 110.569 0 105.333 0 100C 0 90.1329 1.42908 80.5996 4.09155 71.5957C 4.93805 72.0089 5.70813 72.7898 6.45538 73.9249C 7.62354 75.6897 8.55975 78.06 9.53455 80.5278L 9.53473 80.5283L 9.53497 80.5289L 9.53534 80.5298L 9.56995 80.6174C 10.5574 83.1174 11.5876 85.7111 12.8741 87.6749C 14.1803 89.6589 15.9247 91.25 18.4 91.25C 20.8752 91.25 22.6198 89.6589 23.9259 87.6749C 25.2123 85.7111 26.2426 83.1174 27.2301 80.6174L 27.2646 80.5298L 27.265 80.529C 28.2399 78.0607 29.1763 75.69 30.3446 73.9249C 31.4808 72.199 32.67 71.2917 34.1 71.2514C 35.53 71.2917 36.7191 72.199 37.8553 73.9249C 39.0238 75.6902 39.9603 78.0612 40.9354 80.5298L 40.9699 80.6174C 41.9574 83.1174 42.9876 85.7111 44.2741 87.6749C 45.5803 89.6589 47.3248 91.25 49.8 91.25C 49.8335 91.25 49.8668 91.2497 49.9 91.2491C 49.9332 91.2497 49.9665 91.25 50 91.25C 50.0494 91.25 50.0979 91.2464 50.1454 91.2395C 52.4388 91.099 54.0813 89.5653 55.3259 87.6749C 56.6124 85.7111 57.6426 83.1174 58.6301 80.6174L 58.6647 80.5298L 58.665 80.529C 59.6399 78.0607 60.5763 75.69 61.7446 73.9249C 62.9072 72.1589 64.1252 71.25 65.6 71.25C 67.0748 71.25 68.2928 72.1589 69.4554 73.9249C 70.6235 75.6897 71.5598 78.06 72.5345 80.5278L 72.5347 80.5283L 72.535 80.5289L 72.5353 80.5298L 72.5699 80.6174C 73.5574 83.1174 74.5876 85.7111 75.8741 87.6749C 77.1803 89.6589 78.9247 91.25 81.4 91.25C 83.8752 91.25 85.6198 89.6589 86.9259 87.6749C 88.2123 85.7111 89.2426 83.1174 90.2301 80.6174L 90.2646 80.5298L 90.265 80.529C 91.2399 78.0607 92.1763 75.69 93.3446 73.9249C 94.4808 72.199 95.67 71.2917 97.1 71.2514C 98.53 71.2917 99.7191 72.199 100.855 73.9249C 102.024 75.6902 102.96 78.0612 103.935 80.5298L 103.97 80.6174C 104.957 83.1174 105.988 85.7111 107.274 87.6749C 108.58 89.6589 110.325 91.25 112.8 91.25C 112.833 91.25 112.867 91.2497 112.9 91.2491C 112.933 91.2497 112.966 91.25 113 91.25C 113.049 91.25 113.098 91.2464 113.145 91.2395C 115.439 91.099 117.081 89.5653 118.326 87.6749C 119.612 85.7111 120.643 83.1174 121.63 80.6174L 121.665 80.5298L 121.665 80.529C 122.64 78.0607 123.576 75.69 124.745 73.9249C 125.907 72.1589 127.125 71.25 128.6 71.25C 130.075 71.25 131.293 72.1589 132.455 73.9249C 133.624 75.6897 134.56 78.06 135.535 80.5278L 135.535 80.5283L 135.535 80.5289L 135.535 80.5298L 135.57 80.6174C 136.557 83.1174 137.588 85.7111 138.874 87.6749C 140.18 89.6589 141.925 91.25 144.4 91.25C 146.875 91.25 148.62 89.6589 149.926 87.6749C 151.212 85.7111 152.243 83.1174 153.23 80.6174L 153.265 80.5298L 153.265 80.529C 154.24 78.0607 155.176 75.69 156.345 73.9249C 157.507 72.1589 158.725 71.25 160.2 71.25C 161.675 71.25 162.893 72.1589 164.055 73.9249C 165.224 75.6902 166.16 78.0612 167.135 80.5298L 167.17 80.6174C 168.157 83.1174 169.188 85.7111 170.474 87.6749C 171.78 89.6589 173.525 91.25 176 91.25C 176.03 91.25 176.06 91.2487 176.089 91.2461C 176.159 91.2487 176.229 91.25 176.3 91.25C 178.775 91.25 180.52 89.6589 181.826 87.6749C 183.112 85.7111 184.143 83.1174 185.13 80.6174L 185.165 80.5298L 185.165 80.529C 186.14 78.0607 187.076 75.69 188.245 73.9249C 189.407 72.1589 190.625 71.25 192.1 71.25C 193.575 71.25 194.793 72.1589 195.955 73.9249C 196.355 74.5287 196.728 75.2034 197.084 75.9287C 198.989 83.6387 200 91.7013 200 100C 200 106.764 199.328 113.37 198.049 119.757ZM 195.578 70.5011C 194.608 69.7341 193.465 69.25 192.1 69.25C 189.625 69.25 187.88 70.8411 186.574 72.8251C 185.288 74.7889 184.257 77.3826 183.27 79.8826L 183.235 79.9702C 182.26 82.4388 181.324 84.8098 180.155 86.5751C 178.993 88.3411 177.775 89.25 176.3 89.25C 174.825 89.25 173.607 88.3411 172.445 86.5751C 171.276 84.8098 170.34 82.4388 169.365 79.9702L 169.33 79.8826C 168.343 77.3826 167.312 74.7889 166.026 72.8251C 164.72 70.8411 162.975 69.25 160.5 69.25C 160.47 69.25 160.44 69.2513 160.411 69.2539C 160.341 69.2513 160.271 69.25 160.2 69.25C 157.725 69.25 155.98 70.8411 154.674 72.8251C 153.388 74.7889 152.357 77.3826 151.37 79.8826L 151.335 79.9702L 151.335 79.971C 150.36 82.4393 149.424 84.81 148.255 86.5751C 147.093 88.3411 145.875 89.25 144.4 89.25C 142.925 89.25 141.707 88.3411 140.545 86.5751C 139.376 84.8103 138.44 82.44 137.465 79.9722L 137.465 79.9717L 137.465 79.9711L 137.465 79.9702L 137.43 79.8826C 136.443 77.3826 135.412 74.7889 134.126 72.8251C 132.82 70.8411 131.075 69.25 128.6 69.25C 126.125 69.25 124.38 70.8411 123.074 72.8251C 121.788 74.7889 120.757 77.3826 119.77 79.8826L 119.735 79.9702C 118.76 82.4388 117.824 84.8098 116.655 86.5751C 115.519 88.301 114.33 89.2083 112.9 89.2486C 111.47 89.2083 110.281 88.301 109.145 86.5751C 107.976 84.8098 107.04 82.4388 106.065 79.9702L 106.03 79.8826C 105.043 77.3826 104.012 74.7889 102.726 72.8251C 101.42 70.8411 99.6752 69.25 97.2 69.25C 97.1665 69.25 97.1332 69.2503 97.1 69.2509C 97.0668 69.2503 97.0335 69.25 97 69.25C 96.9506 69.25 96.902 69.2536 96.8546 69.2605C 94.5611 69.401 92.9187 70.9347 91.6741 72.8251C 90.3876 74.7889 89.3574 77.3826 88.3699 79.8826L 88.3353 79.9702L 88.335 79.971C 87.3601 82.4393 86.4237 84.81 85.2554 86.5751C 84.0928 88.3411 82.8748 89.25 81.4 89.25C 79.9252 89.25 78.7072 88.3411 77.5446 86.5751C 76.3765 84.8103 75.4402 82.44 74.4655 79.9722L 74.4653 79.9717L 74.465 79.9711L 74.4647 79.9702L 74.4301 79.8826C 73.4426 77.3826 72.4124 74.7889 71.1259 72.8251C 69.8197 70.8411 68.0753 69.25 65.6 69.25C 63.1248 69.25 61.3802 70.8411 60.0741 72.8251C 58.7877 74.7889 57.7574 77.3826 56.7699 79.8826L 56.7354 79.9702C 55.7603 82.4388 54.8238 84.8098 53.6554 86.5751C 52.5192 88.301 51.33 89.2083 49.9 89.2486C 48.4701 89.2083 47.2809 88.301 46.1447 86.5751C 44.9762 84.8098 44.0397 82.4388 43.0647 79.9702L 43.0301 79.8826C 42.0426 77.3826 41.0123 74.7889 39.7259 72.8251C 38.4197 70.8411 36.6752 69.25 34.2 69.25C 34.1665 69.25 34.1332 69.2503 34.1 69.2509C 34.0668 69.2503 34.0335 69.25 34 69.25C 33.9506 69.25 33.902 69.2536 33.8546 69.2605C 31.5611 69.401 29.9187 70.9347 28.6741 72.8251C 27.3876 74.7889 26.3574 77.3826 25.3699 79.8826L 25.3353 79.9702L 25.335 79.971C 24.3601 82.4393 23.4237 84.81 22.2554 86.5751C 21.0928 88.3411 19.8748 89.25 18.4 89.25C 16.9252 89.25 15.7072 88.3411 14.5446 86.5751C 13.3765 84.8103 12.4402 82.44 11.4655 79.9722L 11.4653 79.9717L 11.465 79.9711L 11.4647 79.9702L 11.4301 79.8826C 10.4426 77.3826 9.41235 74.7889 8.12585 72.8251C 7.22113 71.4508 6.10608 70.2651 4.68353 69.6661C 7.52161 60.7404 11.5787 52.358 16.6592 44.7147C 17.196 44.8985 17.7747 45 18.4 45C 20.8752 45 22.6198 43.4089 23.9259 41.4249C 25.2123 39.4611 26.2426 36.8674 27.2301 34.3674L 27.2646 34.2798L 27.265 34.279C 28.0071 32.4 28.7269 30.5776 29.5438 29.0358C 30.9337 27.6558 32.3639 26.3163 33.8325 25.0193C 33.9208 25.0099 34.0099 25.0039 34.1 25.0014C 35.53 25.0417 36.7191 25.949 37.8553 27.6749C 39.0238 29.4402 39.9603 31.8112 40.9354 34.2798L 40.9699 34.3674C 41.9574 36.8674 42.9876 39.4611 44.2741 41.4249C 45.5803 43.4089 47.3248 45 49.8 45C 49.8335 45 49.8668 44.9997 49.9 44.9991C 49.9332 44.9997 49.9665 45 50 45C 50.0494 45 50.0979 44.9964 50.1454 44.9895C 52.4388 44.849 54.0813 43.3153 55.3259 41.4249C 56.6124 39.4611 57.6426 36.8674 58.6301 34.3674L 58.6647 34.2798L 58.665 34.279C 59.6399 31.8107 60.5763 29.44 61.7446 27.6749C 62.9072 25.9089 64.1252 25 65.6 25C 67.0748 25 68.2928 25.9089 69.4554 27.6749C 70.6235 29.4397 71.5598 31.81 72.5345 34.2778L 72.5347 34.2783L 72.535 34.2789L 72.5353 34.2798L 72.5699 34.3674C 73.5574 36.8674 74.5876 39.4611 75.8741 41.4249C 77.1803 43.4089 78.9247 45 81.4 45C 83.8752 45 85.6198 43.4089 86.9259 41.4249C 88.2123 39.4611 89.2426 36.8674 90.2301 34.3674L 90.2646 34.2798L 90.265 34.279C 91.2399 31.8107 92.1763 29.44 93.3446 27.6749C 94.4808 25.949 95.67 25.0417 97.1 25.0014C 98.53 25.0417 99.7191 25.949 100.855 27.6749C 102.024 29.4402 102.96 31.8112 103.935 34.2798L 103.97 34.3674C 104.957 36.8674 105.988 39.4611 107.274 41.4249C 108.58 43.4089 110.325 45 112.8 45C 112.833 45 112.867 44.9997 112.9 44.9991C 112.933 44.9997 112.966 45 113 45C 113.049 45 113.098 44.9964 113.145 44.9895C 115.439 44.849 117.081 43.3153 118.326 41.4249C 119.612 39.4611 120.643 36.8674 121.63 34.3674L 121.665 34.2798L 121.665 34.279C 122.64 31.8107 123.576 29.44 124.745 27.6749C 125.907 25.9089 127.125 25 128.6 25C 130.075 25 131.293 25.9089 132.455 27.6749C 133.624 29.4397 134.56 31.81 135.535 34.2778L 135.535 34.2783L 135.535 34.2789L 135.535 34.2798L 135.57 34.3674C 136.557 36.8674 137.588 39.4611 138.874 41.4249C 140.18 43.4089 141.925 45 144.4 45C 146.875 45 148.62 43.4089 149.926 41.4249C 151.212 39.4611 152.243 36.8674 153.23 34.3674L 153.265 34.2798L 153.265 34.279C 154.24 31.8107 155.176 29.44 156.345 27.6749C 157.507 25.9089 158.725 25 160.2 25C 161.675 25 162.893 25.9089 164.055 27.6749C 165.224 29.4402 166.16 31.8112 167.135 34.2798L 167.17 34.3674C 168.157 36.8674 169.188 39.4611 170.474 41.4249C 171.78 43.4089 173.525 45 176 45C 176.03 45 176.06 44.9987 176.089 44.9961C 176.159 44.9987 176.229 45 176.3 45C 178.544 45 180.188 43.6918 181.449 41.9686C 187.586 50.5665 192.395 60.1771 195.578 70.5011ZM 180.2 40.2573L 180.155 40.3251C 178.993 42.0911 177.775 43 176.3 43C 174.825 43 173.607 42.0911 172.445 40.3251C 171.276 38.5598 170.34 36.1888 169.365 33.7202L 169.33 33.6326C 168.343 31.1326 167.312 28.5389 166.026 26.5751C 164.72 24.5911 162.975 23 160.5 23C 160.47 23 160.44 23.0013 160.411 23.0039C 160.341 23.0013 160.271 23 160.2 23C 157.725 23 155.98 24.5911 154.674 26.5751C 153.388 28.5389 152.357 31.1326 151.37 33.6326L 151.335 33.7202L 151.335 33.721C 150.36 36.1893 149.424 38.56 148.255 40.3251C 147.093 42.0911 145.875 43 144.4 43C 142.925 43 141.707 42.0911 140.545 40.3251C 139.376 38.5603 138.44 36.19 137.465 33.7222L 137.465 33.7217L 137.465 33.7211L 137.465 33.7202L 137.43 33.6326C 136.443 31.1326 135.412 28.5389 134.126 26.5751C 132.82 24.5911 131.075 23 128.6 23C 126.125 23 124.38 24.5911 123.074 26.5751C 121.788 28.5389 120.757 31.1326 119.77 33.6326L 119.735 33.7202C 118.76 36.1888 117.824 38.5598 116.655 40.3251C 115.519 42.051 114.33 42.9583 112.9 42.9986C 111.47 42.9583 110.281 42.051 109.145 40.3251C 107.976 38.5598 107.04 36.1888 106.065 33.7202L 106.03 33.6326C 105.043 31.1326 104.012 28.5389 102.726 26.5751C 101.42 24.5911 99.6752 23 97.2 23C 97.1665 23 97.1332 23.0003 97.1 23.0009C 97.0668 23.0003 97.0335 23 97 23C 96.9506 23 96.902 23.0036 96.8546 23.0105C 94.5611 23.151 92.9187 24.6847 91.6741 26.5751C 90.3876 28.5389 89.3574 31.1326 88.3699 33.6326L 88.3353 33.7202L 88.335 33.721C 87.3601 36.1893 86.4237 38.56 85.2554 40.3251C 84.0928 42.0911 82.8748 43 81.4 43C 79.9252 43 78.7072 42.0911 77.5446 40.3251C 76.3765 38.5603 75.4402 36.19 74.4655 33.7222L 74.4653 33.7217L 74.465 33.7211L 74.4647 33.7202L 74.4301 33.6326C 73.4426 31.1326 72.4124 28.5389 71.1259 26.5751C 69.8197 24.5911 68.0753 23 65.6 23C 63.1248 23 61.3802 24.5911 60.0741 26.5751C 58.7877 28.5389 57.7574 31.1326 56.7699 33.6326L 56.7354 33.7202C 55.7603 36.1888 54.8238 38.5598 53.6554 40.3251C 52.5192 42.051 51.33 42.9583 49.9 42.9986C 48.4701 42.9583 47.2809 42.051 46.1447 40.3251C 44.9762 38.5598 44.0397 36.1888 43.0647 33.7202L 43.0301 33.6326C 42.0426 31.1326 41.0123 28.5389 39.7259 26.5751C 38.7363 25.072 37.4952 23.7944 35.8753 23.2634C 53.2351 8.74124 75.5967 0 100 0C 132.832 0 161.968 15.8221 180.2 40.2573ZM 18.4 43C 18.2143 43 18.0327 42.9856 17.8547 42.9569C 20.2081 39.5741 22.7651 36.3436 25.5081 33.2832L 25.3699 33.6326L 25.3353 33.7202L 25.335 33.721C 24.3601 36.1893 23.4237 38.56 22.2554 40.3251C 21.0928 42.0911 19.8748 43 18.4 43Z"/>
<path id="path2_fill" d="M 16.5674 8.6377C 17.5586 8.54329 18.5262 8.23649 19.4702 7.71729C 19.9422 7.71729 20.4142 7.71729 20.8862 7.71729C 21.3582 7.71729 21.7122 7.71729 21.9482 7.71729C 22.1842 7.71729 22.6326 7.81169 23.2935 8.00049C 23.9543 8.18929 24.6387 8.40169 25.3467 8.6377C 26.0547 8.8737 26.7627 9.29851 27.4707 9.91211C 28.1787 10.4785 28.7687 10.8797 29.2407 11.1157C 29.7127 11.3517 30.1847 11.7765 30.6567 12.3901C 31.1287 13.0037 31.4827 13.5466 31.7188 14.0186C 31.9548 14.4906 32.1672 15.057 32.356 15.7178C 32.592 16.3314 32.71 16.7562 32.71 16.9922C 32.71 17.4642 32.8044 18.0542 32.9932 18.7622C 33.182 19.4702 33.3944 20.1782 33.6304 20.8862C 33.6304 21.8774 33.7012 23.0103 33.8428 24.2847C 34.0316 25.5591 34.126 26.6919 34.126 27.6831C 34.126 29.3823 34.1024 30.5859 34.0552 31.2939C 34.008 32.002 33.8664 32.592 33.6304 33.064C 33.2056 33.4416 32.7336 33.6068 32.2144 33.5596C 32.2144 32.8044 32.2144 32.3088 32.2144 32.0728C 32.2144 31.8367 32.2144 31.3647 32.2144 30.6567C 32.6392 30.7039 32.8044 30.5387 32.71 30.1611C 32.71 29.9251 32.6156 29.4767 32.4268 28.8159C 32.2852 28.1551 32.2144 27.4707 32.2144 26.7627C 32.2144 26.0547 32.0964 25.0399 31.8604 23.7183C 31.6716 22.3967 31.4591 21.1222 31.2231 19.895C 30.9871 18.9038 30.7511 17.9834 30.5151 17.1338C 30.3263 16.2842 30.2319 15.7414 30.2319 15.5054C 29.9959 15.2694 29.7363 14.8682 29.4531 14.3018C 29.1699 13.6882 28.7923 13.2633 28.3203 13.0273C 27.8483 12.4609 27.3527 12.1541 26.8335 12.1069C 26.0783 11.5877 25.5827 11.0921 25.3467 10.6201C 24.8747 10.3841 24.3555 10.1717 23.7891 9.98291C 23.2227 9.7469 22.4438 9.62891 21.4526 9.62891C 20.2254 9.62891 19.2106 9.79411 18.4082 10.1245C 17.653 10.4077 16.5438 10.9033 15.0806 11.6113C 14.3726 12.0833 13.5702 12.6261 12.6733 13.2397C 11.8237 13.8533 11.1629 14.2782 10.6909 14.5142C 9.79411 15.5054 9.1569 16.8034 8.7793 18.4082C 8.30729 20.2962 7.81169 21.7594 7.29248 22.7979C 7.05648 23.0339 6.82048 23.3879 6.58447 23.8599C 6.39567 24.3319 6.30127 24.8039 6.30127 25.2759C 6.30127 25.7479 6.20687 26.2199 6.01807 26.6919C 5.87646 27.1167 5.80566 27.4471 5.80566 27.6831C 5.80566 27.9191 5.73486 28.3675 5.59326 29.0283C 5.45166 29.6419 5.38086 30.1847 5.38086 30.6567C 5.38086 31.1287 5.28646 31.6716 5.09766 32.2852C 4.95605 32.8988 4.88525 33.3236 4.88525 33.5596C 4.88525 33.7956 4.79085 34.6688 4.60205 36.1792C 4.46045 37.6424 4.38965 39.3652 4.38965 41.3477C 4.15365 43.0469 3.91764 44.6517 3.68164 46.1621C 3.49284 47.6253 3.39844 48.4749 3.39844 48.7109C 3.39844 48.9469 3.30404 49.3953 3.11523 50.0562C 2.97363 50.717 2.90283 51.4014 2.90283 52.1094C 2.90283 53.1006 2.80843 54.0682 2.61963 55.0122C 2.47803 55.9562 2.40723 56.7822 2.40723 57.4902C 2.40723 58.1982 2.50163 59.0243 2.69043 59.9683C 2.92643 60.8651 3.16243 61.6675 3.39844 62.3755C 3.63444 62.8475 3.84684 63.6263 4.03564 64.7119C 4.27165 65.7503 4.38965 66.7651 4.38965 67.7563C 4.38965 68.7476 4.36605 70.0928 4.31885 71.792C 4.27165 73.4912 4.13005 75.0724 3.89404 76.5356C 3.89404 77.9989 3.79964 79.4857 3.61084 80.9961C 3.46924 82.5065 3.39844 83.6157 3.39844 84.3237C 3.39844 84.7957 3.30404 85.2677 3.11523 85.7397C 2.97363 86.2118 2.90283 86.5658 2.90283 86.8018C 2.85563 86.849 3.02083 87.6514 3.39844 89.209C 3.63444 89.681 3.84684 90.3654 4.03564 91.2622C 4.27165 92.1118 4.38965 92.8906 4.38965 93.5986C 4.38965 94.0706 4.55485 94.8258 4.88525 95.8643C 5.26286 96.9027 5.56966 97.7759 5.80566 98.4839C 6.04167 99.1919 6.44287 99.9943 7.00928 100.891C 7.62288 101.741 8.04769 102.402 8.28369 102.874C 8.7557 103.346 9.3929 104.006 10.1953 104.856C 10.1481 105.328 10.8089 105.824 12.1777 106.343C 12.6497 106.579 13.4049 106.791 14.4434 106.98C 15.4818 107.169 16.355 107.263 17.063 107.263C 17.771 107.499 18.4318 107.617 19.0454 107.617C 19.659 107.617 19.9658 107.499 19.9658 107.263C 20.8154 106.933 21.4762 106.768 21.9482 106.768C 22.9395 106.862 23.9071 106.72 24.8511 106.343C 25.0871 106.107 25.4411 105.753 25.9131 105.281C 26.3851 104.809 26.8571 104.337 27.3291 103.865C 27.5651 103.629 27.9899 103.298 28.6035 102.874C 29.2171 102.402 29.7599 101.93 30.2319 101.458C 30.7039 100.986 31.2467 100.325 31.8604 99.4751C 32.5212 98.6255 32.9696 97.9647 33.2056 97.4927C 33.4416 96.7847 33.654 96.1003 33.8428 95.4395C 34.0316 94.7786 34.126 94.3302 34.126 94.0942C 34.4564 91.6398 34.6216 89.681 34.6216 88.2178C 34.6216 86.7546 34.6216 84.8193 34.6216 82.4121C 34.6216 82.1761 34.716 81.9637 34.9048 81.7749C 35.1408 81.5389 35.3768 81.4209 35.6128 81.4209C 36.132 81.5153 36.6276 81.8457 37.0996 82.4121C 37.4772 82.7897 37.6424 83.4269 37.5952 84.3237C 37.5952 84.5597 37.5008 85.1025 37.312 85.9521C 37.1704 86.7546 37.0996 87.5098 37.0996 88.2178C 37.0996 89.209 37.076 90.2474 37.0288 91.333C 36.9816 92.3714 36.84 93.1266 36.604 93.5986C 36.604 94.0706 36.5096 94.637 36.3208 95.2979C 36.1792 95.9115 36.1084 96.3363 36.1084 96.5723C 35.6836 97.7051 35.3532 98.5075 35.1172 98.9795C 34.8812 99.2155 34.4328 99.7583 33.772 100.608C 33.1112 101.41 32.4268 102.166 31.7188 102.874C 31.0107 103.582 30.2083 104.384 29.3115 105.281C 28.4619 106.13 27.8011 106.791 27.3291 107.263C 26.8571 107.735 26.2671 108.207 25.5591 108.679C 24.8511 109.151 24.1431 109.505 23.4351 109.741C 22.9631 109.977 22.2786 110.213 21.3818 110.449C 20.485 110.638 19.541 110.732 18.5498 110.732C 17.5586 110.732 16.2606 110.567 14.6558 110.237C 14.6558 110.001 14.4434 109.788 14.0186 109.6C 13.5938 109.364 13.1453 109.246 12.6733 109.246C 11.7293 109.198 10.2661 108.231 8.28369 106.343C 7.57568 105.352 6.79688 104.313 5.94727 103.228C 5.14486 102.095 4.62565 101.174 4.38965 100.466C 3.91764 99.7583 3.44564 98.6727 2.97363 97.2095C 2.50163 95.6991 2.14762 94.3302 1.91162 93.103C 1.62842 92.0174 1.41602 91.0734 1.27441 90.271C 1.13281 89.4214 1.03841 88.5718 0.991211 87.7222C 0.94401 86.8726 0.92041 85.9285 0.92041 84.8901C 0.92041 83.8517 0.92041 82.5301 0.92041 80.9253C 0.92041 78.9429 0.991211 76.9132 1.13281 74.8364C 1.32161 72.7596 1.41602 71.3672 1.41602 70.6592C 1.65202 69.9512 1.79362 69.1724 1.84082 68.3228C 1.88802 67.4259 1.91162 66.7415 1.91162 66.2695C 1.67562 65.7975 1.51042 65.3255 1.41602 64.8535C 1.32161 64.3343 1.15641 63.8387 0.92041 63.3667C 0.92041 62.8947 0.849609 62.3283 0.708008 61.6675C 0.566406 60.9595 0.495605 60.3695 0.495605 59.8975C 0.259603 59.6615 0.118001 59.0479 0.0708008 58.0566C 0.0236003 57.0654 0 56.2158 0 55.5078C 0 54.7998 0.0236003 54.021 0.0708008 53.1714C 0.118001 52.2746 0.259603 51.5902 0.495605 51.1182C 0.495605 50.6462 0.566406 50.0798 0.708008 49.4189C 0.849609 48.7581 0.92041 48.1917 0.92041 47.7197C 0.92041 47.2477 0.991211 46.3981 1.13281 45.1709C 1.32161 43.9437 1.41602 42.8345 1.41602 41.8433C 1.41602 40.8521 1.53402 39.318 1.77002 37.2412C 2.05322 35.1644 2.43083 33.1348 2.90283 31.1523C 3.13883 29.1699 3.37484 27.3999 3.61084 25.8423C 3.89404 24.2847 4.15365 23.2699 4.38965 22.7979C 4.95605 21.8066 5.28646 20.839 5.38086 19.895C 5.38086 19.423 5.47526 18.8566 5.66406 18.1958C 5.85286 17.535 6.06527 16.9686 6.30127 16.4966C 6.30127 15.7886 6.67887 15.1042 7.43408 14.4434C 8.23649 13.7825 9.4873 12.8385 11.1865 11.6113C 12.4137 10.9033 13.5465 10.2425 14.585 9.62891C 15.6706 8.9681 16.3314 8.6377 16.5674 8.6377Z"/>
<path id="path3_fill" d="M 1.84082 9.55811C 2.21842 8.8501 2.52523 8.3781 2.76123 8.14209C 2.71403 7.76448 3.35124 7.62288 4.67285 7.71729C 5.14486 7.71729 5.56966 7.74089 5.94727 7.78809C 6.32487 7.78809 6.51367 7.90608 6.51367 8.14209C 6.98568 8.18929 7.90609 8.49609 9.2749 9.0625C 10.2189 9.29851 11.3989 9.5345 12.8149 9.77051C 14.2782 10.0065 15.5762 10.2425 16.709 10.4785C 18.125 10.4785 19.5174 10.5493 20.8862 10.6909C 22.255 10.8325 23.1755 10.9033 23.6475 10.9033C 24.3555 10.9033 25.1107 11.0213 25.9131 11.2573C 26.7155 11.4461 27.3527 11.6585 27.8247 11.8945C 29.2407 12.4137 32.4976 12.7205 37.5952 12.8149C 39.436 12.8149 41.9141 12.9565 45.0293 13.2397C 45.5013 13.1925 45.5013 13.6646 45.0293 14.6558C 44.7933 15.1278 44.6045 15.4582 44.4629 15.647C 44.3213 15.8358 43.8965 15.8122 43.1885 15.5762C 42.7165 15.5762 41.7489 15.5054 40.2856 15.3638C 38.8696 15.175 37.3592 15.0806 35.7544 15.0806C 33.6776 15.0806 32.002 14.9862 30.7275 14.7974C 29.5003 14.6086 28.5327 14.3962 27.8247 14.1602C 27.1167 13.9242 26.5739 13.8062 26.1963 13.8062C 25.8187 13.8062 25.2759 13.9242 24.5679 14.1602C 23.2935 14.585 22.6799 14.585 22.7271 14.1602C 22.491 13.9242 22.1134 13.8062 21.5942 13.8062C 21.1222 13.759 20.4142 13.7354 19.4702 13.7354C 18.5262 13.7354 17.535 13.6409 16.4966 13.4521C 15.5054 13.2633 14.6558 13.0509 13.9478 12.8149C 13.2397 12.5789 12.3901 12.2957 11.3989 11.9653C 10.4077 11.5877 9.55811 11.3989 8.8501 11.3989C 7.71729 11.1629 6.89128 11.1157 6.37207 11.2573C 5.90007 11.3517 5.78206 11.3989 6.01807 11.3989C 6.01807 11.6349 6.06527 12.3901 6.15967 13.6646C 6.30127 14.8918 6.25407 16.3078 6.01807 17.9126C 6.01807 19.5174 6.01807 21.0278 6.01807 22.4438C 6.01807 23.8127 6.01807 24.6151 6.01807 24.8511C 6.01807 25.3231 6.04167 25.8659 6.08887 26.4795C 6.13607 27.0931 6.27767 27.6359 6.51367 28.1079C 6.51367 28.5799 6.58447 29.3587 6.72607 30.4443C 6.86768 31.4827 6.93848 32.5684 6.93848 33.7012C 7.17448 34.834 7.38688 36.1084 7.57568 37.5244C 7.81169 38.9404 7.92969 40.1204 7.92969 41.0645C 7.92969 42.6693 7.95329 43.7077 8.00049 44.1797C 8.09489 44.6517 8.37809 45.0057 8.8501 45.2417C 9.3221 45.2417 10.0537 45.3125 11.0449 45.4541C 12.0361 45.5485 13.0037 45.4777 13.9478 45.2417C 15.0806 45.2417 16.2606 45.2417 17.4878 45.2417C 18.7622 45.2417 19.7534 45.2417 20.4614 45.2417C 20.9334 45.4777 21.429 45.6429 21.9482 45.7373C 22.4674 45.8317 22.7271 45.9969 22.7271 46.2329C 23.1519 46.6577 23.3171 47.1061 23.2227 47.5781C 22.9867 47.8141 22.7979 48.0265 22.6562 48.2153C 22.5146 48.3569 22.0898 48.3097 21.3818 48.0737C 20.9098 48.0737 19.9422 48.0029 18.479 47.8613C 17.063 47.6725 15.5526 47.5781 13.9478 47.5781L 7.92969 47.1533L 7.92969 50.835C 8.16569 51.9678 8.18929 53.1006 8.00049 54.2334C 7.85889 55.3662 7.67008 56.4046 7.43408 57.3486C 7.19808 58.2926 6.98568 59.3783 6.79688 60.6055C 6.60807 61.8327 6.51367 62.9183 6.51367 63.8623C 6.51367 64.5703 6.41927 65.6323 6.23047 67.0483C 6.08887 68.4172 6.01807 69.668 6.01807 70.8008C 6.01807 71.9336 5.94727 73.0428 5.80566 74.1284C 5.66406 75.1668 5.59326 75.922 5.59326 76.394C 5.59326 76.866 5.49886 77.5033 5.31006 78.3057C 5.16846 79.1081 5.09766 79.8633 5.09766 80.5713C 5.09766 81.5153 5.00326 82.3885 4.81445 83.1909C 4.62565 83.9933 4.41325 84.5125 4.17725 84.7485C 4.17725 85.2677 4.17725 85.5745 4.17725 85.6689C 4.17725 85.9049 4.15365 86.3298 4.10645 86.9434C 4.10645 87.5098 3.98844 88.147 3.75244 88.855C 3.75244 89.563 3.65804 90.4126 3.46924 91.4038C 3.32764 92.3478 3.25684 93.0558 3.25684 93.5278C 3.02083 93.7638 2.87923 94.3774 2.83203 95.3687C 2.78483 96.3127 2.76123 97.2567 2.76123 98.2007C 2.76123 99.1447 2.78483 100.325 2.83203 101.741C 2.87923 103.157 3.02083 104.431 3.25684 105.564C 3.25684 107.405 3.23324 108.679 3.18604 109.387C 3.13883 110.048 2.99723 110.496 2.76123 110.732C 2.33643 110.732 1.88802 110.732 1.41602 110.732C 1.18001 110.496 1.01481 109.883 0.92041 108.892C 0.87321 107.9 0.731608 106.484 0.495605 104.644C 0.495605 103.228 0.401204 101.835 0.212402 100.466C 0.0708008 99.0975 0 98.1771 0 97.7051C 0.236003 96.9971 0.377604 96.3363 0.424805 95.7227C 0.519206 95.109 0.684408 94.6842 0.92041 94.4482C 0.92041 94.2122 0.991211 93.5986 1.13281 92.6074C 1.32161 91.569 1.41602 90.4834 1.41602 89.3506C 1.65202 88.2178 1.86442 87.1558 2.05322 86.1646C 2.24202 85.1261 2.33643 84.4889 2.33643 84.2529C 2.57243 84.2529 2.71403 83.8045 2.76123 82.9077C 2.85563 81.9637 3.02083 81.0197 3.25684 80.0757C 3.25684 79.1317 3.32764 78.1641 3.46924 77.1729C 3.65804 76.1816 3.75244 75.45 3.75244 74.978C 3.75244 74.506 3.75244 73.7508 3.75244 72.7124C 3.79964 71.6268 3.94124 70.5176 4.17725 69.3848C 4.17725 68.4408 4.27165 67.0719 4.46045 65.2783C 4.64925 63.4375 4.86165 61.7147 5.09766 60.1099C 5.33366 58.033 5.47526 56.145 5.52246 54.4458C 5.56966 52.7466 5.59326 50.6226 5.59326 48.0737C 5.59326 46.2329 5.49886 44.2741 5.31006 42.1973C 5.16846 40.1204 5.09766 38.5156 5.09766 37.3828C 5.09766 35.9668 4.95605 34.4092 4.67285 32.71C 4.67285 32.474 4.57845 32.0728 4.38965 31.5063C 4.24805 30.8927 4.17725 30.2319 4.17725 29.5239C 4.17725 28.5799 4.10645 27.7775 3.96484 27.1167C 3.82324 26.4559 3.75244 26.0075 3.75244 25.7715C 3.75244 25.5355 3.75244 25.0163 3.75244 24.2139C 3.79964 23.4115 3.94124 22.5383 4.17725 21.5942C 4.17725 20.6502 4.17725 19.4938 4.17725 18.125C 4.17725 16.7562 4.17725 15.5998 4.17725 14.6558C 3.75244 12.2957 3.28044 10.9033 2.76123 10.4785C 2.52523 10.2425 2.21842 9.93571 1.84082 9.55811Z"/>
</defs>
</svg>
