<svg xmlns="http://www.w3.org/2000/svg" xmlns:xlink="http://www.w3.org/1999/xlink" version="1.1" x="0px" y="0px" viewBox="0 0 100 125" style="enable-background:new 0 0 100 100;" xml:space="preserve"><g><path d="M57.8,23.5c0.3-6.9-2.5-13.5-7.6-18.2c-5.1,4.6-7.9,11.3-7.6,18.2L43.5,41L11.9,62.5v8.4l17.5-7.3v2.3   c0,1.4,1.2,2.6,2.6,2.6c1.4,0,2.6-1.2,2.6-2.6v-4.4l10.3-4.3l1.3,26.3l-7,6.2v4.5l11.2-5.1l11.2,5.1v-4.5l-7-6.2l1.3-26.3l10.2,4.2   v4.5c0,1.4,1.2,2.6,2.6,2.6c1.4,0,2.6-1.2,2.6-2.6v-2.3l17.6,7.3v-8.4L57,41L57.8,23.5z"/></g></svg>