<?xml version="1.0" encoding="UTF-8" standalone="no"?>
<svg width="1024px" height="1024px" viewBox="0 0 1024 1024" version="1.1" xmlns="http://www.w3.org/2000/svg" xmlns:xlink="http://www.w3.org/1999/xlink" xmlns:sketch="http://www.bohemiancoding.com/sketch/ns">
    <!-- Generator: Sketch 3.3.3 (12081) - http://www.bohemiancoding.com/sketch -->
    <title>CalculatorIcon</title>
    <desc>Created with Sketch.</desc>
    <defs>
        <radialGradient cx="50%" cy="0%" fx="50%" fy="0%" r="100%" id="radialGradient-1">
            <stop stop-color="#D61F1F" offset="0%"></stop>
            <stop stop-color="#F6EBEB" offset="100%"></stop>
        </radialGradient>
        <circle id="path-2" cx="350" cy="350" r="350"></circle>
    </defs>
    <g id="Page-1" stroke="none" stroke-width="1" fill="none" fill-rule="evenodd" sketch:type="MSPage">
        <g id="Size-Guides" sketch:type="MSLayerGroup" transform="translate(0.000000, -124.000000)"></g>
        <g id="CalculatorIcon" sketch:type="MSArtboardGroup">
            <path d="M357.009067,0 L666.990933,0 C769.792,0 821.179733,0 876.5184,17.4933333 C936.9344,39.4837333 984.516267,87.0656 1006.50667,147.4816 C1024,202.811733 1024,254.216533 1024,357.009067 L1024,666.990933 C1024,769.792 1024,821.179733 1006.50667,876.5184 C984.516267,936.9344 936.9344,984.516267 876.5184,1006.49813 C821.179733,1024 769.792,1024 666.990933,1024 L357.009067,1024 C254.208,1024 202.811733,1024 147.4816,1006.49813 C87.0656,984.516267 39.4837333,936.9344 17.4933333,876.5184 C0,821.179733 0,769.792 0,666.990933 L0,357.009067 C0,254.216533 0,202.811733 17.4933333,147.4816 C39.4837333,87.0656 87.0656,39.4837333 147.4816,17.4933333 C202.811733,0 254.208,0 357.009067,0 L357.009067,0" id="Icon-Shape" stroke="#D91E1E" stroke-width="5" fill="#FFFFFF" sketch:type="MSShapeGroup"></path>
            <g id="GraphPaper" sketch:type="MSLayerGroup" transform="translate(-32.000000, 0.000000)" stroke-linecap="square" stroke="#979797">
                <g id="HorizontalLines" sketch:type="MSShapeGroup">
                    <path d="M3.62913907,1.5 L1052.96878,1.5" id="Line"></path>
                    <path d="M95.9129612,77.5 L995.499982,77.5" id="Line-Copy"></path>
                    <path d="M65.8429518,115.5 L1020.49998,115.5" id="Line-Copy-3"></path>
                    <path d="M50.2894986,153.5 L1040.49999,153.5" id="Line-Copy-4"></path>
                    <path d="M44.0681173,191.5 L1049.49999,191.5" id="Line-Copy-5"></path>
                    <path d="M141.536424,39.5 L953.49997,39.5" id="Line-Copy-2"></path>
                    <path d="M0.518448439,229.5 L1058.15326,229.5" id="Line-Copy-6"></path>
                    <path d="M0.518448439,267.5 L1058.15326,267.5" id="Line-Copy-7"></path>
                    <path d="M35.2544939,303 L1092.88931,303" id="Line-Copy-8"></path>
                    <path d="M34.217597,344.5 L1091.85241,344.5" id="Line-Copy-9"></path>
                    <path d="M35.2544939,381.5 L1092.88931,381.5" id="Line-Copy-10"></path>
                    <path d="M34.7360454,416.5 L1096,416.5" id="Line-Copy-11"></path>
                    <path d="M40.9574267,453.5 L1096,453.5" id="Line-Copy-12"></path>
                    <path d="M36.8098392,490.5 L1091.85241,490.5" id="Line-Copy-39"></path>
                    <path d="M37.846736,527.5 L1092.88931,527.5" id="Line-Copy-40"></path>
                    <path id="Line-Copy-13" d="M0,302 L546.73959,302 L1057.63482,302"></path>
                </g>
                <g id="HorizontalLines-Copy" transform="translate(32.000000, 564.000000)" sketch:type="MSShapeGroup">
                    <path d="M6.5,1.51648352 L1018.5,1.51648352" id="Line"></path>
                    <path d="M0.5,78.3516484 L1021.5,78.3516484" id="Line-Copy"></path>
                    <path d="M1.5,116.769231 L1023.5,116.769231" id="Line-Copy-3"></path>
                    <path d="M1.5,155.186813 L1022.5,155.186813" id="Line-Copy-4"></path>
                    <path d="M2.5,193.604396 L1022.5,193.604396" id="Line-Copy-5"></path>
                    <path d="M6.5,39.9340659 L1020.5,39.9340659" id="Line-Copy-2"></path>
                    <path d="M3.5,232.021978 L1019.5,232.021978" id="Line-Copy-6"></path>
                    <path d="M10.5,270.43956 L1014.5,270.43956" id="Line-Copy-7"></path>
                    <path d="M19.5,308.857143 L1006.5,308.857143" id="Line-Copy-8"></path>
                    <path d="M32.5,346.263736 L990.5,346.263736" id="Line-Copy-9"></path>
                    <path d="M62.5,383.67033 L962.5,383.67033" id="Line-Copy-10"></path>
                    <path d="M108.5,421.076923 L921.5,421.076923" id="Line-Copy-11"></path>
                </g>
                <path d="M545.5,4.5 L545.5,1023.5" id="Line" sketch:type="MSShapeGroup"></path>
                <path d="M165.5,23.5 L165.5,999.5" id="Line-Copy-30" sketch:type="MSShapeGroup"></path>
                <path d="M128.5,44.5 L128.5,978.5" id="Line-Copy-31" sketch:type="MSShapeGroup"></path>
                <path d="M91.5,77.5 L91.5,946.5" id="Line-Copy-32" sketch:type="MSShapeGroup"></path>
                <path d="M54.5,134.5 L54.5,885.5" id="Line-Copy-33" sketch:type="MSShapeGroup"></path>
                <path d="M583.5,4.5 L583.5,1023.5" id="Line-Copy-14" sketch:type="MSShapeGroup"></path>
                <path d="M621.5,4.5 L621.5,1023.5" id="Line-Copy-15" sketch:type="MSShapeGroup"></path>
                <path d="M659.5,4.5 L659.5,1023.5" id="Line-Copy-16" sketch:type="MSShapeGroup"></path>
                <path d="M697.5,4.5 L697.5,1023.5" id="Line-Copy-17" sketch:type="MSShapeGroup"></path>
                <path d="M735.5,4.5 L735.5,1023.5" id="Line-Copy-18" sketch:type="MSShapeGroup"></path>
                <path d="M773.5,4.5 L773.5,1023.5" id="Line-Copy-19" sketch:type="MSShapeGroup"></path>
                <path d="M507.5,0.5 L507.5,1019.5" id="Line-Copy-21" sketch:type="MSShapeGroup"></path>
                <path d="M241.5,4.5 L241.5,1018.5" id="Line-Copy-22" sketch:type="MSShapeGroup"></path>
                <path d="M203.5,11.5 L203.5,1012.5" id="Line-Copy-29" sketch:type="MSShapeGroup"></path>
                <path d="M469.5,4.5 L469.5,1023.5" id="Line-Copy-23" sketch:type="MSShapeGroup"></path>
                <path d="M853.5,4.5 L853.5,1019.5" id="Line-Copy-38" sketch:type="MSShapeGroup"></path>
                <path d="M983.5,66.5 L983.5,959.5" id="Line-Copy-34" sketch:type="MSShapeGroup"></path>
                <path d="M1020.5,110.5 L1020.5,916.5" id="Line-Copy-35" sketch:type="MSShapeGroup"></path>
                <path d="M938.5,31.5 L938.5,992.5" id="Line-Copy-36" sketch:type="MSShapeGroup"></path>
                <path d="M896.5,14.5 L896.5,1010.5" id="Line-Copy-37" sketch:type="MSShapeGroup"></path>
                <path d="M431.5,4.5 L431.5,1023.5" id="Line-Copy-24" sketch:type="MSShapeGroup"></path>
                <path d="M393.5,4.5 L393.5,1023.5" id="Line-Copy-25" sketch:type="MSShapeGroup"></path>
                <path d="M355.5,4.5 L355.5,1023.5" id="Line-Copy-26" sketch:type="MSShapeGroup"></path>
                <path d="M317.5,4.5 L317.5,1021.5" id="Line-Copy-27" sketch:type="MSShapeGroup"></path>
                <path d="M279.5,4.5 L279.5,1020.5" id="Line-Copy-28" sketch:type="MSShapeGroup"></path>
                <path d="M813.5,4.5 L813.5,1023.5" id="Line-Copy-20" sketch:type="MSShapeGroup"></path>
            </g>
            <g id="MainDigit" sketch:type="MSLayerGroup" transform="translate(162.000000, 162.000000)">
                <g id="Oval-1">
                    <use stroke="url(#radialGradient-1)" stroke-width="10" stroke-linecap="square" fill="#FFFFFF" fill-rule="evenodd" sketch:type="MSShapeGroup" xlink:href="#path-2"></use>
                    <use stroke="none" fill="none" xlink:href="#path-2"></use>
                </g>
                <text id="1" sketch:type="MSTextLayer" font-family="Lucida Grande" font-size="350" font-weight="normal" sketch:alignment="middle" fill="#E71C1C">
                    <tspan x="239.343262" y="467.5">1</tspan>
                </text>
            </g>
            <g id="AdditionSymbol" sketch:type="MSLayerGroup" transform="translate(592.000000, 88.000000)">
                <ellipse id="Oval-2" stroke="#FFFFFF" stroke-width="5" fill="#F90909" sketch:type="MSShapeGroup" cx="82.5" cy="93.5" rx="82.5" ry="81.5"></ellipse>
                <text id="+" sketch:type="MSTextLayer" font-family="Lucida Grande" font-size="136" font-weight="normal" sketch:alignment="middle" fill="#FFFFFF">
                    <tspan x="28.4453125" y="131">+</tspan>
                </text>
            </g>
            <g id="MultiplySumbol" sketch:type="MSLayerGroup" transform="translate(697.000000, 179.000000)">
                <ellipse id="Oval-2" stroke="#FFFFFF" stroke-width="5" fill="#F90909" sketch:type="MSShapeGroup" cx="82.5" cy="84.5" rx="82.5" ry="81.5"></ellipse>
                <text id="x" sketch:type="MSTextLayer" font-family="Lucida Grande" font-size="120" font-weight="normal" sketch:alignment="middle" fill="#FFFFFF">
                    <tspan x="45.703125" y="116">x</tspan>
                </text>
            </g>
            <g id="SqrtSymbol" sketch:type="MSLayerGroup" transform="translate(780.000000, 283.000000)">
                <ellipse id="Oval-2" stroke="#FFFFFF" stroke-width="5" fill="#F90909" sketch:type="MSShapeGroup" cx="82.5" cy="81.5" rx="82.5" ry="81.5"></ellipse>
                <text id="√" sketch:type="MSTextLayer" font-family="Lucida Grande" font-size="80" font-weight="normal" sketch:alignment="middle" fill="#FFFFFF">
                    <tspan x="50.2148438" y="103">√</tspan>
                </text>
            </g>
            <g id="SubtractionSymbol" sketch:type="MSLayerGroup" transform="translate(794.000000, 399.000000)">
                <ellipse id="Oval-2" stroke="#FFFFFF" stroke-width="5" fill="#F90909" sketch:type="MSShapeGroup" cx="82.5" cy="94.5" rx="82.5" ry="81.5"></ellipse>
                <text id="-" sketch:type="MSTextLayer" font-family="Lucida Grande" font-size="136" font-weight="normal" sketch:alignment="middle" fill="#FFFFFF">
                    <tspan x="43.1542969" y="131">-</tspan>
                </text>
            </g>
            <g id="Divide-Symbol" sketch:type="MSLayerGroup" transform="translate(757.000000, 532.000000)">
                <ellipse id="Oval-2" stroke="#FFFCFC" stroke-width="5" fill="#F90909" sketch:type="MSShapeGroup" cx="82.5" cy="82.5" rx="82.5" ry="81.5"></ellipse>
                <text id="%" sketch:type="MSTextLayer" font-family="Lucida Grande" font-size="136" font-weight="normal" sketch:alignment="middle" fill="#FFFFFF">
                    <tspan x="37.0449219" y="131">%</tspan>
                </text>
            </g>
        </g>
    </g>
</svg>