<svg xmlns="http://www.w3.org/2000/svg" xmlns:xlink="http://www.w3.org/1999/xlink" version="1.1" x="0px" y="0px" viewBox="0 0 100 125" enable-background="new 0 0 100 100" xml:space="preserve"><g><path fill="#000000" d="M53.275,28.102c-0.087-0.159-0.153-0.359-0.153-0.446c0-0.322-0.157-0.587-0.471-0.783   c-0.175-0.112-0.341-0.203-0.367-0.203s-0.42-0.144-0.87-0.323c-0.451-0.178-0.905-0.341-1.007-0.363   c-0.101-0.022-0.298-0.189-0.438-0.371c-0.141-0.184-0.315-0.352-0.386-0.374c-0.378-0.129-0.468-0.708-0.203-1.291   c0.079-0.176,0.145-0.38,0.146-0.454c0-0.071,0.097-0.253,0.215-0.402c0.312-0.396,0.499-1.251,0.3-1.372   c-0.042-0.026-0.073-0.371-0.073-0.793c0-0.565-0.032-0.808-0.129-0.997c-0.192-0.382-0.591-0.662-1.033-0.732   c-0.224-0.036-0.453-0.125-0.55-0.218c-0.13-0.121-0.257-0.156-0.566-0.154c-0.787,0-1.633,0.457-2.072,1.116   c-0.311,0.469-0.405,0.976-0.391,2.085c0.009,0.575,0.034,0.704,0.175,0.896c0.091,0.121,0.165,0.256,0.165,0.295   c0,0.04,0.062,0.133,0.139,0.205c0.077,0.071,0.163,0.279,0.192,0.461c0.03,0.182,0.1,0.394,0.155,0.478   c0.056,0.075,0.101,0.263,0.101,0.41c0,0.236-0.029,0.282-0.228,0.353c-0.124,0.043-0.348,0.208-0.496,0.366   c-0.307,0.335-0.934,0.566-2.354,0.857c-0.462,0.099-0.878,0.216-0.924,0.269c-0.109,0.117-0.292,0.704-0.392,1.253   c-0.042,0.234-0.095,0.45-0.116,0.486c-0.059,0.097-0.405,1.883-0.405,2.095v0.182h6.242h6.242l-0.039-0.311   C53.499,28.854,53.408,28.359,53.275,28.102z"/><path fill="#000000" d="M41.159,71.752c-0.131-0.252-0.237-0.563-0.237-0.702c0-0.501-0.248-0.918-0.737-1.226   c-0.273-0.175-0.532-0.316-0.573-0.316c-0.042,0-0.657-0.227-1.362-0.505c-0.707-0.28-1.415-0.534-1.573-0.571   c-0.159-0.034-0.467-0.296-0.688-0.581c-0.219-0.284-0.492-0.547-0.603-0.583c-0.591-0.202-0.733-1.108-0.318-2.021   c0.124-0.276,0.227-0.595,0.229-0.708c0-0.117,0.152-0.401,0.337-0.634c0.489-0.616,0.781-1.952,0.469-2.144   c-0.064-0.042-0.114-0.585-0.114-1.241c0-0.886-0.049-1.264-0.202-1.562c-0.302-0.595-0.924-1.033-1.617-1.144   c-0.35-0.055-0.708-0.196-0.862-0.34c-0.202-0.189-0.403-0.246-0.884-0.242c-1.233,0-2.556,0.715-3.242,1.748   c-0.485,0.734-0.633,1.524-0.611,3.258c0.014,0.9,0.054,1.104,0.273,1.404c0.143,0.191,0.258,0.399,0.258,0.462   c0,0.063,0.098,0.208,0.218,0.321c0.119,0.113,0.254,0.438,0.301,0.721c0.046,0.286,0.156,0.619,0.242,0.744   c0.088,0.121,0.158,0.414,0.158,0.646c0,0.371-0.046,0.439-0.355,0.549c-0.196,0.068-0.545,0.325-0.775,0.575   c-0.483,0.522-1.462,0.882-3.686,1.342c-0.722,0.149-1.374,0.339-1.445,0.418c-0.169,0.186-0.457,1.104-0.613,1.958   c-0.065,0.367-0.147,0.71-0.181,0.763c-0.091,0.149-0.634,2.948-0.634,3.275v0.287h9.767h9.766l-0.063-0.487   C41.511,72.925,41.37,72.153,41.159,71.752z"/><path fill="#000000" d="M29.622,47.097c0.901-0.057,1.59-0.835,1.531-1.747c-0.056-0.904-0.838-1.591-1.747-1.532   c-7.55,0.492-14.742,4.993-18.48,11.559c-0.446,0.793-0.172,1.792,0.616,2.248c0.543,0.301,1.188,0.271,1.685-0.036   c0.223-0.139,0.418-0.335,0.558-0.583C16.978,51.374,23.147,47.519,29.622,47.097z"/><path fill="#000000" d="M29.206,40.538c0.899-0.061,1.595-0.834,1.532-1.744c-0.056-0.906-0.834-1.593-1.742-1.536   C19.285,37.88,10.029,43.67,5.215,52.119c-0.449,0.789-0.173,1.796,0.615,2.244c0.543,0.309,1.188,0.276,1.681-0.034   c0.228-0.138,0.422-0.336,0.561-0.578C12.347,46.235,20.572,41.087,29.206,40.538z"/><path fill="#000000" d="M86.671,45.426c-0.131-0.25-0.236-0.564-0.236-0.7c0-0.503-0.248-0.92-0.736-1.227c-0.274-0.174-0.533-0.317-0.575-0.317   s-0.654-0.226-1.362-0.503c-0.706-0.28-1.413-0.534-1.572-0.572c-0.159-0.033-0.468-0.295-0.687-0.582   c-0.22-0.284-0.492-0.545-0.604-0.583c-0.593-0.2-0.732-1.108-0.318-2.021c0.123-0.274,0.228-0.595,0.229-0.708   c0-0.115,0.151-0.399,0.336-0.632c0.488-0.617,0.782-1.953,0.47-2.144c-0.064-0.044-0.113-0.585-0.113-1.243   c0-0.886-0.05-1.262-0.203-1.562c-0.301-0.596-0.925-1.034-1.617-1.145c-0.349-0.053-0.708-0.196-0.861-0.339   c-0.202-0.19-0.402-0.247-0.884-0.244c-1.233,0.002-2.556,0.718-3.242,1.749c-0.484,0.733-0.633,1.526-0.611,3.258   c0.013,0.9,0.055,1.105,0.274,1.404c0.142,0.192,0.257,0.4,0.257,0.463s0.099,0.207,0.218,0.32s0.256,0.438,0.301,0.723   c0.046,0.284,0.155,0.617,0.242,0.743c0.087,0.121,0.159,0.415,0.159,0.646c0,0.371-0.048,0.439-0.355,0.549   c-0.197,0.068-0.545,0.325-0.776,0.575c-0.484,0.522-1.463,0.882-3.686,1.344c-0.723,0.149-1.374,0.336-1.445,0.416   c-0.171,0.186-0.458,1.104-0.613,1.96c-0.064,0.367-0.147,0.708-0.182,0.763c-0.091,0.149-0.632,2.948-0.632,3.275v0.287h9.767   h9.766l-0.062-0.488C87.022,46.599,86.883,45.827,86.671,45.426z"/><path  fill="#000000" d="M77.551,24.223c-6.688,0-12.5,3.786-15.429,9.324l-4.707-2.876c0.749-1.498,1.181-3.181,1.181-4.966   c0-6.149-5.002-11.151-11.152-11.151c-6.149,0-11.153,5.002-11.153,11.151s5.004,11.154,11.153,11.154   c3.869,0,7.281-1.983,9.282-4.983l4.791,2.927c-0.907,2.11-1.414,4.432-1.414,6.87c0,2.939,0.737,5.706,2.025,8.138L48.072,61.123   C45.398,54.911,39.22,50.55,32.039,50.55c-9.621,0-17.45,7.825-17.45,17.448c0,9.621,7.829,17.449,17.45,17.449   s17.45-7.828,17.45-17.449c0-1.397-0.183-2.751-0.495-4.055l14.643-11.785c3.188,4.22,8.23,6.964,13.914,6.964   c9.621,0,17.449-7.827,17.449-17.45C95,32.051,87.172,24.223,77.551,24.223z M47.444,35.083c-5.172,0-9.381-4.206-9.381-9.379   c0-5.171,4.209-9.379,9.381-9.379c5.173,0,9.381,4.208,9.381,9.379C56.825,30.877,52.617,35.083,47.444,35.083z M32.039,82.673   c-8.092,0-14.676-6.582-14.676-14.675s6.583-14.675,14.676-14.675s14.677,6.582,14.677,14.675S40.131,82.673,32.039,82.673z    M77.551,56.349c-8.093,0-14.675-6.583-14.675-14.677c0-8.091,6.582-14.675,14.675-14.675s14.677,6.584,14.677,14.675   C92.228,49.766,85.644,56.349,77.551,56.349z"/></g></svg>