<?xml version="1.0" encoding="UTF-8" standalone="no"?>
<svg width="512px" height="512px" viewBox="0 0 512 512" version="1.1" xmlns="http://www.w3.org/2000/svg" xmlns:xlink="http://www.w3.org/1999/xlink" xmlns:sketch="http://www.bohemiancoding.com/sketch/ns">
    <!-- Generator: Sketch 3.5.1 (25234) - http://www.bohemiancoding.com/sketch -->
    <title>Shape</title>
    <desc>Created with Sketch.</desc>
    <defs></defs>
    <g id="Page-1" stroke="none" stroke-width="1" fill="none" fill-rule="evenodd" sketch:type="MSPage">
        <path d="M498.226943,58.5634987 C502.02761,43.2003039 497.68067,26.5869394 487.150384,16.5855829 C481.176248,10.8764752 473.946846,8.00108522 466.612838,8.00108522 C460.824668,8.00108522 455.036497,9.8068857 449.841091,13.5157221 C439.520016,20.7528148 428.722404,26.5591579 417.448256,30.6569359 C395.899525,10.9598199 369.178632,0 341.713879,0 C278.764617,0 226.612967,56.1187227 218.395624,128.684121 C168.208233,115.849046 122.484009,82.8028975 89.5449016,34.5185708 C83.268572,25.267316 73.8540775,19.9888223 64.0211611,19.9888223 C63.19594,19.9888223 62.3242275,20.0582761 61.4408922,20.12773 C50.6549035,21.1417564 41.0195753,28.4066307 35.5684667,39.5470306 C24.5035301,62.2028813 18.6804909,88.0397189 18.6804909,114.362734 C18.6804909,132.142923 21.3188739,149.436935 26.2004636,165.591904 C20.9469433,172.731762 17.9017611,181.983016 17.9017611,191.762121 C17.9017611,230.767411 30.2219637,266.633387 50.7478862,293.581486 C49.4809974,300.30462 49.6785856,307.416696 51.526616,314.223175 C58.6281667,340.810114 71.6224936,363.688217 88.4291096,381.148919 C77.5152698,384.107653 66.2178765,385.621748 54.7577635,385.621748 C48.818496,385.621748 42.8094915,385.163352 36.7539957,384.343797 C35.4754841,384.149326 34.1969725,384.05209 32.8952152,384.05209 C19.1105357,384.05209 6.62761344,394.359044 1.94361188,410.236197 C-3.25179431,427.460756 2.24580553,446.727258 15.1239041,456.631379 C62.4404558,492.844624 117.114261,512 173.217674,512 C355.173119,512 464.520729,336.976261 466.484987,166.133644 C481.292476,151.062156 494.310049,133.71258 505.35174,114.348843 C509.524337,107.764617 512,99.5829512 512,90.6234027 C512,77.4410592 506.560514,65.7450284 498.226943,58.5634987 L498.226943,58.5634987 Z M433.278554,147.256084 C433.487765,151.937274 433.569125,156.660137 433.569125,161.396891 C433.569125,305.916493 341.527913,472.550205 173.217674,472.550205 C121.554183,472.550205 73.4472784,454.450528 32.9300837,423.418541 C40.0548802,424.363113 47.3772647,424.960417 54.7577635,424.960417 C97.6343931,424.960417 137.082287,407.458043 168.417444,378.10684 C128.330294,377.259502 94.5659653,345.602431 82.9082641,302.165984 C88.4988466,303.443935 94.240526,304.152364 100.086811,304.152364 C108.45525,304.152364 116.544742,302.791069 124.204189,300.30462 C82.3387453,290.206028 50.7827547,246.061152 50.7827547,193.026181 L50.7827547,191.664885 C63.126203,199.83266 77.2479446,204.749993 92.2413988,205.305624 C67.6939762,185.691853 51.5614845,152.187308 51.5614845,114.265498 C51.5614845,94.2350037 56.0711435,75.4685694 63.9514241,59.3136005 C109.048015,125.475352 176.495313,168.995144 252.55513,173.551317 C250.974424,165.578014 250.207317,157.187987 250.207317,148.61738 C250.207317,88.2758621 291.16618,39.3108874 341.67901,39.3108874 C368.016349,39.3108874 391.808288,52.5904664 408.498675,73.8016767 C429.315169,68.9260154 448.922887,59.8275591 466.601216,47.2841911 C459.755367,72.801541 445.238449,94.2350037 426.374592,107.764617 C444.866519,105.153151 462.47511,99.2773542 478.909795,90.5400581 C466.670953,112.584715 451.177717,131.837326 433.278554,147.256084 L433.278554,147.256084 Z" id="Shape" fill="#C8C5C5" sketch:type="MSShapeGroup"></path>
    </g>
</svg>