<?xml version="1.0" encoding="UTF-8" standalone="no"?>
<svg width="378px" height="317px" viewBox="0 0 378 317" version="1.1" xmlns="http://www.w3.org/2000/svg" xmlns:xlink="http://www.w3.org/1999/xlink" xmlns:sketch="http://www.bohemiancoding.com/sketch/ns">
    <!-- Generator: Sketch 3.3.2 (12043) - http://www.bohemiancoding.com/sketch -->
    <title>Slice 1@1x</title>
    <desc>Created with Sketch.</desc>
    <defs></defs>
    <g id="Page-1" stroke="none" stroke-width="1" fill="none" fill-rule="evenodd" sketch:type="MSPage">
        <g id="XOBoard" sketch:type="MSLayerGroup" transform="translate(30.000000, 18.000000)">
            <g sketch:type="MSShapeGroup">
                <path d="M112,0.5 L112,280.5" id="Line-Copy" stroke="#000000" stroke-width="4" stroke-linecap="square"></path>
                <path d="M281.5,83.5 L23.5,83.5" id="Line-Copy-3" stroke="#979797" stroke-linecap="square"></path>
                <path d="M212,0.5 L212,280.5" id="Line-Copy-2" stroke="#000000" stroke-width="4" stroke-linecap="square"></path>
                <path d="M317.5,84.5 L0.5,84.5" id="Line-Copy-4" stroke="#000000" stroke-width="4" stroke-linecap="square"></path>
                <path d="M317.5,184.5 L0.5,184.5" id="Line-Copy-5" stroke="#000000" stroke-width="3" stroke-linecap="square"></path>
                <g id="X" transform="translate(22.500000, 0.500000)" stroke="#000000">
                    <path d="M25.3876109,52.5026227 C50.2905879,74.4271604 69.4210925,54.4272958 69.4210925,54.4272958" id="Path-12" transform="translate(47.404352, 57.637393) rotate(40.000000) translate(-47.404352, -57.637393) "></path>
                    <path d="M-2.29378542,52.1341423 C22.6091916,74.0586799 41.7396962,54.0588153 41.7396962,54.0588153" id="Path-12-Copy" transform="translate(19.722955, 57.268912) rotate(315.000000) translate(-19.722955, -57.268912) "></path>
                    <path d="M-0.504860491,15.4293149 C24.3981165,37.3538526 43.5286211,17.3539879 43.5286211,17.3539879" id="Path-12-Copy-2" transform="translate(21.511880, 20.564085) rotate(224.000000) translate(-21.511880, -20.564085) "></path>
                    <path d="M22.4154996,16.1226987 C47.3184765,38.0472364 66.4489811,18.0473718 66.4489811,18.0473718" id="Path-12-Copy-3" transform="translate(44.432240, 21.257469) rotate(129.000000) translate(-44.432240, -21.257469) "></path>
                    <path d="M25.3876109,52.5026227 C50.2905879,74.4271604 69.4210925,54.4272958 69.4210925,54.4272958" id="Path-12-Copy-7" transform="translate(47.404352, 57.637393) rotate(40.000000) translate(-47.404352, -57.637393) "></path>
                    <path d="M-2.29378542,52.1341423 C22.6091916,74.0586799 41.7396962,54.0588153 41.7396962,54.0588153" id="Path-12-Copy-4" transform="translate(19.722955, 57.268912) rotate(315.000000) translate(-19.722955, -57.268912) "></path>
                    <path d="M-0.504860491,15.4293149 C24.3981165,37.3538526 43.5286211,17.3539879 43.5286211,17.3539879" id="Path-12-Copy-5" transform="translate(21.511880, 20.564085) rotate(224.000000) translate(-21.511880, -20.564085) "></path>
                    <path d="M22.4154996,16.1226987 C47.3184765,38.0472364 66.4489811,18.0473718 66.4489811,18.0473718" id="Path-12-Copy-6" transform="translate(44.432240, 21.257469) rotate(129.000000) translate(-44.432240, -21.257469) "></path>
                </g>
                <g id="X-Copy" transform="translate(131.000000, 96.000000)" stroke="#000000">
                    <path d="M25.3876109,52.5026227 C50.2905879,74.4271604 69.4210925,54.4272958 69.4210925,54.4272958" id="Path-12" transform="translate(47.404352, 57.637393) rotate(40.000000) translate(-47.404352, -57.637393) "></path>
                    <path d="M-2.29378542,52.1341423 C22.6091916,74.0586799 41.7396962,54.0588153 41.7396962,54.0588153" id="Path-12-Copy" transform="translate(19.722955, 57.268912) rotate(315.000000) translate(-19.722955, -57.268912) "></path>
                    <path d="M-0.504860491,15.4293149 C24.3981165,37.3538526 43.5286211,17.3539879 43.5286211,17.3539879" id="Path-12-Copy-2" transform="translate(21.511880, 20.564085) rotate(224.000000) translate(-21.511880, -20.564085) "></path>
                    <path d="M22.4154996,16.1226987 C47.3184765,38.0472364 66.4489811,18.0473718 66.4489811,18.0473718" id="Path-12-Copy-3" transform="translate(44.432240, 21.257469) rotate(129.000000) translate(-44.432240, -21.257469) "></path>
                    <path d="M25.3876109,52.5026227 C50.2905879,74.4271604 69.4210925,54.4272958 69.4210925,54.4272958" id="Path-12-Copy-7" transform="translate(47.404352, 57.637393) rotate(40.000000) translate(-47.404352, -57.637393) "></path>
                    <path d="M-2.29378542,52.1341423 C22.6091916,74.0586799 41.7396962,54.0588153 41.7396962,54.0588153" id="Path-12-Copy-4" transform="translate(19.722955, 57.268912) rotate(315.000000) translate(-19.722955, -57.268912) "></path>
                    <path d="M-0.504860491,15.4293149 C24.3981165,37.3538526 43.5286211,17.3539879 43.5286211,17.3539879" id="Path-12-Copy-5" transform="translate(21.511880, 20.564085) rotate(224.000000) translate(-21.511880, -20.564085) "></path>
                    <path d="M22.4154996,16.1226987 C47.3184765,38.0472364 66.4489811,18.0473718 66.4489811,18.0473718" id="Path-12-Copy-6" transform="translate(44.432240, 21.257469) rotate(129.000000) translate(-44.432240, -21.257469) "></path>
                </g>
                <g id="X-Copy-2" transform="translate(232.000000, 194.000000)" stroke="#000000">
                    <path d="M25.3876109,52.5026227 C50.2905879,74.4271604 69.4210925,54.4272958 69.4210925,54.4272958" id="Path-12" transform="translate(47.404352, 57.637393) rotate(40.000000) translate(-47.404352, -57.637393) "></path>
                    <path d="M-2.29378542,52.1341423 C22.6091916,74.0586799 41.7396962,54.0588153 41.7396962,54.0588153" id="Path-12-Copy" transform="translate(19.722955, 57.268912) rotate(315.000000) translate(-19.722955, -57.268912) "></path>
                    <path d="M-0.504860491,15.4293149 C24.3981165,37.3538526 43.5286211,17.3539879 43.5286211,17.3539879" id="Path-12-Copy-2" transform="translate(21.511880, 20.564085) rotate(224.000000) translate(-21.511880, -20.564085) "></path>
                    <path d="M22.4154996,16.1226987 C47.3184765,38.0472364 66.4489811,18.0473718 66.4489811,18.0473718" id="Path-12-Copy-3" transform="translate(44.432240, 21.257469) rotate(129.000000) translate(-44.432240, -21.257469) "></path>
                    <path d="M25.3876109,52.5026227 C50.2905879,74.4271604 69.4210925,54.4272958 69.4210925,54.4272958" id="Path-12-Copy-7" transform="translate(47.404352, 57.637393) rotate(40.000000) translate(-47.404352, -57.637393) "></path>
                    <path d="M-2.29378542,52.1341423 C22.6091916,74.0586799 41.7396962,54.0588153 41.7396962,54.0588153" id="Path-12-Copy-4" transform="translate(19.722955, 57.268912) rotate(315.000000) translate(-19.722955, -57.268912) "></path>
                    <path d="M-0.504860491,15.4293149 C24.3981165,37.3538526 43.5286211,17.3539879 43.5286211,17.3539879" id="Path-12-Copy-5" transform="translate(21.511880, 20.564085) rotate(224.000000) translate(-21.511880, -20.564085) "></path>
                    <path d="M22.4154996,16.1226987 C47.3184765,38.0472364 66.4489811,18.0473718 66.4489811,18.0473718" id="Path-12-Copy-6" transform="translate(44.432240, 21.257469) rotate(129.000000) translate(-44.432240, -21.257469) "></path>
                </g>
                <path d="M24.5,3.5 L306.5,274.5" id="Line" stroke="#D0011B" stroke-width="4" stroke-linecap="square"></path>
                <circle id="Oval-12" stroke="#000000" stroke-width="2" fill="#FFFFFF" cx="266.5" cy="37.5" r="37.5"></circle>
                <circle id="Oval-12-Copy" stroke="#000000" stroke-width="2" fill="#FFFFFF" cx="50.5" cy="237.5" r="37.5"></circle>
            </g>
        </g>
    </g>
</svg>